<svg width="26" height="26" viewBox="0 0 26 26" fill="none" xmlns="http://www.w3.org/2000/svg">
<path d="M18.418 3.25C18.7025 2.96547 19.0403 2.73977 19.412 2.58578C19.7838 2.43179 20.1822 2.35254 20.5846 2.35254C20.987 2.35254 21.3855 2.43179 21.7572 2.58578C22.129 2.73977 22.4668 2.96547 22.7513 3.25C23.0358 3.53453 23.2615 3.87232 23.4155 4.24408C23.5695 4.61583 23.6488 5.01428 23.6488 5.41667C23.6488 5.81905 23.5695 6.2175 23.4155 6.58926C23.2615 6.96102 23.0358 7.2988 22.7513 7.58333L8.1263 22.2083L2.16797 23.8333L3.79297 17.875L18.418 3.25Z" stroke="black" stroke-width="2" stroke-linecap="round" stroke-linejoin="round"/>
</svg>
