<svg width="165" height="38" viewBox="0 0 165 38" fill="none" xmlns="http://www.w3.org/2000/svg">
<g filter="url(#filter0_d_5200_25540)">
<path d="M12.32 16.672H21.92V28H18.08V25.504H17.504C17.248 26.336 16.7573 27.04 16.032 27.616C15.3067 28.1707 14.2187 28.448 12.768 28.448C11.744 28.448 10.784 28.256 9.888 27.872C8.992 27.488 8.21333 26.9227 7.552 26.176C6.89067 25.408 6.368 24.4693 5.984 23.36C5.6 22.2293 5.408 20.9173 5.408 19.424V14.176C5.408 12.7253 5.61067 11.4453 6.016 10.336C6.44267 9.20533 7.01867 8.256 7.744 7.488C8.49067 6.72 9.376 6.144 10.4 5.76C11.424 5.35467 12.5547 5.152 13.792 5.152C15.072 5.152 16.2133 5.36533 17.216 5.792C18.2187 6.19733 19.072 6.77333 19.776 7.52C20.48 8.24533 21.0133 9.10933 21.376 10.112C21.7387 11.0933 21.92 12.1493 21.92 13.28V13.664H17.696V13.28C17.696 11.936 17.344 10.9227 16.64 10.24C15.9573 9.536 14.9867 9.184 13.728 9.184C12.5333 9.184 11.552 9.58933 10.784 10.4C10.016 11.1893 9.632 12.5547 9.632 14.496V19.232C9.632 22.688 11.04 24.416 13.856 24.416C15.1147 24.416 16.064 24.0853 16.704 23.424C17.3653 22.7413 17.696 21.8347 17.696 20.704H12.32V16.672ZM26.3778 24.16H31.7538V15.968H26.7618V12.128H35.7858V24.16H40.3938V28H26.3778V24.16ZM36.7778 7.424C36.7778 7.85067 36.6924 8.256 36.5218 8.64C36.3724 9.00267 36.1591 9.32267 35.8818 9.6C35.6044 9.856 35.2738 10.0693 34.8898 10.24C34.5271 10.3893 34.1431 10.464 33.7378 10.464C33.3111 10.464 32.9164 10.3893 32.5538 10.24C32.1911 10.0693 31.8711 9.856 31.5938 9.6C31.3164 9.32267 31.0924 9.00267 30.9218 8.64C30.7724 8.256 30.6978 7.85067 30.6978 7.424C30.6978 6.99733 30.7724 6.60267 30.9218 6.24C31.0924 5.856 31.3164 5.536 31.5938 5.28C31.8711 5.00267 32.1911 4.78933 32.5538 4.64C32.9164 4.46933 33.3111 4.384 33.7378 4.384C34.1431 4.384 34.5271 4.46933 34.8898 4.64C35.2738 4.78933 35.6044 5.00267 35.8818 5.28C36.1591 5.536 36.3724 5.856 36.5218 6.24C36.6924 6.60267 36.7778 6.99733 36.7778 7.424ZM44.5635 12.128H48.9155L52.6595 26.08H53.2355L56.9795 12.128H61.3315L56.7875 28H49.1075L44.5635 12.128ZM68.8293 21.376C68.8506 21.8453 68.9573 22.2827 69.1493 22.688C69.3626 23.072 69.6399 23.4133 69.9813 23.712C70.3439 23.9893 70.7493 24.2133 71.1973 24.384C71.6666 24.5333 72.1573 24.608 72.6693 24.608C73.6719 24.608 74.4399 24.4373 74.9733 24.096C75.5066 23.7333 75.8906 23.3067 76.1253 22.816L79.5813 24.736C79.3893 25.1413 79.1226 25.568 78.7812 26.016C78.4399 26.4427 77.9919 26.8373 77.4373 27.2C76.9039 27.5627 76.2426 27.8613 75.4533 28.096C74.6853 28.3307 73.7786 28.448 72.7333 28.448C71.5386 28.448 70.4506 28.256 69.4693 27.872C68.4879 27.488 67.6346 26.9333 66.9093 26.208C66.2053 25.4827 65.6506 24.5973 65.2453 23.552C64.8613 22.5067 64.6693 21.3227 64.6693 20V19.808C64.6693 18.592 64.8719 17.4827 65.2773 16.48C65.7039 15.4773 66.2799 14.624 67.0052 13.92C67.7306 13.216 68.5733 12.672 69.5333 12.288C70.5146 11.8827 71.5599 11.68 72.6693 11.68C74.0346 11.68 75.2079 11.9253 76.1893 12.416C77.1706 12.8853 77.9813 13.4933 78.6213 14.24C79.2613 14.9653 79.7306 15.776 80.0293 16.672C80.3279 17.5467 80.4773 18.4 80.4773 19.232V21.376H68.8293ZM72.6373 15.328C71.6133 15.328 70.7813 15.5947 70.1413 16.128C69.5013 16.64 69.0853 17.2373 68.8933 17.92H76.3813C76.2533 17.1733 75.8479 16.5547 75.1653 16.064C74.5039 15.5733 73.6613 15.328 72.6373 15.328ZM95.143 25.696C94.7163 26.6987 94.119 27.4133 93.351 27.84C92.583 28.2453 91.687 28.448 90.663 28.448C89.703 28.448 88.7963 28.2667 87.943 27.904C87.111 27.5413 86.375 27.008 85.735 26.304C85.095 25.6 84.583 24.7467 84.199 23.744C83.8363 22.7413 83.655 21.6 83.655 20.32V19.808C83.655 18.5493 83.8363 17.4187 84.199 16.416C84.5617 15.4133 85.0523 14.56 85.671 13.856C86.2897 13.152 87.0043 12.6187 87.815 12.256C88.647 11.872 89.5323 11.68 90.471 11.68C91.6017 11.68 92.5083 11.872 93.191 12.256C93.895 12.64 94.4497 13.2373 94.855 14.048H95.431V12.128H99.463V23.2C99.463 23.84 99.751 24.16 100.327 24.16H100.935V28H98.183C97.4577 28 96.8603 27.7867 96.391 27.36C95.943 26.9333 95.719 26.3787 95.719 25.696H95.143ZM91.559 24.608C92.7323 24.608 93.671 24.224 94.375 23.456C95.079 22.6667 95.431 21.6 95.431 20.256V19.872C95.431 18.528 95.079 17.472 94.375 16.704C93.671 15.9147 92.7323 15.52 91.559 15.52C90.3857 15.52 89.447 15.9147 88.743 16.704C88.039 17.472 87.687 18.528 87.687 19.872V20.256C87.687 21.6 88.039 22.6667 88.743 23.456C89.447 24.224 90.3857 24.608 91.559 24.608ZM120.017 28H113.041L112.145 15.968V14.048H111.377V15.968L110.481 28H103.505L102.449 12.128H106.161L106.865 24.16V26.08H107.633V24.16L108.433 12.128H115.089L115.889 24.16V26.08H116.657V24.16L117.361 12.128H121.073L120.017 28ZM134.331 25.696C133.904 26.6987 133.307 27.4133 132.539 27.84C131.771 28.2453 130.875 28.448 129.851 28.448C128.891 28.448 127.984 28.2667 127.131 27.904C126.299 27.5413 125.563 27.008 124.923 26.304C124.283 25.6 123.771 24.7467 123.387 23.744C123.024 22.7413 122.843 21.6 122.843 20.32V19.808C122.843 18.5493 123.024 17.4187 123.387 16.416C123.749 15.4133 124.24 14.56 124.859 13.856C125.477 13.152 126.192 12.6187 127.003 12.256C127.835 11.872 128.72 11.68 129.659 11.68C130.789 11.68 131.696 11.872 132.379 12.256C133.083 12.64 133.637 13.2373 134.043 14.048H134.619V12.128H138.651V23.2C138.651 23.84 138.939 24.16 139.515 24.16H140.123V28H137.371C136.645 28 136.048 27.7867 135.579 27.36C135.131 26.9333 134.907 26.3787 134.907 25.696H134.331ZM130.747 24.608C131.92 24.608 132.859 24.224 133.563 23.456C134.267 22.6667 134.619 21.6 134.619 20.256V19.872C134.619 18.528 134.267 17.472 133.563 16.704C132.859 15.9147 131.92 15.52 130.747 15.52C129.573 15.52 128.635 15.9147 127.931 16.704C127.227 17.472 126.875 18.528 126.875 19.872V20.256C126.875 21.6 127.227 22.6667 127.931 23.456C128.635 24.224 129.573 24.608 130.747 24.608ZM154.404 12.128H158.436V31.904C158.436 32.6293 158.202 33.2267 157.732 33.696C157.284 34.1653 156.698 34.4 155.972 34.4H146.532V30.56H153.54C154.116 30.56 154.404 30.24 154.404 29.6V25.696H153.828C153.124 27.5307 151.61 28.448 149.284 28.448C148.495 28.448 147.759 28.32 147.076 28.064C146.394 27.808 145.796 27.4133 145.284 26.88C144.772 26.3467 144.367 25.6853 144.068 24.896C143.791 24.0853 143.652 23.136 143.652 22.048V12.128H147.684V21.216C147.684 22.3467 147.951 23.232 148.484 23.872C149.018 24.4907 149.818 24.8 150.884 24.8C152.1 24.8 152.986 24.416 153.54 23.648C154.116 22.8587 154.404 21.792 154.404 20.448V12.128Z" fill="white"/>
</g>
<defs>
<filter id="filter0_d_5200_25540" x="2.4082" y="4.38397" width="156.027" height="33.0161" filterUnits="userSpaceOnUse" color-interpolation-filters="sRGB">
<feFlood flood-opacity="0" result="BackgroundImageFix"/>
<feColorMatrix in="SourceAlpha" type="matrix" values="0 0 0 0 0 0 0 0 0 0 0 0 0 0 0 0 0 0 127 0" result="hardAlpha"/>
<feOffset dx="-3" dy="3"/>
<feComposite in2="hardAlpha" operator="out"/>
<feColorMatrix type="matrix" values="0 0 0 0 0 0 0 0 0 0 0 0 0 0 0 0 0 0 1 0"/>
<feBlend mode="normal" in2="BackgroundImageFix" result="effect1_dropShadow_5200_25540"/>
<feBlend mode="normal" in="SourceGraphic" in2="effect1_dropShadow_5200_25540" result="shape"/>
</filter>
</defs>
</svg>
