<svg width="96" height="32" viewBox="0 0 96 32" fill="none" xmlns="http://www.w3.org/2000/svg">
<g filter="url(#filter0_d_5200_25570)">
<path d="M3.124 5.6H17.268V9.632H7.348V14.752H16.884V18.784H7.348V23.968H17.652V28H3.124V5.6ZM21.4698 12.128H25.8218L29.5658 26.08H30.1418L33.8858 12.128H38.2378L33.6938 28H26.0138L21.4698 12.128ZM45.7355 21.376C45.7568 21.8453 45.8635 22.2827 46.0555 22.688C46.2688 23.072 46.5462 23.4133 46.8875 23.712C47.2502 23.9893 47.6555 24.2133 48.1035 24.384C48.5728 24.5333 49.0635 24.608 49.5755 24.608C50.5782 24.608 51.3462 24.4373 51.8795 24.096C52.4128 23.7333 52.7968 23.3067 53.0315 22.816L56.4875 24.736C56.2955 25.1413 56.0288 25.568 55.6875 26.016C55.3462 26.4427 54.8982 26.8373 54.3435 27.2C53.8102 27.5627 53.1488 27.8613 52.3595 28.096C51.5915 28.3307 50.6848 28.448 49.6395 28.448C48.4448 28.448 47.3568 28.256 46.3755 27.872C45.3942 27.488 44.5408 26.9333 43.8155 26.208C43.1115 25.4827 42.5568 24.5973 42.1515 23.552C41.7675 22.5067 41.5755 21.3227 41.5755 20V19.808C41.5755 18.592 41.7782 17.4827 42.1835 16.48C42.6102 15.4773 43.1862 14.624 43.9115 13.92C44.6368 13.216 45.4795 12.672 46.4395 12.288C47.4208 11.8827 48.4662 11.68 49.5755 11.68C50.9408 11.68 52.1142 11.9253 53.0955 12.416C54.0768 12.8853 54.8875 13.4933 55.5275 14.24C56.1675 14.9653 56.6368 15.776 56.9355 16.672C57.2342 17.5467 57.3835 18.4 57.3835 19.232V21.376H45.7355ZM49.5435 15.328C48.5195 15.328 47.6875 15.5947 47.0475 16.128C46.4075 16.64 45.9915 17.2373 45.7995 17.92H53.2875C53.1595 17.1733 52.7542 16.5547 52.0715 16.064C51.4102 15.5733 50.5675 15.328 49.5435 15.328ZM65.8093 28H61.7773V12.128H65.8093V14.496H66.3853C66.7479 13.6 67.3346 12.9067 68.1453 12.416C68.9559 11.9253 69.9053 11.68 70.9933 11.68C71.7613 11.68 72.4759 11.808 73.1373 12.064C73.8199 12.2987 74.4173 12.672 74.9293 13.184C75.4413 13.696 75.8359 14.3467 76.1133 15.136C76.4119 15.9253 76.5613 16.864 76.5613 17.952V28H72.5293V18.976C72.5293 17.8453 72.2519 16.96 71.6973 16.32C71.1639 15.6587 70.3853 15.328 69.3613 15.328C68.1666 15.328 67.2706 15.7333 66.6733 16.544C66.0973 17.3333 65.8093 18.4 65.8093 19.744V28ZM80.923 12.128H85.627V5.6H89.659V12.128H95.387V15.968H89.659V23.2C89.659 23.84 89.947 24.16 90.523 24.16H94.811V28H88.091C87.3657 28 86.7683 27.7653 86.299 27.296C85.851 26.8267 85.627 26.2293 85.627 25.504V15.968H80.923V12.128Z" fill="white"/>
</g>
<defs>
<filter id="filter0_d_5200_25570" x="0.123047" y="5.59998" width="95.2637" height="25.848" filterUnits="userSpaceOnUse" color-interpolation-filters="sRGB">
<feFlood flood-opacity="0" result="BackgroundImageFix"/>
<feColorMatrix in="SourceAlpha" type="matrix" values="0 0 0 0 0 0 0 0 0 0 0 0 0 0 0 0 0 0 127 0" result="hardAlpha"/>
<feOffset dx="-3" dy="3"/>
<feComposite in2="hardAlpha" operator="out"/>
<feColorMatrix type="matrix" values="0 0 0 0 0 0 0 0 0 0 0 0 0 0 0 0 0 0 1 0"/>
<feBlend mode="normal" in2="BackgroundImageFix" result="effect1_dropShadow_5200_25570"/>
<feBlend mode="normal" in="SourceGraphic" in2="effect1_dropShadow_5200_25570" result="shape"/>
</filter>
</defs>
</svg>
