<svg width="165" height="38" viewBox="0 0 165 38" fill="none" xmlns="http://www.w3.org/2000/svg">
<g filter="url(#filter0_d_5200_25555)">
<path d="M22.56 28H15.2L14.176 10.976V7.904H13.408V10.976L12.384 28H5.024L4.256 5.6H8.096L8.608 22.624V25.504H9.376V22.624L10.4 5.6H17.184L18.208 22.624V25.504H18.976V22.624L19.488 5.6H23.328L22.56 28ZM41.6418 20.256C41.6418 21.5787 41.4178 22.752 40.9698 23.776C40.5218 24.7787 39.9138 25.632 39.1458 26.336C38.3778 27.0187 37.4924 27.5413 36.4898 27.904C35.5084 28.2667 34.4738 28.448 33.3858 28.448C32.2978 28.448 31.2524 28.2667 30.2498 27.904C29.2684 27.5413 28.3938 27.0187 27.6258 26.336C26.8578 25.632 26.2498 24.7787 25.8018 23.776C25.3538 22.752 25.1298 21.5787 25.1298 20.256V19.872C25.1298 18.5707 25.3538 17.4187 25.8018 16.416C26.2498 15.392 26.8578 14.528 27.6258 13.824C28.3938 13.12 29.2684 12.5867 30.2498 12.224C31.2524 11.8613 32.2978 11.68 33.3858 11.68C34.4738 11.68 35.5084 11.8613 36.4898 12.224C37.4924 12.5867 38.3778 13.12 39.1458 13.824C39.9138 14.528 40.5218 15.392 40.9698 16.416C41.4178 17.4187 41.6418 18.5707 41.6418 19.872V20.256ZM33.3858 24.608C33.9618 24.608 34.5058 24.512 35.0178 24.32C35.5298 24.128 35.9778 23.8507 36.3618 23.488C36.7458 23.1253 37.0444 22.688 37.2578 22.176C37.4924 21.6427 37.6098 21.0453 37.6098 20.384V19.744C37.6098 19.0827 37.4924 18.496 37.2578 17.984C37.0444 17.4507 36.7458 17.0027 36.3618 16.64C35.9778 16.2773 35.5298 16 35.0178 15.808C34.5058 15.616 33.9618 15.52 33.3858 15.52C32.8098 15.52 32.2658 15.616 31.7538 15.808C31.2418 16 30.7938 16.2773 30.4098 16.64C30.0258 17.0027 29.7164 17.4507 29.4818 17.984C29.2684 18.496 29.1618 19.0827 29.1618 19.744V20.384C29.1618 21.0453 29.2684 21.6427 29.4818 22.176C29.7164 22.688 30.0258 23.1253 30.4098 23.488C30.7938 23.8507 31.2418 24.128 31.7538 24.32C32.2658 24.512 32.8098 24.608 33.3858 24.608ZM44.9155 12.128H51.6355V14.432H52.2115C52.5102 13.5573 53.0115 12.8853 53.7155 12.416C54.4408 11.9253 55.3048 11.68 56.3075 11.68C57.8862 11.68 59.1555 12.1813 60.1155 13.184C61.0755 14.1653 61.5555 15.6693 61.5555 17.696V18.4L57.3955 18.784V18.336C57.3955 17.4613 57.1715 16.768 56.7235 16.256C56.2755 15.7227 55.6035 15.456 54.7075 15.456C53.8115 15.456 53.1075 15.7653 52.5955 16.384C52.0835 17.0027 51.8275 17.888 51.8275 19.04V24.16H55.4755V28H44.5315V24.16H47.7955V15.968H44.9155V12.128ZM70.5893 17.952H71.3573L75.5813 12.128H79.9973V12.32L74.8773 19.584V20.16L80.5093 27.808V28H75.9013L71.3573 21.792H70.5893V28H66.5573V5.6H70.5893V17.952ZM89.927 16.608C89.927 17.12 90.1937 17.4933 90.727 17.728C91.2603 17.9413 92.231 18.1227 93.639 18.272C95.2603 18.4427 96.583 18.9333 97.607 19.744C98.631 20.5333 99.143 21.6427 99.143 23.072V23.264C99.143 24.8427 98.567 26.1013 97.415 27.04C96.263 27.9787 94.6417 28.448 92.551 28.448C91.3137 28.448 90.2577 28.288 89.383 27.968C88.5083 27.648 87.783 27.2533 87.207 26.784C86.631 26.2933 86.183 25.76 85.863 25.184C85.5643 24.5867 85.3617 24.0107 85.255 23.456L88.967 22.24C89.1377 22.9227 89.4897 23.52 90.023 24.032C90.5777 24.544 91.4203 24.8 92.551 24.8C93.5537 24.8 94.2363 24.6507 94.599 24.352C94.983 24.032 95.175 23.6907 95.175 23.328C95.175 23.1147 95.1217 22.9227 95.015 22.752C94.9297 22.56 94.759 22.3893 94.503 22.24C94.247 22.0693 93.895 21.9307 93.447 21.824C93.0203 21.7173 92.4763 21.632 91.815 21.568C90.023 21.4187 88.5937 20.96 87.527 20.192C86.4817 19.4027 85.959 18.2507 85.959 16.736V16.544C85.959 15.7547 86.1297 15.0613 86.471 14.464C86.8123 13.8667 87.2603 13.3653 87.815 12.96C88.3697 12.5333 89.0097 12.2133 89.735 12C90.4603 11.7867 91.207 11.68 91.975 11.68C92.9777 11.68 93.8417 11.808 94.567 12.064C95.3137 12.2987 95.943 12.6187 96.455 13.024C96.967 13.408 97.383 13.8453 97.703 14.336C98.023 14.8053 98.2683 15.264 98.439 15.712L94.791 17.184C94.599 16.608 94.2683 16.16 93.799 15.84C93.3297 15.4987 92.7217 15.328 91.975 15.328C91.2923 15.328 90.7803 15.456 90.439 15.712C90.0977 15.9467 89.927 16.2453 89.927 16.608ZM108.561 28H104.529V5.6H108.561V14.688H109.137C109.542 13.728 110.139 12.992 110.929 12.48C111.718 11.9467 112.689 11.68 113.841 11.68C114.63 11.68 115.355 11.808 116.017 12.064C116.678 12.32 117.254 12.704 117.745 13.216C118.235 13.728 118.619 14.3893 118.897 15.2C119.174 15.9893 119.313 16.928 119.313 18.016V28H115.281V18.976C115.281 17.8453 115.003 16.96 114.449 16.32C113.915 15.6587 113.137 15.328 112.113 15.328C110.918 15.328 110.022 15.7333 109.425 16.544C108.849 17.3333 108.561 18.4 108.561 19.744V28ZM139.611 20.256C139.611 21.5787 139.387 22.752 138.939 23.776C138.491 24.7787 137.883 25.632 137.115 26.336C136.347 27.0187 135.461 27.5413 134.459 27.904C133.477 28.2667 132.443 28.448 131.355 28.448C130.267 28.448 129.221 28.2667 128.219 27.904C127.237 27.5413 126.363 27.0187 125.595 26.336C124.827 25.632 124.219 24.7787 123.771 23.776C123.323 22.752 123.099 21.5787 123.099 20.256V19.872C123.099 18.5707 123.323 17.4187 123.771 16.416C124.219 15.392 124.827 14.528 125.595 13.824C126.363 13.12 127.237 12.5867 128.219 12.224C129.221 11.8613 130.267 11.68 131.355 11.68C132.443 11.68 133.477 11.8613 134.459 12.224C135.461 12.5867 136.347 13.12 137.115 13.824C137.883 14.528 138.491 15.392 138.939 16.416C139.387 17.4187 139.611 18.5707 139.611 19.872V20.256ZM131.355 24.608C131.931 24.608 132.475 24.512 132.987 24.32C133.499 24.128 133.947 23.8507 134.331 23.488C134.715 23.1253 135.013 22.688 135.227 22.176C135.461 21.6427 135.579 21.0453 135.579 20.384V19.744C135.579 19.0827 135.461 18.496 135.227 17.984C135.013 17.4507 134.715 17.0027 134.331 16.64C133.947 16.2773 133.499 16 132.987 15.808C132.475 15.616 131.931 15.52 131.355 15.52C130.779 15.52 130.235 15.616 129.723 15.808C129.211 16 128.763 16.2773 128.379 16.64C127.995 17.0027 127.685 17.4507 127.451 17.984C127.237 18.496 127.131 19.0827 127.131 19.744V20.384C127.131 21.0453 127.237 21.6427 127.451 22.176C127.685 22.688 127.995 23.1253 128.379 23.488C128.763 23.8507 129.211 24.128 129.723 24.32C130.235 24.512 130.779 24.608 131.355 24.608ZM146.852 34.4H142.82V12.128H146.852V14.432H147.428C147.855 13.5573 148.474 12.8853 149.284 12.416C150.095 11.9253 151.13 11.68 152.388 11.68C153.327 11.68 154.212 11.8613 155.044 12.224C155.898 12.5867 156.634 13.12 157.252 13.824C157.892 14.5067 158.394 15.3493 158.756 16.352C159.14 17.3547 159.332 18.496 159.332 19.776V20.352C159.332 21.6533 159.151 22.8053 158.788 23.808C158.426 24.8107 157.935 25.664 157.316 26.368C156.698 27.0507 155.962 27.5733 155.108 27.936C154.276 28.2773 153.37 28.448 152.388 28.448C151.663 28.448 151.034 28.3733 150.5 28.224C149.967 28.0747 149.498 27.872 149.092 27.616C148.708 27.36 148.378 27.072 148.1 26.752C147.844 26.4107 147.62 26.0587 147.428 25.696H146.852V34.4ZM151.076 24.608C152.335 24.608 153.348 24.224 154.116 23.456C154.906 22.6667 155.3 21.6 155.3 20.256V19.872C155.3 18.528 154.906 17.472 154.116 16.704C153.348 15.9147 152.335 15.52 151.076 15.52C149.818 15.52 148.794 15.9253 148.004 16.736C147.236 17.5253 146.852 18.5707 146.852 19.872V20.256C146.852 21.5573 147.236 22.6133 148.004 23.424C148.794 24.2133 149.818 24.608 151.076 24.608Z" fill="white"/>
</g>
<defs>
<filter id="filter0_d_5200_25555" x="1.25586" y="5.59998" width="158.076" height="31.8" filterUnits="userSpaceOnUse" color-interpolation-filters="sRGB">
<feFlood flood-opacity="0" result="BackgroundImageFix"/>
<feColorMatrix in="SourceAlpha" type="matrix" values="0 0 0 0 0 0 0 0 0 0 0 0 0 0 0 0 0 0 127 0" result="hardAlpha"/>
<feOffset dx="-3" dy="3"/>
<feComposite in2="hardAlpha" operator="out"/>
<feColorMatrix type="matrix" values="0 0 0 0 0 0 0 0 0 0 0 0 0 0 0 0 0 0 1 0"/>
<feBlend mode="normal" in2="BackgroundImageFix" result="effect1_dropShadow_5200_25555"/>
<feBlend mode="normal" in="SourceGraphic" in2="effect1_dropShadow_5200_25555" result="shape"/>
</filter>
</defs>
</svg>
