<svg width="204" height="32" viewBox="0 0 204 32" fill="none" xmlns="http://www.w3.org/2000/svg">
<g filter="url(#filter0_d_5200_25600)">
<path d="M5.472 23.968H7.584V9.632H5.472V5.6H15.296C16.3627 5.6 17.3013 5.74933 18.112 6.048C18.944 6.34667 19.6373 6.752 20.192 7.264C20.768 7.776 21.1947 8.39467 21.472 9.12C21.7707 9.824 21.92 10.592 21.92 11.424V11.808C21.92 13.088 21.5573 14.112 20.832 14.88C20.128 15.648 19.232 16.1813 18.144 16.48V17.056C19.232 17.3547 20.128 17.8987 20.832 18.688C21.5573 19.456 21.92 20.48 21.92 21.76V22.144C21.92 22.976 21.7707 23.7547 21.472 24.48C21.1947 25.184 20.768 25.8027 20.192 26.336C19.6373 26.848 18.944 27.2533 18.112 27.552C17.3013 27.8507 16.3627 28 15.296 28H5.472V23.968ZM11.808 23.968H14.88C15.776 23.968 16.5013 23.776 17.056 23.392C17.6107 23.008 17.888 22.368 17.888 21.472V21.28C17.888 20.384 17.6107 19.744 17.056 19.36C16.5013 18.976 15.776 18.784 14.88 18.784H11.808V23.968ZM11.808 14.752H14.88C15.776 14.752 16.5013 14.5707 17.056 14.208C17.6107 13.824 17.888 13.184 17.888 12.288V12.096C17.888 11.2 17.6107 10.5707 17.056 10.208C16.5013 9.824 15.776 9.632 14.88 9.632H11.808V14.752ZM25.9938 24.16H31.5618V9.44H26.1858V5.6H35.5938V24.16H40.7778V28H25.9938V24.16ZM61.2355 20.256C61.2355 21.5787 61.0115 22.752 60.5635 23.776C60.1155 24.7787 59.5075 25.632 58.7395 26.336C57.9715 27.0187 57.0862 27.5413 56.0835 27.904C55.1022 28.2667 54.0675 28.448 52.9795 28.448C51.8915 28.448 50.8462 28.2667 49.8435 27.904C48.8622 27.5413 47.9875 27.0187 47.2195 26.336C46.4515 25.632 45.8435 24.7787 45.3955 23.776C44.9475 22.752 44.7235 21.5787 44.7235 20.256V19.872C44.7235 18.5707 44.9475 17.4187 45.3955 16.416C45.8435 15.392 46.4515 14.528 47.2195 13.824C47.9875 13.12 48.8622 12.5867 49.8435 12.224C50.8462 11.8613 51.8915 11.68 52.9795 11.68C54.0675 11.68 55.1022 11.8613 56.0835 12.224C57.0862 12.5867 57.9715 13.12 58.7395 13.824C59.5075 14.528 60.1155 15.392 60.5635 16.416C61.0115 17.4187 61.2355 18.5707 61.2355 19.872V20.256ZM52.9795 24.608C53.5555 24.608 54.0995 24.512 54.6115 24.32C55.1235 24.128 55.5715 23.8507 55.9555 23.488C56.3395 23.1253 56.6382 22.688 56.8515 22.176C57.0862 21.6427 57.2035 21.0453 57.2035 20.384V19.744C57.2035 19.0827 57.0862 18.496 56.8515 17.984C56.6382 17.4507 56.3395 17.0027 55.9555 16.64C55.5715 16.2773 55.1235 16 54.6115 15.808C54.0995 15.616 53.5555 15.52 52.9795 15.52C52.4035 15.52 51.8595 15.616 51.3475 15.808C50.8355 16 50.3875 16.2773 50.0035 16.64C49.6195 17.0027 49.3102 17.4507 49.0755 17.984C48.8622 18.496 48.7555 19.0827 48.7555 19.744V20.384C48.7555 21.0453 48.8622 21.6427 49.0755 22.176C49.3102 22.688 49.6195 23.1253 50.0035 23.488C50.3875 23.8507 50.8355 24.128 51.3475 24.32C51.8595 24.512 52.4035 24.608 52.9795 24.608ZM80.7653 22.176C80.4026 24.0533 79.5386 25.568 78.1733 26.72C76.8293 27.872 75.0266 28.448 72.7653 28.448C71.5919 28.448 70.4933 28.2667 69.4693 27.904C68.4666 27.5413 67.5919 27.0187 66.8453 26.336C66.0986 25.6533 65.5119 24.8107 65.0853 23.808C64.6586 22.8053 64.4453 21.664 64.4453 20.384V20C64.4453 18.72 64.6586 17.568 65.0853 16.544C65.5119 15.52 66.0986 14.6453 66.8453 13.92C67.6133 13.1947 68.4986 12.64 69.5013 12.256C70.5253 11.872 71.6133 11.68 72.7653 11.68C74.9839 11.68 76.7759 12.256 78.1413 13.408C79.5279 14.56 80.4026 16.0747 80.7653 17.952L76.7973 18.976C76.6693 18.0373 76.2639 17.2267 75.5813 16.544C74.8986 15.8613 73.9386 15.52 72.7013 15.52C72.1253 15.52 71.5813 15.6267 71.0693 15.84C70.5573 16.0533 70.1093 16.3627 69.7253 16.768C69.3413 17.152 69.0319 17.632 68.7973 18.208C68.5839 18.7627 68.4773 19.392 68.4773 20.096V20.288C68.4773 20.992 68.5839 21.6213 68.7973 22.176C69.0319 22.7093 69.3413 23.1573 69.7253 23.52C70.1093 23.8827 70.5573 24.16 71.0693 24.352C71.5813 24.5227 72.1253 24.608 72.7013 24.608C73.9386 24.608 74.8773 24.2987 75.5173 23.68C76.1786 23.0613 76.6053 22.2293 76.7973 21.184L80.7653 22.176ZM90.183 17.952H90.951L95.175 12.128H99.591V12.32L94.471 19.584V20.16L100.103 27.808V28H95.495L90.951 21.792H90.183V28H86.151V5.6H90.183V17.952ZM119.953 22.176C119.59 24.0533 118.726 25.568 117.361 26.72C116.017 27.872 114.214 28.448 111.953 28.448C110.779 28.448 109.681 28.2667 108.657 27.904C107.654 27.5413 106.779 27.0187 106.033 26.336C105.286 25.6533 104.699 24.8107 104.273 23.808C103.846 22.8053 103.633 21.664 103.633 20.384V20C103.633 18.72 103.846 17.568 104.273 16.544C104.699 15.52 105.286 14.6453 106.033 13.92C106.801 13.1947 107.686 12.64 108.689 12.256C109.713 11.872 110.801 11.68 111.953 11.68C114.171 11.68 115.963 12.256 117.329 13.408C118.715 14.56 119.59 16.0747 119.953 17.952L115.985 18.976C115.857 18.0373 115.451 17.2267 114.769 16.544C114.086 15.8613 113.126 15.52 111.889 15.52C111.313 15.52 110.769 15.6267 110.257 15.84C109.745 16.0533 109.297 16.3627 108.913 16.768C108.529 17.152 108.219 17.632 107.985 18.208C107.771 18.7627 107.665 19.392 107.665 20.096V20.288C107.665 20.992 107.771 21.6213 107.985 22.176C108.219 22.7093 108.529 23.1573 108.913 23.52C109.297 23.8827 109.745 24.16 110.257 24.352C110.769 24.5227 111.313 24.608 111.889 24.608C113.126 24.608 114.065 24.2987 114.705 23.68C115.366 23.0613 115.793 22.2293 115.985 21.184L119.953 22.176ZM128.155 28H124.123V5.6H128.155V14.688H128.731C129.136 13.728 129.733 12.992 130.523 12.48C131.312 11.9467 132.283 11.68 133.435 11.68C134.224 11.68 134.949 11.808 135.611 12.064C136.272 12.32 136.848 12.704 137.339 13.216C137.829 13.728 138.213 14.3893 138.491 15.2C138.768 15.9893 138.907 16.928 138.907 18.016V28H134.875V18.976C134.875 17.8453 134.597 16.96 134.043 16.32C133.509 15.6587 132.731 15.328 131.707 15.328C130.512 15.328 129.616 15.7333 129.019 16.544C128.443 17.3333 128.155 18.4 128.155 19.744V28ZM153.924 25.696C153.498 26.6987 152.9 27.4133 152.132 27.84C151.364 28.2453 150.468 28.448 149.444 28.448C148.484 28.448 147.578 28.2667 146.724 27.904C145.892 27.5413 145.156 27.008 144.516 26.304C143.876 25.6 143.364 24.7467 142.98 23.744C142.618 22.7413 142.436 21.6 142.436 20.32V19.808C142.436 18.5493 142.618 17.4187 142.98 16.416C143.343 15.4133 143.834 14.56 144.452 13.856C145.071 13.152 145.786 12.6187 146.596 12.256C147.428 11.872 148.314 11.68 149.252 11.68C150.383 11.68 151.29 11.872 151.972 12.256C152.676 12.64 153.231 13.2373 153.636 14.048H154.212V12.128H158.244V23.2C158.244 23.84 158.532 24.16 159.108 24.16H159.716V28H156.964C156.239 28 155.642 27.7867 155.172 27.36C154.724 26.9333 154.5 26.3787 154.5 25.696H153.924ZM150.34 24.608C151.514 24.608 152.452 24.224 153.156 23.456C153.86 22.6667 154.212 21.6 154.212 20.256V19.872C154.212 18.528 153.86 17.472 153.156 16.704C152.452 15.9147 151.514 15.52 150.34 15.52C149.167 15.52 148.228 15.9147 147.524 16.704C146.82 17.472 146.468 18.528 146.468 19.872V20.256C146.468 21.6 146.82 22.6667 147.524 23.456C148.228 24.224 149.167 24.608 150.34 24.608ZM163.534 24.16H168.91V15.968H163.918V12.128H172.942V24.16H177.55V28H163.534V24.16ZM173.934 7.424C173.934 7.85067 173.849 8.256 173.678 8.64C173.529 9.00267 173.315 9.32267 173.038 9.6C172.761 9.856 172.43 10.0693 172.046 10.24C171.683 10.3893 171.299 10.464 170.894 10.464C170.467 10.464 170.073 10.3893 169.71 10.24C169.347 10.0693 169.027 9.856 168.75 9.6C168.473 9.32267 168.249 9.00267 168.078 8.64C167.929 8.256 167.854 7.85067 167.854 7.424C167.854 6.99733 167.929 6.60267 168.078 6.24C168.249 5.856 168.473 5.536 168.75 5.28C169.027 5.00267 169.347 4.78933 169.71 4.64C170.073 4.46933 170.467 4.384 170.894 4.384C171.299 4.384 171.683 4.46933 172.046 4.64C172.43 4.78933 172.761 5.00267 173.038 5.28C173.315 5.536 173.529 5.856 173.678 6.24C173.849 6.60267 173.934 6.99733 173.934 7.424ZM186.872 28H182.84V12.128H186.872V14.496H187.448C187.81 13.6 188.397 12.9067 189.208 12.416C190.018 11.9253 190.968 11.68 192.056 11.68C192.824 11.68 193.538 11.808 194.2 12.064C194.882 12.2987 195.48 12.672 195.992 13.184C196.504 13.696 196.898 14.3467 197.176 15.136C197.474 15.9253 197.624 16.864 197.624 17.952V28H193.592V18.976C193.592 17.8453 193.314 16.96 192.76 16.32C192.226 15.6587 191.448 15.328 190.424 15.328C189.229 15.328 188.333 15.7333 187.736 16.544C187.16 17.3333 186.872 18.4 186.872 19.744V28Z" fill="white"/>
</g>
<defs>
<filter id="filter0_d_5200_25600" x="2.47266" y="4.38397" width="195.15" height="27.064" filterUnits="userSpaceOnUse" color-interpolation-filters="sRGB">
<feFlood flood-opacity="0" result="BackgroundImageFix"/>
<feColorMatrix in="SourceAlpha" type="matrix" values="0 0 0 0 0 0 0 0 0 0 0 0 0 0 0 0 0 0 127 0" result="hardAlpha"/>
<feOffset dx="-3" dy="3"/>
<feComposite in2="hardAlpha" operator="out"/>
<feColorMatrix type="matrix" values="0 0 0 0 0 0 0 0 0 0 0 0 0 0 0 0 0 0 1 0"/>
<feBlend mode="normal" in2="BackgroundImageFix" result="effect1_dropShadow_5200_25600"/>
<feBlend mode="normal" in="SourceGraphic" in2="effect1_dropShadow_5200_25600" result="shape"/>
</filter>
</defs>
</svg>
