<svg width="87" height="32" viewBox="0 0 87 32" fill="none" xmlns="http://www.w3.org/2000/svg">
<g filter="url(#filter0_d_5200_25510)">
<path d="M22.56 28H15.2L14.176 10.976V7.904H13.408V10.976L12.384 28H5.024L4.256 5.6H8.096L8.608 22.624V25.504H9.376V22.624L10.4 5.6H17.184L18.208 22.624V25.504H18.976V22.624L19.488 5.6H23.328L22.56 28ZM29.6418 21.376C29.6631 21.8453 29.7698 22.2827 29.9618 22.688C30.1751 23.072 30.4524 23.4133 30.7938 23.712C31.1564 23.9893 31.5618 24.2133 32.0098 24.384C32.4791 24.5333 32.9698 24.608 33.4818 24.608C34.4844 24.608 35.2524 24.4373 35.7858 24.096C36.3191 23.7333 36.7031 23.3067 36.9378 22.816L40.3938 24.736C40.2018 25.1413 39.9351 25.568 39.5938 26.016C39.2524 26.4427 38.8044 26.8373 38.2498 27.2C37.7164 27.5627 37.0551 27.8613 36.2658 28.096C35.4978 28.3307 34.5911 28.448 33.5458 28.448C32.3511 28.448 31.2631 28.256 30.2818 27.872C29.3004 27.488 28.4471 26.9333 27.7218 26.208C27.0178 25.4827 26.4631 24.5973 26.0578 23.552C25.6738 22.5067 25.4818 21.3227 25.4818 20V19.808C25.4818 18.592 25.6844 17.4827 26.0898 16.48C26.5164 15.4773 27.0924 14.624 27.8177 13.92C28.5431 13.216 29.3858 12.672 30.3458 12.288C31.3271 11.8827 32.3724 11.68 33.4818 11.68C34.8471 11.68 36.0204 11.9253 37.0018 12.416C37.9831 12.8853 38.7938 13.4933 39.4338 14.24C40.0738 14.9653 40.5431 15.776 40.8418 16.672C41.1404 17.5467 41.2898 18.4 41.2898 19.232V21.376H29.6418ZM33.4498 15.328C32.4258 15.328 31.5938 15.5947 30.9538 16.128C30.3138 16.64 29.8978 17.2373 29.7058 17.92H37.1938C37.0658 17.1733 36.6604 16.5547 35.9778 16.064C35.3164 15.5733 34.4738 15.328 33.4498 15.328ZM49.0435 28H45.0115V5.6H49.0435V14.432H49.6195C50.0462 13.5573 50.6648 12.8853 51.4755 12.416C52.2862 11.9253 53.3208 11.68 54.5795 11.68C55.5182 11.68 56.4035 11.8613 57.2355 12.224C58.0888 12.5867 58.8248 13.12 59.4435 13.824C60.0835 14.5067 60.5848 15.3493 60.9475 16.352C61.3315 17.3547 61.5235 18.496 61.5235 19.776V20.352C61.5235 21.6533 61.3422 22.8053 60.9795 23.808C60.6168 24.8107 60.1262 25.664 59.5075 26.368C58.8888 27.0507 58.1528 27.5733 57.2995 27.936C56.4675 28.2773 55.5608 28.448 54.5795 28.448C53.8542 28.448 53.2248 28.3733 52.6915 28.224C52.1582 28.0747 51.6888 27.872 51.2835 27.616C50.8995 27.36 50.5688 27.072 50.2915 26.752C50.0355 26.4107 49.8115 26.0587 49.6195 25.696H49.0435V28ZM53.2675 24.608C54.5262 24.608 55.5395 24.224 56.3075 23.456C57.0968 22.6667 57.4915 21.6 57.4915 20.256V19.872C57.4915 18.528 57.0968 17.472 56.3075 16.704C55.5395 15.9147 54.5262 15.52 53.2675 15.52C52.0088 15.52 50.9848 15.9253 50.1955 16.736C49.4275 17.5253 49.0435 18.5707 49.0435 19.872V20.256C49.0435 21.5573 49.4275 22.6133 50.1955 23.424C50.9848 24.2133 52.0088 24.608 53.2675 24.608ZM70.3973 18.4V11.744L75.9653 10.208V9.632H64.8293V5.6H79.4213V12.64L73.4693 14.368V14.944H74.2373C75.0266 14.944 75.8053 15.072 76.5733 15.328C77.3413 15.5627 78.0133 15.936 78.5893 16.448C79.1866 16.96 79.6666 17.6 80.0293 18.368C80.3919 19.1147 80.5733 20 80.5733 21.024V21.408C80.5733 22.4107 80.4026 23.3387 80.0613 24.192C79.7413 25.0453 79.2506 25.792 78.5893 26.432C77.9493 27.0507 77.1493 27.5413 76.1893 27.904C75.2293 28.2667 74.1306 28.448 72.8933 28.448C71.6346 28.448 70.4933 28.2453 69.4693 27.84C68.4453 27.4347 67.5706 26.88 66.8453 26.176C66.1413 25.472 65.5973 24.6613 65.2133 23.744C64.8293 22.8267 64.6373 21.856 64.6373 20.832V19.488H68.8613V20.64C68.8613 21.664 69.1919 22.5493 69.8533 23.296C70.5146 24.0427 71.5066 24.416 72.8293 24.416C73.9599 24.416 74.8239 24.128 75.4213 23.552C76.0399 22.976 76.3493 22.2187 76.3493 21.28C76.3493 20.2773 76.0186 19.552 75.3573 19.104C74.7173 18.6347 73.8959 18.4 72.8933 18.4H70.3973Z" fill="white"/>
</g>
<defs>
<filter id="filter0_d_5200_25510" x="1.25586" y="5.59998" width="79.3184" height="25.848" filterUnits="userSpaceOnUse" color-interpolation-filters="sRGB">
<feFlood flood-opacity="0" result="BackgroundImageFix"/>
<feColorMatrix in="SourceAlpha" type="matrix" values="0 0 0 0 0 0 0 0 0 0 0 0 0 0 0 0 0 0 127 0" result="hardAlpha"/>
<feOffset dx="-3" dy="3"/>
<feComposite in2="hardAlpha" operator="out"/>
<feColorMatrix type="matrix" values="0 0 0 0 0 0 0 0 0 0 0 0 0 0 0 0 0 0 1 0"/>
<feBlend mode="normal" in2="BackgroundImageFix" result="effect1_dropShadow_5200_25510"/>
<feBlend mode="normal" in="SourceGraphic" in2="effect1_dropShadow_5200_25510" result="shape"/>
</filter>
</defs>
</svg>
