<svg width="126" height="38" viewBox="0 0 126 38" fill="none" xmlns="http://www.w3.org/2000/svg">
<g filter="url(#filter0_d_5200_25585)">
<path d="M4.704 5.6H12.128L13.408 22.432V25.696H14.176V22.432L15.456 5.6H22.88V28H19.04V13.024L19.424 7.904H18.656L16.992 28H10.656L8.928 7.904H8.16L8.544 13.024V28H4.704V5.6ZM29.6418 21.376C29.6631 21.8453 29.7698 22.2827 29.9618 22.688C30.1751 23.072 30.4524 23.4133 30.7938 23.712C31.1564 23.9893 31.5618 24.2133 32.0098 24.384C32.4791 24.5333 32.9698 24.608 33.4818 24.608C34.4844 24.608 35.2524 24.4373 35.7858 24.096C36.3191 23.7333 36.7031 23.3067 36.9378 22.816L40.3938 24.736C40.2018 25.1413 39.9351 25.568 39.5938 26.016C39.2524 26.4427 38.8044 26.8373 38.2498 27.2C37.7164 27.5627 37.0551 27.8613 36.2658 28.096C35.4978 28.3307 34.5911 28.448 33.5458 28.448C32.3511 28.448 31.2631 28.256 30.2818 27.872C29.3004 27.488 28.4471 26.9333 27.7218 26.208C27.0178 25.4827 26.4631 24.5973 26.0578 23.552C25.6738 22.5067 25.4818 21.3227 25.4818 20V19.808C25.4818 18.592 25.6844 17.4827 26.0898 16.48C26.5164 15.4773 27.0924 14.624 27.8177 13.92C28.5431 13.216 29.3858 12.672 30.3458 12.288C31.3271 11.8827 32.3724 11.68 33.4818 11.68C34.8471 11.68 36.0204 11.9253 37.0018 12.416C37.9831 12.8853 38.7938 13.4933 39.4338 14.24C40.0738 14.9653 40.5431 15.776 40.8418 16.672C41.1404 17.5467 41.2898 18.4 41.2898 19.232V21.376H29.6418ZM33.4498 15.328C32.4258 15.328 31.5938 15.5947 30.9538 16.128C30.3138 16.64 29.8978 17.2373 29.7058 17.92H37.1938C37.0658 17.1733 36.6604 16.5547 35.9778 16.064C35.3164 15.5733 34.4738 15.328 33.4498 15.328ZM49.2355 21.376C49.2568 21.8453 49.3635 22.2827 49.5555 22.688C49.7688 23.072 50.0462 23.4133 50.3875 23.712C50.7502 23.9893 51.1555 24.2133 51.6035 24.384C52.0728 24.5333 52.5635 24.608 53.0755 24.608C54.0782 24.608 54.8462 24.4373 55.3795 24.096C55.9128 23.7333 56.2968 23.3067 56.5315 22.816L59.9875 24.736C59.7955 25.1413 59.5288 25.568 59.1875 26.016C58.8462 26.4427 58.3982 26.8373 57.8435 27.2C57.3102 27.5627 56.6488 27.8613 55.8595 28.096C55.0915 28.3307 54.1848 28.448 53.1395 28.448C51.9448 28.448 50.8568 28.256 49.8755 27.872C48.8942 27.488 48.0408 26.9333 47.3155 26.208C46.6115 25.4827 46.0568 24.5973 45.6515 23.552C45.2675 22.5067 45.0755 21.3227 45.0755 20V19.808C45.0755 18.592 45.2782 17.4827 45.6835 16.48C46.1102 15.4773 46.6862 14.624 47.4115 13.92C48.1368 13.216 48.9795 12.672 49.9395 12.288C50.9208 11.8827 51.9662 11.68 53.0755 11.68C54.4408 11.68 55.6142 11.9253 56.5955 12.416C57.5768 12.8853 58.3875 13.4933 59.0275 14.24C59.6675 14.9653 60.1368 15.776 60.4355 16.672C60.7342 17.5467 60.8835 18.4 60.8835 19.232V21.376H49.2355ZM53.0435 15.328C52.0195 15.328 51.1875 15.5947 50.5475 16.128C49.9075 16.64 49.4915 17.2373 49.2995 17.92H56.7875C56.6595 17.1733 56.2542 16.5547 55.5715 16.064C54.9102 15.5733 54.0675 15.328 53.0435 15.328ZM64.8293 12.128H69.5333V5.6H73.5653V12.128H79.2933V15.968H73.5653V23.2C73.5653 23.84 73.8533 24.16 74.4293 24.16H78.7173V28H71.9973C71.2719 28 70.6746 27.7653 70.2053 27.296C69.7573 26.8267 69.5333 26.2293 69.5333 25.504V15.968H64.8293V12.128ZM95.623 12.128H99.655V28H95.623V25.696H95.047C94.343 27.5307 92.8283 28.448 90.503 28.448C89.7137 28.448 88.9777 28.32 88.295 28.064C87.6123 27.808 87.015 27.4133 86.503 26.88C85.991 26.3467 85.5857 25.6853 85.287 24.896C85.0097 24.0853 84.871 23.136 84.871 22.048V12.128H88.903V21.216C88.903 22.3467 89.1697 23.232 89.703 23.872C90.2363 24.4907 91.0363 24.8 92.103 24.8C93.319 24.8 94.2043 24.416 94.759 23.648C95.335 22.8587 95.623 21.792 95.623 20.448V12.128ZM107.665 34.4H103.633V12.128H107.665V14.432H108.241C108.667 13.5573 109.286 12.8853 110.097 12.416C110.907 11.9253 111.942 11.68 113.201 11.68C114.139 11.68 115.025 11.8613 115.857 12.224C116.71 12.5867 117.446 13.12 118.065 13.824C118.705 14.5067 119.206 15.3493 119.569 16.352C119.953 17.3547 120.145 18.496 120.145 19.776V20.352C120.145 21.6533 119.963 22.8053 119.601 23.808C119.238 24.8107 118.747 25.664 118.129 26.368C117.51 27.0507 116.774 27.5733 115.921 27.936C115.089 28.2773 114.182 28.448 113.201 28.448C112.475 28.448 111.846 28.3733 111.313 28.224C110.779 28.0747 110.31 27.872 109.905 27.616C109.521 27.36 109.19 27.072 108.913 26.752C108.657 26.4107 108.433 26.0587 108.241 25.696H107.665V34.4ZM111.889 24.608C113.147 24.608 114.161 24.224 114.929 23.456C115.718 22.6667 116.113 21.6 116.113 20.256V19.872C116.113 18.528 115.718 17.472 114.929 16.704C114.161 15.9147 113.147 15.52 111.889 15.52C110.63 15.52 109.606 15.9253 108.817 16.736C108.049 17.5253 107.665 18.5707 107.665 19.872V20.256C107.665 21.5573 108.049 22.6133 108.817 23.424C109.606 24.2133 110.63 24.608 111.889 24.608Z" fill="white"/>
</g>
<defs>
<filter id="filter0_d_5200_25585" x="1.70312" y="5.59998" width="118.441" height="31.8" filterUnits="userSpaceOnUse" color-interpolation-filters="sRGB">
<feFlood flood-opacity="0" result="BackgroundImageFix"/>
<feColorMatrix in="SourceAlpha" type="matrix" values="0 0 0 0 0 0 0 0 0 0 0 0 0 0 0 0 0 0 127 0" result="hardAlpha"/>
<feOffset dx="-3" dy="3"/>
<feComposite in2="hardAlpha" operator="out"/>
<feColorMatrix type="matrix" values="0 0 0 0 0 0 0 0 0 0 0 0 0 0 0 0 0 0 1 0"/>
<feBlend mode="normal" in2="BackgroundImageFix" result="effect1_dropShadow_5200_25585"/>
<feBlend mode="normal" in="SourceGraphic" in2="effect1_dropShadow_5200_25585" result="shape"/>
</filter>
</defs>
</svg>
