<svg width="185" height="38" viewBox="0 0 185 38" fill="none" xmlns="http://www.w3.org/2000/svg">
<g filter="url(#filter0_d_5200_25525)">
<path d="M13.856 24.608C14.6667 24.608 15.328 24.4907 15.84 24.256C16.3733 24 16.7787 23.6693 17.056 23.264C17.3547 22.8373 17.5573 22.3573 17.664 21.824C17.7707 21.2693 17.824 20.704 17.824 20.128V19.552H22.048V20.128C22.048 22.7947 21.344 24.8533 19.936 26.304C18.5493 27.7333 16.5227 28.448 13.856 28.448C11.296 28.448 9.26933 27.6693 7.776 26.112C6.28267 24.5547 5.536 22.2827 5.536 19.296V14.304C5.536 12.8747 5.728 11.5947 6.112 10.464C6.496 9.312 7.05067 8.352 7.776 7.584C8.50133 6.79467 9.376 6.19733 10.4 5.792C11.424 5.36533 12.576 5.152 13.856 5.152C15.1787 5.152 16.352 5.344 17.376 5.728C18.4 6.112 19.2533 6.66667 19.936 7.392C20.64 8.11733 21.1627 8.992 21.504 10.016C21.8667 11.04 22.048 12.192 22.048 13.472V14.048H17.824V13.472C17.824 12.9387 17.76 12.4053 17.632 11.872C17.504 11.3387 17.2907 10.8587 16.992 10.432C16.6933 10.0053 16.288 9.664 15.776 9.408C15.264 9.13067 14.624 8.992 13.856 8.992C13.152 8.992 12.544 9.13067 12.032 9.408C11.52 9.664 11.0933 10.0267 10.752 10.496C10.4107 10.944 10.1547 11.4773 9.984 12.096C9.83467 12.6933 9.76 13.3227 9.76 13.984V19.616C9.76 20.3413 9.83467 21.0133 9.984 21.632C10.1333 22.2293 10.368 22.752 10.688 23.2C11.008 23.648 11.424 24 11.936 24.256C12.4693 24.4907 13.1093 24.608 13.856 24.608ZM41.6418 20.256C41.6418 21.5787 41.4178 22.752 40.9698 23.776C40.5218 24.7787 39.9138 25.632 39.1458 26.336C38.3778 27.0187 37.4924 27.5413 36.4898 27.904C35.5084 28.2667 34.4738 28.448 33.3858 28.448C32.2978 28.448 31.2524 28.2667 30.2498 27.904C29.2684 27.5413 28.3938 27.0187 27.6258 26.336C26.8578 25.632 26.2498 24.7787 25.8018 23.776C25.3538 22.752 25.1298 21.5787 25.1298 20.256V19.872C25.1298 18.5707 25.3538 17.4187 25.8018 16.416C26.2498 15.392 26.8578 14.528 27.6258 13.824C28.3938 13.12 29.2684 12.5867 30.2498 12.224C31.2524 11.8613 32.2978 11.68 33.3858 11.68C34.4738 11.68 35.5084 11.8613 36.4898 12.224C37.4924 12.5867 38.3778 13.12 39.1458 13.824C39.9138 14.528 40.5218 15.392 40.9698 16.416C41.4178 17.4187 41.6418 18.5707 41.6418 19.872V20.256ZM33.3858 24.608C33.9618 24.608 34.5058 24.512 35.0178 24.32C35.5298 24.128 35.9778 23.8507 36.3618 23.488C36.7458 23.1253 37.0444 22.688 37.2578 22.176C37.4924 21.6427 37.6098 21.0453 37.6098 20.384V19.744C37.6098 19.0827 37.4924 18.496 37.2578 17.984C37.0444 17.4507 36.7458 17.0027 36.3618 16.64C35.9778 16.2773 35.5298 16 35.0178 15.808C34.5058 15.616 33.9618 15.52 33.3858 15.52C32.8098 15.52 32.2658 15.616 31.7538 15.808C31.2418 16 30.7938 16.2773 30.4098 16.64C30.0258 17.0027 29.7164 17.4507 29.4818 17.984C29.2684 18.496 29.1618 19.0827 29.1618 19.744V20.384C29.1618 21.0453 29.2684 21.6427 29.4818 22.176C29.7164 22.688 30.0258 23.1253 30.4098 23.488C30.7938 23.8507 31.2418 24.128 31.7538 24.32C32.2658 24.512 32.8098 24.608 33.3858 24.608ZM61.6195 28H57.5875V16.864C57.5875 16.416 57.4702 16.0853 57.2355 15.872C57.0222 15.6373 56.7342 15.52 56.3715 15.52C55.9448 15.52 55.6035 15.648 55.3475 15.904C55.1128 16.16 54.9955 16.544 54.9955 17.056V28H50.9635V16.864C50.9635 16.416 50.8355 16.0853 50.5795 15.872C50.3448 15.6373 50.0568 15.52 49.7155 15.52C49.3315 15.52 49.0115 15.648 48.7555 15.904C48.4995 16.16 48.3715 16.544 48.3715 17.056V28H44.3395V12.128H48.3715V13.664H48.9475C49.0755 13.088 49.3635 12.6187 49.8115 12.256C50.2808 11.872 50.8888 11.68 51.6355 11.68C52.3395 11.68 52.9368 11.872 53.4275 12.256C53.9182 12.6187 54.2488 13.088 54.4195 13.664H54.9955C55.1662 13.088 55.5182 12.6187 56.0515 12.256C56.6062 11.872 57.2888 11.68 58.0995 11.68C59.1662 11.68 60.0195 12.0427 60.6595 12.768C61.2995 13.472 61.6195 14.4533 61.6195 15.712V28ZM81.2133 28H77.1813V16.864C77.1813 16.416 77.0639 16.0853 76.8293 15.872C76.6159 15.6373 76.3279 15.52 75.9653 15.52C75.5386 15.52 75.1973 15.648 74.9413 15.904C74.7066 16.16 74.5893 16.544 74.5893 17.056V28H70.5573V16.864C70.5573 16.416 70.4293 16.0853 70.1733 15.872C69.9386 15.6373 69.6506 15.52 69.3093 15.52C68.9253 15.52 68.6053 15.648 68.3493 15.904C68.0933 16.16 67.9653 16.544 67.9653 17.056V28H63.9333V12.128H67.9653V13.664H68.5413C68.6693 13.088 68.9573 12.6187 69.4053 12.256C69.8746 11.872 70.4826 11.68 71.2292 11.68C71.9333 11.68 72.5306 11.872 73.0213 12.256C73.5119 12.6187 73.8426 13.088 74.0133 13.664H74.5893C74.7599 13.088 75.1119 12.6187 75.6453 12.256C76.1999 11.872 76.8826 11.68 77.6933 11.68C78.7599 11.68 79.6133 12.0427 80.2533 12.768C80.8933 13.472 81.2133 14.4533 81.2133 15.712V28ZM95.623 12.128H99.655V28H95.623V25.696H95.047C94.343 27.5307 92.8283 28.448 90.503 28.448C89.7137 28.448 88.9777 28.32 88.295 28.064C87.6123 27.808 87.015 27.4133 86.503 26.88C85.991 26.3467 85.5857 25.6853 85.287 24.896C85.0097 24.0853 84.871 23.136 84.871 22.048V12.128H88.903V21.216C88.903 22.3467 89.1697 23.232 89.703 23.872C90.2363 24.4907 91.0363 24.8 92.103 24.8C93.319 24.8 94.2043 24.416 94.759 23.648C95.335 22.8587 95.623 21.792 95.623 20.448V12.128ZM108.497 28H104.465V12.128H108.497V14.496H109.073C109.435 13.6 110.022 12.9067 110.833 12.416C111.643 11.9253 112.593 11.68 113.681 11.68C114.449 11.68 115.163 11.808 115.825 12.064C116.507 12.2987 117.105 12.672 117.617 13.184C118.129 13.696 118.523 14.3467 118.801 15.136C119.099 15.9253 119.249 16.864 119.249 17.952V28H115.217V18.976C115.217 17.8453 114.939 16.96 114.385 16.32C113.851 15.6587 113.073 15.328 112.049 15.328C110.854 15.328 109.958 15.7333 109.361 16.544C108.785 17.3333 108.497 18.4 108.497 19.744V28ZM124.347 24.16H129.723V15.968H124.731V12.128H133.755V24.16H138.363V28H124.347V24.16ZM134.747 7.424C134.747 7.85067 134.661 8.256 134.491 8.64C134.341 9.00267 134.128 9.32267 133.851 9.6C133.573 9.856 133.243 10.0693 132.859 10.24C132.496 10.3893 132.112 10.464 131.707 10.464C131.28 10.464 130.885 10.3893 130.523 10.24C130.16 10.0693 129.84 9.856 129.562 9.6C129.285 9.32267 129.061 9.00267 128.891 8.64C128.741 8.256 128.667 7.85067 128.667 7.424C128.667 6.99733 128.741 6.60267 128.891 6.24C129.061 5.856 129.285 5.536 129.562 5.28C129.84 5.00267 130.16 4.78933 130.523 4.64C130.885 4.46933 131.28 4.384 131.707 4.384C132.112 4.384 132.496 4.46933 132.859 4.64C133.243 4.78933 133.573 5.00267 133.851 5.28C134.128 5.536 134.341 5.856 134.491 6.24C134.661 6.60267 134.747 6.99733 134.747 7.424ZM143.204 12.128H147.908V5.6H151.94V12.128H157.668V15.968H151.94V23.2C151.94 23.84 152.228 24.16 152.804 24.16H157.092V28H150.372C149.647 28 149.05 27.7653 148.58 27.296C148.132 26.8267 147.908 26.2293 147.908 25.504V15.968H143.204V12.128ZM173.998 12.128H178.03V31.904C178.03 32.6293 177.795 33.2267 177.326 33.696C176.878 34.1653 176.291 34.4 175.566 34.4H166.126V30.56H173.134C173.71 30.56 173.998 30.24 173.998 29.6V25.696H173.422C172.718 27.5307 171.203 28.448 168.878 28.448C168.089 28.448 167.353 28.32 166.67 28.064C165.987 27.808 165.39 27.4133 164.878 26.88C164.366 26.3467 163.961 25.6853 163.662 24.896C163.385 24.0853 163.246 23.136 163.246 22.048V12.128H167.278V21.216C167.278 22.3467 167.545 23.232 168.078 23.872C168.611 24.4907 169.411 24.8 170.478 24.8C171.694 24.8 172.579 24.416 173.134 23.648C173.71 22.8587 173.998 21.792 173.998 20.448V12.128Z" fill="white"/>
</g>
<defs>
<filter id="filter0_d_5200_25525" x="2.53516" y="4.38397" width="175.494" height="33.0161" filterUnits="userSpaceOnUse" color-interpolation-filters="sRGB">
<feFlood flood-opacity="0" result="BackgroundImageFix"/>
<feColorMatrix in="SourceAlpha" type="matrix" values="0 0 0 0 0 0 0 0 0 0 0 0 0 0 0 0 0 0 127 0" result="hardAlpha"/>
<feOffset dx="-3" dy="3"/>
<feComposite in2="hardAlpha" operator="out"/>
<feColorMatrix type="matrix" values="0 0 0 0 0 0 0 0 0 0 0 0 0 0 0 0 0 0 1 0"/>
<feBlend mode="normal" in2="BackgroundImageFix" result="effect1_dropShadow_5200_25525"/>
<feBlend mode="normal" in="SourceGraphic" in2="effect1_dropShadow_5200_25525" result="shape"/>
</filter>
</defs>
</svg>
