<svg width="101" height="27" viewBox="0 0 101 27" fill="none" xmlns="http://www.w3.org/2000/svg">
<path d="M-74.3306 13.6093C-75.0342 13.6096 -74.7906 13.5924 -75.0845 13.6093C-75.6876 13.6093 -75.5871 26.7405 -75.0845 26.7405C-74.1207 26.9253 -73.4573 27.218 -72.5716 26.7405C-37.3904 7.77367 -39.0489 11.1445 -36.0334 24.7786C-35.8323 25.1808 -33.6209 25.2317 -32.8168 25.0805C-26.3334 18.7917 -10.6024 11.5976 -6.98376 24.1246C-6.12936 24.7786 -4.01853 24.5771 -4.01853 24.5771C21.1418 13.9933 32.7059 10.6579 34.7311 23.7218C35.686 24.4006 36.9928 23.7218 36.9928 23.7218C55.3792 13.5761 64.3967 10.0213 69.661 21.5584C70.9677 21.9857 71.7719 21.5584 71.7719 21.5584C85.8779 11.3906 89.6131 13.2843 93.5842 21.5584C94.1371 22.187 96.7003 21.5584 96.7003 21.5584C114.665 13.4524 119.113 14.0429 119.97 21.5584C121.528 22.4888 122.835 21.5584 122.835 21.5584C128.602 16.7419 132.18 14.9698 139.621 14.6659C139.621 14.6659 141.38 18.0615 142.486 19.4957C143.126 20.3255 145.94 19.7903 146.205 19.647C149.367 17.9398 164.777 10.4537 166.811 13.2072C167.872 14.6436 167.565 17.5339 168.068 17.5339C168.57 17.5339 170.976 17.6571 171.435 17.5339C173.449 16.6163 174.485 16.0494 176.21 14.9681C176.806 13.3601 176.313 3.06769 176.223 1.2926C176.216 1.16088 176.085 1.07903 175.963 1.12905C173.918 1.96696 170.919 4.0083 170.581 4.2016C170.229 4.40284 169.173 1.18299 169.576 0.277374C169.903 -0.459626 154.9 -0.124848 145.049 6.31435C144.597 6.61001 143.312 3.54727 142.235 2.08827C141.595 1.22252 135.981 1.38421 130.776 2.79409C127.509 3.67889 124.091 5.91186 122.483 7.62242C121.98 5.45907 121.227 3.59758 119.819 2.99386C114.643 1.63547 102.53 2.5916 95.6951 7.92429C93.7852 3.79882 92.5946 2.27065 90.5184 1.98765C78.7076 0.37771 72.8776 5.30837 71.5206 7.11955C70.4651 4.8055 69.2589 3.44688 66.8465 2.18912C59.4082 0.32763 45.8383 1.68624 36.9928 9.23259C36.6655 5.71433 34.7311 3.85869 33.4746 3.34626C23.9757 -0.52765 5.12862 4.85557 -4.87289 10.5407C-6.0791 8.77979 -7.38583 6.14536 -9.39618 5.35868C-14.9247 3.19533 -24.2941 4.2322 -33.5707 11.2447C-34.2241 7.67277 -35.6215 1.2562 -37.3904 0.629248C-46.8893 -2.73747 -73.627 13.609 -74.3306 13.6093Z" fill="#FF783E" stroke="#FF783E" stroke-width="0.39057"/>
</svg>
