<svg width="198" height="66" viewBox="0 0 198 66" fill="none" xmlns="http://www.w3.org/2000/svg">
<g clip-path="url(#clip0_4627_7009)">
<path d="M-123.912 33.2429C-125.168 33.2435 -124.733 33.2053 -125.258 33.2429C-126.335 33.2429 -126.155 62.4232 -125.258 62.4232C-123.537 62.834 -122.352 63.4845 -120.771 62.4232C-57.947 20.2748 -60.9087 27.7655 -55.5238 58.0636C-55.1648 58.9574 -51.2159 59.0705 -49.78 58.7344C-38.2025 44.7593 -10.1113 28.7724 -3.64953 56.6102C-2.12382 58.0636 1.64552 57.6157 1.64552 57.6157C46.5746 34.0962 67.2249 26.6842 70.8413 55.7151C72.5465 57.2236 74.8799 55.7151 74.8799 55.7151C107.713 33.1692 123.815 25.2695 133.216 50.9076C135.55 51.8571 136.986 50.9076 136.986 50.9076C162.175 28.3124 168.845 32.5207 175.936 50.9076C176.923 52.3043 181.5 50.9076 181.5 50.9076C213.581 32.8942 221.524 34.2065 223.054 50.9076C225.836 52.9751 228.169 50.9076 228.169 50.9076C238.469 40.2042 244.858 36.2662 258.145 35.5909C258.145 35.5909 261.286 43.1366 263.261 46.3238C264.403 48.1677 269.428 46.9784 269.902 46.6599C275.547 42.8662 303.066 26.2304 306.699 32.3493C308.594 35.5414 308.045 41.9643 308.942 41.9643C309.84 41.9643 314.136 42.2379 314.956 41.9643C318.551 39.9251 320.403 38.6653 323.482 36.2624C324.577 32.5871 323.615 8.49543 323.494 5.58177C323.488 5.44269 323.344 5.35764 323.219 5.41922C319.568 7.22049 314.043 11.9003 313.43 12.3369C312.802 12.7841 310.917 5.62886 311.635 3.61639C312.219 1.97861 285.429 2.72256 267.838 17.0319C267.03 17.6889 264.736 10.8828 262.812 7.6406C261.67 5.71671 251.645 6.07603 242.349 9.2091C236.516 11.1753 230.413 16.1375 227.541 19.9387C226.644 15.1313 225.297 10.9946 222.784 9.65302C213.54 6.63439 191.911 8.75912 179.706 20.6095C176.295 11.4418 174.169 8.04588 170.461 7.417C149.371 3.83936 138.96 14.7964 136.537 18.8212C134.652 13.6789 132.498 10.6597 128.19 7.86471C114.908 3.72807 90.6756 6.74721 74.8799 23.5169C74.2955 15.6985 70.8413 11.5749 68.5976 10.4361C51.6352 1.82744 17.9797 13.7902 0.119881 26.4237C-2.03407 22.5106 -4.36752 16.6564 -7.95743 14.9082C-17.8297 10.1007 -34.5609 12.4049 -51.1262 27.9882C-52.2929 20.0506 -54.7883 5.79156 -57.947 4.39833C-74.9094 -3.08326 -122.655 33.2422 -123.912 33.2429Z" fill="#0BF56E" stroke="#0BF56E" stroke-width="0.39057"/>
</g>
<defs>
<clipPath id="clip0_4627_7009">
<rect width="198" height="66" fill="white"/>
</clipPath>
</defs>
</svg>
