<svg width="221" height="170" viewBox="0 0 221 170" fill="none" xmlns="http://www.w3.org/2000/svg">
<path fill-rule="evenodd" clip-rule="evenodd" d="M47.5996 108.702L47.6932 58.6484H49.1824L51.2409 62.2316V76.6519C61.081 66.4584 72.2933 73.744 76.4804 79.1863C80.6675 84.6287 79.9658 100.042 73.6812 106.12C67.3967 112.198 57.12 112.865 47.6074 108.702H47.5996ZM72.6208 100.94C68.5819 107.073 61.0966 108.956 51.4826 105.89V80.8468C61.7905 69.2948 72.2855 76.5248 74.383 82.8252C76.4804 89.1256 76.6676 94.8063 72.6208 100.94Z" fill="#343434"/>
<path fill-rule="evenodd" clip-rule="evenodd" d="M97.2834 71.5353C106.585 71.5353 114.125 80.4417 114.125 91.3979C114.125 102.354 106.585 111.26 97.2834 111.26C87.9813 111.26 80.4414 102.354 80.4414 91.3979C80.4414 80.4417 87.9813 71.5353 97.2834 71.5353ZM97.2834 75.3648C104.613 75.3648 110.539 82.555 110.539 91.4217C110.539 100.288 104.597 107.487 97.2834 107.487C89.9696 107.487 84.0281 100.336 84.0281 91.4217C84.0281 82.5074 89.9696 75.3648 97.2834 75.3648Z" fill="#343434"/>
<path fill-rule="evenodd" clip-rule="evenodd" d="M123.014 111.205H110.203L125.525 71.6942H136.651L151.973 110.823H139.716L143.614 103.983H119.077L122.975 111.197L123.014 111.205ZM123.942 103.522L131.193 82.1657L137.127 98.31L123.942 103.522Z" fill="#343434"/>
<path fill-rule="evenodd" clip-rule="evenodd" d="M154.421 62.3111C154.421 65.4255 154.421 68.4367 154.421 71.4399H145.985L142.655 74.8325H154.164V102.275C154.764 107.606 157.088 110.22 161.501 110.855C165.914 111.491 169.033 111.737 173.4 109.465V105.318C170.694 106.954 167.341 107.701 163.263 107.336C160.144 107.018 158.749 104.881 158.749 101.21V74.904H171.318V71.726H159.061V58.7676H157.79C156.589 59.9832 155.614 60.9843 154.421 62.3111Z" fill="#343434"/>
</svg>
