<svg width="360" height="6" viewBox="0 0 360 6" fill="none" xmlns="http://www.w3.org/2000/svg">
<path d="M3.39329 2.31115L48.8923 3.3854C53.4342 3.4915 53.4342 1.15733 48.8923 1.05123L3.39329 0.00350925C-1.14857 -0.102589 -1.10837 2.23158 3.39329 2.33768V2.31115Z" fill="#001636" fill-opacity="0.92"/>
<path d="M89.6566 2.97559C101.182 2.29787 112.939 2.15502 124.585 2.55119C125.526 2.5477 126.426 2.42181 127.088 2.20083C127.75 1.97985 128.122 1.68161 128.122 1.37085C128.101 1.06344 127.722 0.770499 127.063 0.553077C126.404 0.335654 125.516 0.21053 124.585 0.203772C112.299 -0.188189 99.9077 -0.0141103 87.7675 0.721C86.8684 0.804562 86.1061 1.00206 85.6467 1.27041C85.1874 1.53875 85.0684 1.85614 85.3157 2.15333C85.5784 2.4486 86.1767 2.69897 86.9855 2.85218C87.7944 3.0054 88.7513 3.0496 89.6566 2.97559Z" fill="#001636" fill-opacity="0.92"/>
<path d="M168.021 3.82398L207.812 4.14229C208.75 4.14229 209.65 4.01932 210.313 3.80045C210.977 3.58158 211.349 3.28473 211.349 2.9752C211.349 2.66567 210.977 2.36882 210.313 2.14995C209.65 1.93108 208.75 1.80812 207.812 1.80812L168.021 1.47656C167.143 1.50741 166.33 1.64436 165.739 1.86105C165.149 2.07774 164.822 2.35886 164.822 2.65028C164.822 2.94169 165.149 3.22281 165.739 3.4395C166.33 3.65619 167.143 3.79314 168.021 3.82398Z" fill="#001636" fill-opacity="0.92"/>
<path d="M243.189 5.99997L279.042 5.52254C283.584 5.52254 283.624 3.13532 279.042 3.18837L243.189 3.65255C238.647 3.65255 238.607 6.05302 243.189 5.99997Z" fill="#001636" fill-opacity="0.92"/>
<path d="M311.993 4.71095C326.766 5.40233 341.714 5.59784 356.607 5.29448C361.109 5.20165 361.149 2.86749 356.607 2.96033C342.35 3.26372 328.037 3.09489 313.882 2.45635C312.976 2.37369 312.007 2.4132 311.189 2.56616C310.371 2.71912 309.771 2.973 309.521 3.27198C309.27 3.57096 309.39 3.89053 309.854 4.16039C310.317 4.43025 311.087 4.62829 311.993 4.71095Z" fill="#001636" fill-opacity="0.92"/>
</svg>
