<svg width="16" height="16" viewBox="0 0 16 16" fill="none" xmlns="http://www.w3.org/2000/svg">
<path d="M7.99961 1.59961C4.46532 1.59961 1.59961 4.46532 1.59961 7.99961C1.59961 11.5339 4.46532 14.3996 7.99961 14.3996C11.5339 14.3996 14.3996 11.5339 14.3996 7.99961C14.3996 4.46532 11.5339 1.59961 7.99961 1.59961ZM7.99961 13.3139C5.06532 13.3139 2.68532 10.9339 2.68532 7.99961C2.68532 5.06532 5.06532 2.68532 7.99961 2.68532C10.9339 2.68532 13.3139 5.06532 13.3139 7.99961C13.3139 10.9339 10.9339 13.3139 7.99961 13.3139ZM8.07961 5.70389C8.83675 5.70389 9.35104 6.18675 9.40818 6.89532C9.41247 6.95532 9.46247 7.00104 9.52247 7.00104H10.3325C10.3696 7.00104 10.3996 6.97104 10.3996 6.93389C10.3996 5.69532 9.42247 4.82818 8.07532 4.82818C6.50532 4.82818 5.59961 5.88818 5.59961 7.63961V8.38675C5.59961 10.1253 6.50532 11.171 8.07532 11.171C9.41818 11.171 10.3996 10.331 10.3996 9.15104C10.3996 9.11389 10.3696 9.08389 10.3325 9.08389H9.52104C9.46104 9.08389 9.41247 9.12961 9.40675 9.18818C9.34675 9.84675 8.83389 10.2996 8.07818 10.2996C7.14532 10.2996 6.61961 9.61532 6.61961 8.39104V7.63961C6.62104 6.39675 7.14818 5.70389 8.07961 5.70389Z" fill="#0F143A"/>
</svg>
