<svg width="724" height="444" viewBox="0 0 724 444" fill="none" xmlns="http://www.w3.org/2000/svg">
<path d="M365.429 440.548C362.199 442.652 357.392 442.503 354.41 439.882C351.724 437.521 351.089 433.61 349.551 430.381L345.059 420.946C338.427 407.016 324.373 398.142 308.944 398.142H69.8179C32.3631 398.142 2 368.826 2 332.664V67.478C2 31.3155 32.3631 2 69.8179 2H654.182C691.637 2 722 31.3155 722 67.478V332.664C722 368.826 691.637 398.142 654.182 398.142H411.665C396.236 398.142 382.183 407.016 375.55 420.946L371.518 429.414C369.679 433.277 369.014 438.213 365.429 440.548Z" fill="#FFDFEB" stroke="#001636" stroke-opacity="0.92" stroke-width="4"/>
<path d="M704.312 45.8291C662.406 21.0448 599.936 17.4834 534.955 16.7936C479.746 16.2071 424.705 16.4558 369.559 15.0012C369.134 14.9863 368.738 14.9004 368.449 14.7608C368.16 14.6212 368 14.4382 368 14.2481C368 14.0581 368.16 13.875 368.449 13.7354C368.738 13.5958 369.134 13.51 369.559 13.495C432.375 10.2715 496.001 10.7595 559.112 11.7214C614.805 12.566 685.135 19.0647 705.941 45.5053C706.308 45.9839 704.869 46.1622 704.312 45.8291Z" fill="#F0484C"/>
<path d="M16.8084 267.362C20.4444 277.054 19.6671 289.952 19.6671 300.726C19.6671 329.971 24.5551 332.863 28.1837 343.311C39.5393 365.886 45.2171 367.938 61.1148 376.147C70.1993 383.33 75.6597 380.418 87.8819 389.39C88.3197 389.719 87.4443 390.162 86.8223 389.94C68.1277 388.806 54.2271 383.122 43.9062 374.608C23.9444 360.405 15.5439 336.641 13.4215 312.014C11.9996 295.515 14.6084 279.816 14.8848 267.5C14.8733 266.937 16.5896 266.793 16.8084 267.362Z" fill="#F0484C"/>
<path d="M524.487 388.333C561.616 386.848 600.251 386.053 635.012 381.237C681.855 374.751 697.5 358.482 701.373 343.118C701.373 343.089 701.404 343.062 701.461 343.04C701.518 343.019 701.597 343.005 701.683 343.001C701.77 342.997 701.857 343.004 701.929 343.02C702.001 343.036 702.053 343.06 702.075 343.087C715.03 355.482 694.453 373.236 661.842 380.547C621.609 389.591 571.744 391.099 524.441 389.377C524.043 389.364 523.673 389.302 523.406 389.204C523.139 389.106 522.994 388.979 523 388.848C523.006 388.716 523.162 388.591 523.438 388.495C523.713 388.4 524.088 388.342 524.487 388.333Z" fill="#F0484C"/>
</svg>
