<svg width="1600" height="24" viewBox="0 0 1600 24" fill="none" xmlns="http://www.w3.org/2000/svg">
<path d="M1457.39 6.04429C1447.56 5.8825 1437.71 6.16431 1428.03 6.88426C1423.19 7.23759 1419.3 8.72008 1419.75 10.8046C1420.14 12.6071 1424.76 14.4509 1429.62 14.0919C1439.3 13.3744 1449.15 13.0954 1458.99 13.2602C1463.92 13.3389 1467.65 11.1045 1467.28 9.33516C1466.76 7.16994 1462.3 6.1157 1457.39 6.04429Z" fill="#490069"/>
<path d="M1514.15 6.25664L1493.52 6.15871C1488.61 6.12965 1484.84 8.27305 1485.24 10.0791C1485.71 12.1921 1490.13 13.3321 1495.12 13.37L1515.73 13.4689C1520.64 13.498 1524.41 11.3546 1524.01 9.54853C1523.57 7.42987 1519.06 6.27278 1514.15 6.25664Z" fill="#490069"/>
<path d="M1572.65 8.05822L1552 8.02846C1547.11 8.00666 1543.32 10.1263 1543.72 11.9489C1544.18 14.0417 1548.65 15.2339 1553.59 15.2361L1574.24 15.2659C1579.13 15.2877 1582.93 13.1681 1582.52 11.3455C1582.06 9.25265 1577.64 8.07495 1572.65 8.05822Z" fill="#490069"/>
<path d="M1647.44 8.59564C1639.34 8.04688 1631.11 7.91386 1622.93 8.19985C1611.24 8.61027 1612.82 15.8189 1624.51 15.4168C1631.06 15.1825 1637.65 15.2869 1644.14 15.7272C1655.71 16.5014 1659.01 9.38271 1647.44 8.59564Z" fill="#490069"/>
<path d="M1714.91 10.438C1704.25 9.63566 1692.3 10.1512 1681.85 11.0804C1677.05 11.5118 1674.95 14.0736 1676.47 15.7282C1678.37 17.7593 1683.37 18.2875 1688.18 17.8644C1686.67 18.001 1689.5 17.7875 1689.78 17.7697C1690.92 17.7056 1692.07 17.6451 1693.21 17.5939C1695.66 17.487 1698.12 17.4215 1700.58 17.3771C1704.24 17.2475 1707.92 17.3049 1711.54 17.5478C1723.16 18.4331 1726.44 11.3154 1714.91 10.438Z" fill="#490069"/>
<path d="M1769.79 8.1616L1746.66 8.28211C1741.74 8.30368 1737.98 10.3587 1738.38 12.2025C1738.84 14.2742 1743.31 15.5123 1748.25 15.4897L1771.41 15.3848C1776.35 15.3622 1780.1 13.3035 1779.69 11.4643C1779.2 9.37715 1774.73 8.13902 1769.79 8.1616Z" fill="#490069"/>
<path d="M1075.54 6.04429C1065.7 5.8825 1055.85 6.16431 1046.17 6.88426C1041.34 7.23759 1037.44 8.72008 1037.89 10.8046C1038.28 12.6071 1042.9 14.4509 1047.77 14.0919C1057.44 13.3744 1067.3 13.0954 1077.13 13.2602C1082.06 13.3389 1085.8 11.1045 1085.42 9.33516C1084.9 7.16994 1080.44 6.1157 1075.54 6.04429Z" fill="#490069"/>
<path d="M1132.29 6.25664L1111.66 6.15871C1106.75 6.12965 1102.98 8.27305 1103.38 10.0791C1103.86 12.1921 1108.28 13.3321 1113.27 13.37L1133.87 13.4689C1138.79 13.498 1142.55 11.3546 1142.15 9.54853C1141.71 7.42987 1137.21 6.27278 1132.29 6.25664Z" fill="#490069"/>
<path d="M1190.79 8.05822L1170.14 8.02846C1165.25 8.00666 1161.46 10.1263 1161.86 11.9489C1162.32 14.0417 1166.79 15.2339 1171.74 15.2361L1192.38 15.2659C1197.27 15.2877 1201.07 13.1681 1200.66 11.3455C1200.21 9.25265 1195.78 8.07495 1190.79 8.05822Z" fill="#490069"/>
<path d="M1265.58 8.59564C1257.49 8.04688 1249.25 7.91386 1241.08 8.19985C1229.39 8.61027 1230.96 15.8189 1242.65 15.4168C1249.2 15.1825 1255.8 15.2869 1262.28 15.7272C1273.86 16.5014 1277.15 9.38271 1265.58 8.59564Z" fill="#490069"/>
<path d="M1333.05 10.438C1322.4 9.63566 1310.44 10.1512 1299.99 11.0804C1295.19 11.5118 1293.09 14.0736 1294.62 15.7282C1296.51 17.7593 1301.52 18.2875 1306.32 17.8644C1304.81 18.001 1307.64 17.7875 1307.92 17.7697C1309.06 17.7056 1310.22 17.6451 1311.35 17.5939C1313.8 17.487 1316.27 17.4215 1318.72 17.3771C1322.38 17.2475 1326.06 17.3049 1329.68 17.5478C1341.31 18.4331 1344.58 11.3154 1333.05 10.438Z" fill="#490069"/>
<path d="M1387.93 8.1616L1364.8 8.28211C1359.88 8.30368 1356.12 10.3587 1356.52 12.2025C1356.98 14.2742 1361.46 15.5123 1366.4 15.4897L1389.55 15.3848C1394.49 15.3622 1398.24 13.3035 1397.83 11.4643C1397.34 9.37715 1392.87 8.13902 1387.93 8.1616Z" fill="#490069"/>
<path d="M693.678 6.04429C683.842 5.8825 673.992 6.16431 664.315 6.88426C659.479 7.23759 655.583 8.72008 656.037 10.8046C656.426 12.6071 661.043 14.4509 665.91 14.0919C675.588 13.3744 685.439 13.0954 695.275 13.2602C700.203 13.3389 703.941 11.1045 703.562 9.33516C703.041 7.16994 698.583 6.1157 693.678 6.04429Z" fill="#490069"/>
<path d="M750.431 6.25664L729.803 6.15871C724.891 6.12965 721.125 8.27305 721.525 10.0791C721.999 12.1921 726.42 13.3321 731.41 13.37L752.016 13.4689C756.929 13.498 760.694 11.3546 760.294 9.54853C759.851 7.42987 755.35 6.27278 750.431 6.25664Z" fill="#490069"/>
<path d="M808.933 8.05822L788.284 8.02846C783.395 8.00666 779.601 10.1263 780.006 11.9489C780.463 14.0417 784.932 15.2339 789.879 15.2361L810.528 15.2659C815.417 15.2877 819.21 13.1681 818.805 11.3455C818.349 9.25265 813.926 8.07495 808.933 8.05822Z" fill="#490069"/>
<path d="M883.722 8.59564C875.63 8.04688 867.395 7.91386 859.218 8.19985C847.53 8.61027 849.104 15.8189 860.795 15.4168C867.343 15.1825 873.94 15.2869 880.421 15.7272C892 16.5014 895.294 9.38271 883.722 8.59564Z" fill="#490069"/>
<path d="M951.197 10.438C940.539 9.63566 928.588 10.1512 918.138 11.0804C913.336 11.5118 911.232 14.0736 912.758 15.7282C914.654 17.7593 919.658 18.2875 924.463 17.8644C922.951 18.001 925.781 17.7875 926.061 17.7697C927.203 17.7056 928.358 17.6451 929.494 17.5939C931.945 17.487 934.408 17.4215 936.867 17.3771C940.523 17.2475 944.206 17.3049 947.826 17.5478C959.45 18.4331 962.724 11.3154 951.197 10.438Z" fill="#490069"/>
<path d="M1006.07 8.1616L982.944 8.28211C978.026 8.30368 974.265 10.3587 974.666 12.2025C975.127 14.2742 979.599 15.5123 984.538 15.4897L1007.69 15.3848C1012.63 15.3622 1016.38 13.3035 1015.97 11.4643C1015.48 9.37715 1011.01 8.13902 1006.07 8.1616Z" fill="#490069"/>
<path d="M311.821 6.04429C301.985 5.8825 292.134 6.16431 282.458 6.88426C277.622 7.23759 273.726 8.72008 274.18 10.8046C274.568 12.6071 279.186 14.4509 284.053 14.0919C293.73 13.3744 303.582 13.0954 313.418 13.2602C318.346 13.3389 322.083 11.1045 321.705 9.33516C321.184 7.16994 316.726 6.1157 311.821 6.04429Z" fill="#490069"/>
<path d="M368.574 6.25664L347.946 6.15871C343.034 6.12965 339.268 8.27305 339.668 10.0791C340.142 12.1921 344.563 13.3321 349.552 13.37L370.159 13.4689C375.072 13.498 378.837 11.3546 378.437 9.54853C377.994 7.42987 373.493 6.27278 368.574 6.25664Z" fill="#490069"/>
<path d="M427.076 8.05822L406.427 8.02846C401.538 8.00666 397.744 10.1263 398.149 11.9489C398.606 14.0417 403.075 15.2339 408.021 15.2361L428.67 15.2659C433.56 15.2877 437.353 13.1681 436.948 11.3455C436.491 9.25265 432.069 8.07495 427.076 8.05822Z" fill="#490069"/>
<path d="M501.864 8.59564C493.773 8.04688 485.538 7.91386 477.361 8.19985C465.673 8.61027 467.247 15.8189 478.937 15.4168C485.486 15.1825 492.083 15.2869 498.563 15.7272C510.142 16.5014 513.437 9.38271 501.864 8.59564Z" fill="#490069"/>
<path d="M569.34 10.438C558.682 9.63566 546.73 10.1512 536.281 11.0804C531.479 11.5118 529.375 14.0736 530.901 15.7282C532.797 17.7593 537.801 18.2875 542.605 17.8644C541.094 18.001 543.924 17.7875 544.204 17.7697C545.346 17.7056 546.501 17.6451 547.637 17.5939C550.087 17.487 552.55 17.4215 555.01 17.3771C558.666 17.2475 562.349 17.3049 565.969 17.5478C577.593 18.4331 580.866 11.3154 569.34 10.438Z" fill="#490069"/>
<path d="M624.215 8.1616L601.087 8.28211C596.169 8.30368 592.408 10.3587 592.809 12.2025C593.27 14.2742 597.742 15.5123 602.681 15.4897L625.835 15.3848C630.774 15.3622 634.524 13.3035 634.114 11.4643C633.627 9.37715 629.154 8.13902 624.215 8.1616Z" fill="#490069"/>
<path d="M-70.0361 6.04429C-79.8723 5.8825 -89.7229 6.16431 -99.399 6.88426C-104.236 7.23759 -108.131 8.72008 -107.677 10.8046C-107.289 12.6071 -102.671 14.4509 -97.8045 14.0919C-88.1268 13.3744 -78.2752 13.0954 -68.439 13.2602C-63.511 13.3389 -59.7739 11.1045 -60.1519 9.33516C-60.6734 7.16994 -65.1315 6.1157 -70.0361 6.04429Z" fill="#490069"/>
<path d="M-13.2833 6.25664L-33.911 6.15871C-38.8236 6.12965 -42.5889 8.27305 -42.189 10.0791C-41.7153 12.1921 -37.2941 13.3321 -32.3048 13.37L-11.6979 13.4689C-6.78525 13.498 -3.02005 11.3546 -3.41995 9.54853C-3.86368 7.42987 -8.36407 6.27278 -13.2833 6.25664Z" fill="#490069"/>
<path d="M45.2185 8.05822L24.5696 8.02846C19.6804 8.00666 15.8865 10.1263 16.2916 11.9489C16.7484 14.0417 21.2176 15.2339 26.1642 15.2361L46.8131 15.2659C51.7024 15.2877 55.4961 13.1681 55.0911 11.3455C54.6342 9.25265 50.2119 8.07495 45.2185 8.05822Z" fill="#490069"/>
<path d="M120.007 8.59564C111.916 8.04688 103.681 7.91386 95.5039 8.19985C83.8156 8.61027 85.3892 15.8189 97.0801 15.4168C103.628 15.1825 110.226 15.2869 116.706 15.7272C128.285 16.5014 131.58 9.38271 120.007 8.59564Z" fill="#490069"/>
<path d="M187.483 10.438C176.825 9.63566 164.873 10.1512 154.423 11.0804C149.621 11.5118 147.518 14.0736 149.044 15.7282C150.94 17.7593 155.944 18.2875 160.748 17.8644C159.237 18.001 162.067 17.7875 162.346 17.7697C163.489 17.7056 164.643 17.6451 165.78 17.5939C168.23 17.487 170.693 17.4215 173.153 17.3771C176.809 17.2475 180.492 17.3049 184.112 17.5478C195.736 18.4331 199.009 11.3154 187.483 10.438Z" fill="#490069"/>
<path d="M242.358 8.1616L219.23 8.28211C214.311 8.30368 210.551 10.3587 210.952 12.2025C211.412 14.2742 215.885 15.5123 220.824 15.4897L243.978 15.3848C248.917 15.3622 252.666 13.3035 252.256 11.4643C251.769 9.37715 247.297 8.13902 242.358 8.1616Z" fill="#490069"/>
<path d="M-451.893 6.04429C-461.729 5.8825 -471.58 6.16431 -481.256 6.88426C-486.093 7.23759 -489.989 8.72008 -489.534 10.8046C-489.146 12.6071 -484.528 14.4509 -479.662 14.0919C-469.984 13.3744 -460.132 13.0954 -450.296 13.2602C-445.368 13.3389 -441.631 11.1045 -442.009 9.33516C-442.531 7.16994 -446.989 6.1157 -451.893 6.04429Z" fill="#490069"/>
<path d="M-395.141 6.25664L-415.768 6.15871C-420.681 6.12965 -424.446 8.27305 -424.046 10.0791C-423.573 12.1921 -419.151 13.3321 -414.162 13.37L-393.555 13.4689C-388.642 13.498 -384.877 11.3546 -385.277 9.54853C-385.721 7.42987 -390.221 6.27278 -395.141 6.25664Z" fill="#490069"/>
<path d="M-336.639 8.05822L-357.288 8.02846C-362.177 8.00666 -365.971 10.1263 -365.566 11.9489C-365.109 14.0417 -360.64 15.2339 -355.693 15.2361L-335.044 15.2659C-330.155 15.2877 -326.361 13.1681 -326.766 11.3455C-327.223 9.25265 -331.645 8.07495 -336.639 8.05822Z" fill="#490069"/>
<path d="M-261.85 8.59564C-269.941 8.04688 -278.177 7.91386 -286.353 8.19985C-298.042 8.61027 -296.468 15.8189 -284.777 15.4168C-278.229 15.1825 -271.632 15.2869 -265.151 15.7272C-253.572 16.5014 -250.278 9.38271 -261.85 8.59564Z" fill="#490069"/>
<path d="M-194.375 10.438C-205.032 9.63566 -216.984 10.1512 -227.434 11.0804C-232.236 11.5118 -234.339 14.0736 -232.813 15.7282C-230.917 17.7593 -225.914 18.2875 -221.109 17.8644C-222.62 18.001 -219.791 17.7875 -219.511 17.7697C-218.368 17.7056 -217.214 17.6451 -216.078 17.5939C-213.627 17.487 -211.164 17.4215 -208.705 17.3771C-205.048 17.2475 -201.365 17.3049 -197.746 17.5478C-186.122 18.4331 -182.848 11.3154 -194.375 10.438Z" fill="#490069"/>
<path d="M-139.5 8.1616L-162.628 8.28211C-167.546 8.30368 -171.307 10.3587 -170.906 12.2025C-170.445 14.2742 -165.972 15.5123 -161.033 15.4897L-137.879 15.3848C-132.94 15.3622 -129.191 13.3035 -129.601 11.4643C-130.088 9.37715 -134.561 8.13902 -139.5 8.1616Z" fill="#490069"/>
</svg>
