<svg width="181" height="52" viewBox="0 0 181 52" fill="none" xmlns="http://www.w3.org/2000/svg">
<path d="M1.21191 45.054L176.839 42.625L5.40889 46.6733C56.4183 45.2159 162.118 43.7909 176.839 49.75" stroke="#C6C6C6" stroke-width="2"/>
<path d="M6.94626 36H0.483398L8.39605 0H14.8609L6.94626 36Z" fill="#001636" fill-opacity="0.92"/>
<path d="M20.9902 31.5382V6.30664H26.5781V15.6925H26.6808C28.0305 13.8584 29.768 12.9407 31.8933 12.9393C33.7869 12.9393 35.2775 13.569 36.3652 14.8283C37.4529 16.0876 37.9961 17.74 37.9947 19.7855V31.5382H32.4049V20.9506C32.4049 19.9624 32.1712 19.1803 31.7037 18.6042C31.2363 18.0281 30.5561 17.74 29.6633 17.74C29.2378 17.7281 28.8154 17.8176 28.4289 18.0013C28.0425 18.1851 27.7024 18.4582 27.4353 18.7994C26.8638 19.5043 26.5781 20.4213 26.5781 21.5505V31.5382H20.9902Z" fill="#001636" fill-opacity="0.92"/>
<path d="M46.357 32.0675C44.3687 32.0675 42.8432 31.4615 41.7805 30.2497C40.7179 29.0378 40.1865 27.3969 40.1865 25.327V13.4707H45.7388V24.1273C45.7388 26.1729 46.6191 27.1963 48.3797 27.1977C49.3396 27.1977 50.0941 26.8628 50.6432 26.1932C51.1923 25.5236 51.4662 24.6486 51.4649 23.5682V13.4707H57.0528V31.5388H51.7059V29.3144H51.6012C50.2778 31.1511 48.5298 32.0688 46.357 32.0675Z" fill="#001636" fill-opacity="0.92"/>
<path d="M66.9919 32.1076C64.432 32.1076 62.391 31.5369 60.8688 30.3955C59.3465 29.2542 58.5426 27.6817 58.457 25.6782H63.7348C63.9415 27.4676 65.016 28.3622 66.9583 28.3622C67.8024 28.3622 68.4706 28.2029 68.9631 27.8844C69.1909 27.7535 69.3799 27.5614 69.51 27.3287C69.64 27.0959 69.7064 26.8312 69.7019 26.5627C69.7051 26.3951 69.681 26.2281 69.6308 26.0686C69.5819 25.921 69.5 25.7873 69.3917 25.6782C69.2772 25.5623 69.1705 25.4566 69.0658 25.361C68.9268 25.2476 68.7707 25.1583 68.6036 25.0967C68.4061 25.0154 68.2205 24.9503 68.0723 24.8934C67.9242 24.8364 67.7069 24.7937 67.4205 24.7348L66.7529 24.5945C66.5929 24.5579 66.3401 24.5111 65.9984 24.4521C65.6566 24.3932 65.4058 24.3525 65.2438 24.3281C64.513 24.2129 63.8961 24.0895 63.3931 23.958C62.8225 23.807 62.2665 23.6028 61.7319 23.348C61.191 23.1116 60.6923 22.7838 60.2564 22.3781C59.8434 21.9588 59.5222 21.4534 59.3143 20.8959C59.0493 20.2063 58.9191 19.4697 58.9311 18.7283C58.9311 16.8916 59.6507 15.4682 61.09 14.4583C62.5292 13.4485 64.3346 12.9422 66.506 12.9395C68.9513 12.9395 70.8481 13.4519 72.1965 14.4766C73.5449 15.5014 74.2876 16.9187 74.4246 18.7283H69.289C69.1047 17.3172 68.1678 16.611 66.4783 16.6096C65.8629 16.5808 65.2517 16.7279 64.7125 17.0346C64.5019 17.1575 64.3281 17.3377 64.21 17.5553C64.0919 17.7729 64.0341 18.0197 64.0429 18.2688C64.0413 18.4018 64.0655 18.5339 64.114 18.6572C64.1616 18.7798 64.2376 18.8887 64.3352 18.9744C64.4323 19.065 64.536 19.148 64.6453 19.2224C64.7805 19.3063 64.9242 19.3745 65.074 19.4258C65.2557 19.4969 65.4196 19.5559 65.5697 19.6027C65.7722 19.662 65.978 19.7089 66.186 19.743C66.4487 19.7918 66.6679 19.8324 66.8378 19.867L67.541 20.0073C67.8373 20.0663 68.0782 20.109 68.26 20.1313C69.0362 20.2716 69.6782 20.4018 70.1799 20.5197C70.7844 20.6705 71.3752 20.8745 71.9457 21.1297C72.5326 21.366 73.0728 21.7105 73.5397 22.1463C73.9723 22.6042 74.3156 23.1433 74.551 23.7344C74.8506 24.4774 74.9965 25.2765 74.9796 26.0808C74.9796 28.0098 74.2422 29.4921 72.7674 30.5277C71.2925 31.5634 69.3674 32.09 66.9919 32.1076Z" fill="#001636" fill-opacity="0.92"/>
<path d="M83.0289 31.7491C81.2459 31.7491 79.8692 31.379 78.8987 30.6389C77.9282 29.8988 77.443 28.611 77.443 26.7756V17.0624H75.1162V13.4634H77.4489V7.75586H82.8985V13.4715H86.0865V17.0624H82.8985V25.5312C82.8985 26.19 83.0637 26.6488 83.3943 26.9077C83.7261 27.168 84.212 27.2961 84.852 27.2961C85.0337 27.2961 85.2747 27.2961 85.5709 27.2798L86.0865 27.2595V31.4604C85.4465 31.6576 84.4293 31.7491 83.0289 31.7491Z" fill="#001636" fill-opacity="0.92"/>
<path d="M87.9355 31.5382V6.30664H93.5925V31.5382H87.9355Z" fill="#001636" fill-opacity="0.92"/>
<path d="M104.663 32.0669C101.831 32.0669 99.5632 31.1675 97.8606 29.3687C96.158 27.5699 95.3066 25.2695 95.3066 22.4676C95.3066 19.7416 96.1468 17.4717 97.827 15.658C99.5072 13.8443 101.672 12.9381 104.321 12.9395C106.722 12.9395 108.722 13.6925 110.32 15.1985C112.427 17.1776 113.455 20.1069 113.405 23.9865H100.79C100.974 25.2322 101.398 26.2021 102.06 26.8962C102.722 27.5902 103.614 27.9372 104.734 27.9372C106.172 27.9372 107.143 27.3374 107.648 26.1378H113.097C112.685 27.881 111.703 29.3043 110.15 30.4077C108.598 31.5112 106.769 32.0642 104.663 32.0669ZM100.825 20.5624H107.739C107.648 19.4779 107.299 18.6199 106.694 17.9882C106.399 17.6754 106.044 17.4291 105.651 17.2649C105.259 17.1008 104.838 17.0223 104.414 17.0346C102.434 17.0346 101.238 18.2105 100.825 20.5624Z" fill="#001636" fill-opacity="0.92"/>
<path d="M115.085 31.5383V13.4702H120.432V16.0444H120.537C121.748 13.9745 123.519 12.9389 125.85 12.9375C128.157 12.9375 129.803 13.9962 130.788 16.1135H130.855C132.181 13.9989 134.024 12.9402 136.386 12.9375C138.326 12.9375 139.806 13.5556 140.824 14.7919C141.842 16.0281 142.35 17.6921 142.349 19.7837V31.5363H136.755V20.8105C136.755 18.7636 135.933 17.7402 134.288 17.7402C133.894 17.7233 133.503 17.8061 133.147 17.9812C132.792 18.1563 132.484 18.4185 132.249 18.7447C131.756 19.4224 131.509 20.311 131.511 21.4104V31.5383H125.917V20.8105C125.917 18.7636 125.095 17.7402 123.45 17.7402C123.056 17.7235 122.664 17.8063 122.308 17.9814C121.953 18.1565 121.644 18.4186 121.41 18.7447C120.918 19.4224 120.673 20.311 120.673 21.4104V31.5383H115.085Z" fill="#001636" fill-opacity="0.92"/>
<path d="M149.844 31.9966C148.039 31.9966 146.59 31.5147 145.499 30.5509C144.407 29.5871 143.859 28.2316 143.854 26.4843C143.854 24.6502 144.446 23.315 145.631 22.4786C146.816 21.6422 148.462 21.0838 150.569 20.8032C152.281 20.589 153.452 20.3477 154.083 20.0793C154.714 19.8109 155.027 19.3819 155.023 18.7922C155.023 17.4963 154.224 16.849 152.625 16.8504C150.914 16.8504 149.965 17.6264 149.779 19.1785H144.644C144.665 18.3217 144.868 17.4799 145.238 16.7122C145.608 15.9444 146.137 15.2692 146.787 14.7337C148.146 13.5584 150.083 12.9701 152.598 12.9688C155.113 12.9674 157.008 13.4642 158.284 14.4592C159.77 15.5653 160.513 17.2828 160.514 19.6116V28.7148C160.514 30.1504 160.712 31.0084 161.131 31.291V31.5391H155.717C155.487 31.2097 155.29 30.5387 155.124 29.5261H155.057C153.936 31.1731 152.199 31.9966 149.844 31.9966ZM151.622 28.3366C152.675 28.3366 153.524 28.0357 154.176 27.4359C154.497 27.143 154.751 26.7808 154.92 26.3752C155.089 25.9695 155.169 25.5305 155.154 25.0894V22.928C154.607 23.2113 153.647 23.5292 152.274 23.8816C151.153 24.1405 150.363 24.4462 149.904 24.7986C149.677 24.9743 149.496 25.2045 149.377 25.469C149.257 25.7335 149.203 26.0242 149.218 26.3155C149.225 27.6575 150.027 28.3285 151.626 28.3285L151.622 28.3366Z" fill="#001636" fill-opacity="0.92"/>
<path d="M169.894 32.1075C167.611 32.1075 165.76 31.2488 164.342 29.5313C162.924 27.8138 162.215 25.4734 162.217 22.5102C162.217 19.6852 162.931 17.3855 164.36 15.6111C165.789 13.8367 167.632 12.9482 169.89 12.9454C171.997 12.9454 173.632 13.8042 174.795 15.5217H174.896V6.30664H180.483V31.5382H175.137V29.0982H175.073C173.93 31.1044 172.204 32.1075 169.894 32.1075ZM171.334 27.5569C171.863 27.5748 172.388 27.4566 172.861 27.2131C173.334 26.9695 173.741 26.6083 174.044 26.1621C174.703 25.2335 175.032 24.0135 175.032 22.5021C175.032 20.9269 174.723 19.6622 174.106 18.7079C173.489 17.7563 172.585 17.2846 171.4 17.2846C170.888 17.2705 170.382 17.3922 169.929 17.6379C169.477 17.8836 169.093 18.2451 168.816 18.6876C168.186 19.631 167.874 20.8754 167.874 22.4289C167.874 23.9823 168.182 25.2511 168.798 26.1682C169.07 26.6037 169.446 26.9597 169.89 27.2019C170.334 27.4441 170.832 27.5643 171.334 27.5508V27.5569Z" fill="#001636" fill-opacity="0.92"/>
</svg>
