<svg width="16" height="16" viewBox="0 0 16 16" fill="none" xmlns="http://www.w3.org/2000/svg">
<path fill-rule="evenodd" clip-rule="evenodd" d="M1.04461 2.31495C0.727539 2.93724 0.727539 3.75186 0.727539 5.38111V10.6175C0.727539 12.2467 0.727539 13.0613 1.04461 13.6836C1.32352 14.231 1.76855 14.676 2.31593 14.9549C2.93822 15.272 3.75284 15.272 5.38208 15.272H10.6184C12.2477 15.272 13.0623 15.272 13.6846 14.9549C14.232 14.676 14.677 14.231 14.9559 13.6836C15.273 13.0613 15.273 12.2467 15.273 10.6175V5.38111C15.273 3.75186 15.273 2.93724 14.9559 2.31495C14.677 1.76757 14.232 1.32254 13.6846 1.04363C13.0623 0.726562 12.2477 0.726562 10.6184 0.726562H5.38208C3.75284 0.726562 2.93822 0.726562 2.31593 1.04363C1.76855 1.32254 1.32352 1.76757 1.04461 2.31495ZM2.90936 7.79565C2.90936 6.08495 2.90936 5.22959 3.24228 4.57619C3.53513 4.00144 4.00242 3.53416 4.57717 3.24131C5.23057 2.90838 6.08592 2.90838 7.79663 2.90838H8.2039C9.91461 2.90838 10.77 2.90838 11.4234 3.24131C11.9981 3.53416 12.4654 4.00144 12.7583 4.57619C13.0912 5.22959 13.0912 6.08495 13.0912 7.79565V8.20293C13.0912 9.91363 13.0912 10.769 12.7583 11.4224C12.4654 11.9971 11.9981 12.4644 11.4234 12.7573C10.77 13.0902 9.91461 13.0902 8.2039 13.0902H7.79663C6.08592 13.0902 5.23057 13.0902 4.57717 12.7573C4.00242 12.4644 3.53513 11.9971 3.24228 11.4224C2.90936 10.769 2.90936 9.91363 2.90936 8.20293V7.79565ZM8.2039 3.92656H7.79663C6.92448 3.92656 6.3316 3.92735 5.87332 3.9648C5.42694 4.00127 5.19866 4.06737 5.03941 4.14851C4.65625 4.34375 4.34472 4.65527 4.14949 5.03844C4.06835 5.19768 4.00224 5.42596 3.96577 5.87235C3.92833 6.33062 3.92754 6.9235 3.92754 7.79565V8.20293C3.92754 9.07508 3.92833 9.66796 3.96577 10.1262C4.00224 10.5726 4.06835 10.8009 4.14949 10.9601C4.34472 11.3433 4.65625 11.6548 5.03941 11.8501C5.19866 11.9312 5.42694 11.9973 5.87332 12.0338C6.3316 12.0712 6.92448 12.072 7.79663 12.072H8.2039C9.07606 12.072 9.66894 12.0712 10.1272 12.0338C10.5736 11.9973 10.8019 11.9312 10.9611 11.8501C11.3443 11.6548 11.6558 11.3433 11.851 10.9601C11.9322 10.8009 11.9983 10.5726 12.0348 10.1262C12.0722 9.66796 12.073 9.07508 12.073 8.20293V7.79565C12.073 6.9235 12.0722 6.33062 12.0348 5.87235C11.9983 5.42596 11.9322 5.19768 11.851 5.03844C11.6558 4.65527 11.3443 4.34375 10.9611 4.14851C10.8019 4.06737 10.5736 4.00127 10.1272 3.9648C9.66894 3.92735 9.07606 3.92656 8.2039 3.92656ZM10.5457 7.99929C10.5457 9.40511 9.40608 10.5447 8.00027 10.5447C6.59445 10.5447 5.45481 9.40511 5.45481 7.99929C5.45481 6.59347 6.59445 5.45384 8.00027 5.45384C9.40608 5.45384 10.5457 6.59347 10.5457 7.99929ZM8.00027 9.52656C8.84376 9.52656 9.52754 8.84278 9.52754 7.99929C9.52754 7.1558 8.84376 6.47202 8.00027 6.47202C7.15678 6.47202 6.47299 7.1558 6.47299 7.99929C6.47299 8.84278 7.15678 9.52656 8.00027 9.52656ZM11.5639 5.19929C11.5639 5.62103 11.222 5.96293 10.8003 5.96293C10.3785 5.96293 10.0366 5.62103 10.0366 5.19929C10.0366 4.77754 10.3785 4.43565 10.8003 4.43565C11.222 4.43565 11.5639 4.77754 11.5639 5.19929Z" fill="#0F143A"/>
</svg>
