<svg width="261" height="200" viewBox="0 0 261 200" fill="none" xmlns="http://www.w3.org/2000/svg">
<g clip-path="url(#clip0_4775_2982)">
<path fill-rule="evenodd" clip-rule="evenodd" d="M72.0613 99.2497H67.8117V93.2487C67.8117 92.6728 67.9864 92.4981 68.5623 92.4981H72.0613C73.5546 92.4981 74.0471 93.5108 74.0471 95.0001V97.2481C74.0627 97.5129 74.022 97.7781 73.9277 98.0261C73.8334 98.2741 73.6877 98.4993 73.5001 98.6869C73.3125 98.8745 73.0873 99.0202 72.8393 99.1145C72.5913 99.2088 72.3261 99.2495 72.0613 99.2339V99.2497ZM62.311 112.006H67.3112C67.8871 112.006 68.0619 111.836 68.0619 111.26V104H75.314C77.3633 104 79.8138 101.935 79.8138 100V91.7514C79.8138 89.5035 77.4984 87.748 75.0479 87.748H62.311V112.006Z" fill="#FBFBFB"/>
<path fill-rule="evenodd" clip-rule="evenodd" d="M180.314 92.7488H185.815V87.002H180.314V92.7488Z" fill="#050505"/>
<path fill-rule="evenodd" clip-rule="evenodd" d="M72.0611 99.2495C72.326 99.2651 72.5911 99.2244 72.8391 99.1301C73.0871 99.0359 73.3123 98.8901 73.4999 98.7025C73.6876 98.5149 73.8333 98.2897 73.9276 98.0417C74.0219 97.7937 74.0625 97.5285 74.0469 97.2637V95.0158C74.0469 93.5264 73.5385 92.5137 72.0611 92.5137H68.5622C67.9863 92.5137 67.8115 92.6884 67.8115 93.2643V99.2654L72.0611 99.2495Z" fill="#EC1D29"/>
<path fill-rule="evenodd" clip-rule="evenodd" d="M100.315 97.999V111.749H105.561V101.252C105.561 100.406 106.006 99.5002 106.812 99.5002H112.563V94.5H103.564C102.138 94.5 100.315 96.5652 100.315 97.999Z" fill="#FBFBFB"/>
<path fill-rule="evenodd" clip-rule="evenodd" d="M42.314 96.9974H49.3119V92.998H42.314V96.9974Z" fill="#FBFBFB"/>
<path fill-rule="evenodd" clip-rule="evenodd" d="M116.062 92.0026V94.5007H114.077V99.5009H116.062V108.751C116.062 110.55 117.881 111.999 119.812 111.999H125.312V107.242C125.312 105.371 121.313 107.921 121.313 104.743V99.5009H124.812V94.5007H121.313V91.252H116.817C116.241 91.252 116.066 91.4267 116.066 92.0026H116.062Z" fill="#FBFBFB"/>
<path fill-rule="evenodd" clip-rule="evenodd" d="M133.565 101.748C133.565 100.775 134.518 99.5002 135.312 99.5002H140.563V94.5H131.313C130.463 94.5 128.314 96.6526 128.314 97.4985V111.749H133.565V101.748Z" fill="#050505"/>
<path fill-rule="evenodd" clip-rule="evenodd" d="M147.314 101.251V106.017C147.351 106.336 147.494 106.632 147.721 106.858C147.947 107.085 148.243 107.228 148.562 107.264H151.564C152.406 107.264 153.312 106.824 153.312 106.017V100.751C153.312 99.9567 152.406 99.5 151.564 99.5H148.812C148.017 99.5 147.314 100.294 147.314 101.251Z" fill="#FBFBFB"/>
<path fill-rule="evenodd" clip-rule="evenodd" d="M86.8118 101.252V105.751C86.8118 106.546 87.9 107.249 88.7976 107.249H91.7961C92.115 107.213 92.4123 107.07 92.6396 106.844C92.8668 106.617 93.0105 106.32 93.0472 106.002V101.236C93.0472 100.322 92.3561 99.25 91.5459 99.25H88.2972C87.5029 99.25 86.7959 100.338 86.7959 101.236L86.8118 101.252Z" fill="#EC1D29"/>
<path fill-rule="evenodd" clip-rule="evenodd" d="M42.314 106.999H48.5613C49.1372 106.999 49.3119 106.829 49.3119 106.253V103H42.314V106.999Z" fill="#FBFBFB"/>
<path fill-rule="evenodd" clip-rule="evenodd" d="M86.8115 101.252C86.8115 100.338 87.5025 99.2659 88.3127 99.2659H91.5615C92.3558 99.2659 93.0627 100.354 93.0627 101.252V106.018C93.0204 106.334 92.8722 106.628 92.6422 106.85C92.4122 107.072 92.114 107.21 91.7958 107.241H88.7973C87.8838 107.241 86.8115 106.554 86.8115 105.744V101.252ZM81.561 99.2659V108.266C81.561 109.993 82.9114 110.795 83.5468 111.733L86.2912 112.015H94.2939C96.2797 112.015 98.5435 110.156 98.5435 108.266V98.7496C98.4976 97.6372 98.0352 96.5828 97.248 95.7956C96.4607 95.0084 95.4063 94.5459 94.2939 94.5H85.064C82.7883 94.5 81.561 96.8829 81.561 99.2659Z" fill="#FBFBFB"/>
<path fill-rule="evenodd" clip-rule="evenodd" d="M193.071 101.001C193.071 100.207 194.16 99.5002 195.057 99.5002H201.054V94.5H190.808C189.275 94.5 187.305 96.9981 187.305 98.9998V107.737C187.305 109.382 188.981 111.737 190.808 111.737H201.054V107.241H194.807C194.199 107.241 193.056 106.097 193.056 105.493V101.001H193.071Z" fill="#050505"/>
<path fill-rule="evenodd" clip-rule="evenodd" d="M209.065 100.751C209.065 100.175 209.24 100.001 209.815 100.001H220.312V94.5H207.063C205.538 94.5 203.314 96.1998 203.314 97.7488V101.748C203.314 107.539 215.066 103.408 215.066 105.751C215.066 106.101 214.724 106.252 214.315 106.252H203.314V111.749H217.298C218.986 111.749 220.547 109.556 220.547 107.749V105.001C220.547 98.559 209.029 103.301 209.029 100.751H209.065Z" fill="#050505"/>
<path fill-rule="evenodd" clip-rule="evenodd" d="M147.315 101.252C147.315 100.291 148.033 99.5002 148.812 99.5002H151.564C152.406 99.5002 153.312 99.9411 153.312 100.751V106.002C153.312 106.796 152.406 107.249 151.564 107.249H148.562C148.244 107.212 147.947 107.069 147.721 106.843C147.494 106.616 147.351 106.32 147.315 106.002V101.236V101.252ZM141.814 107.499C141.814 110.128 143.367 111.749 146.064 111.749H155.564C157.252 111.749 158.812 109.556 158.812 107.749V99.5002C158.812 96.2237 157.585 94.5 154.313 94.5H145.575C143.589 94.5 141.826 96.9107 141.826 99.2659V107.515L141.814 107.499Z" fill="#050505"/>
<path fill-rule="evenodd" clip-rule="evenodd" d="M180.064 111.999H185.815V94.5H180.064V111.999Z" fill="#050505"/>
<path fill-rule="evenodd" clip-rule="evenodd" d="M160.564 99.5002H161.064V111.252C161.064 111.828 161.239 111.999 161.815 111.999H167.065V99.5002H171.315C172.228 99.5002 173.301 100.191 173.301 101.001V111.749H178.801V98.7496C178.801 96.8591 176.843 94.5 175.052 94.5H160.552V99.5002H160.564Z" fill="#050505"/>
<path fill-rule="evenodd" clip-rule="evenodd" d="M81.5611 99.25C81.5611 96.8671 82.7883 94.4841 85.0641 94.4841H94.3139C95.4262 94.53 96.4807 94.9925 97.2679 95.7797C98.0551 96.5669 98.5176 97.6214 98.5635 98.7337V108.234C98.5635 110.124 96.2838 111.983 94.3139 111.983H86.3111L83.5668 111.701C82.9115 110.764 81.581 109.961 81.581 108.234V99.25H81.5611ZM42.314 102.999H49.3V106.252C49.3 106.828 49.1252 106.999 48.5493 106.999H42.314V102.999ZM62.3109 87.7483H75.0636C77.4982 87.7483 79.8295 89.5038 79.8295 91.7517V100.001C79.8295 101.935 77.379 104 75.3297 104H68.0617V111.252C68.0617 111.828 67.887 111.999 67.3111 111.999H62.3109V87.7483ZM116.062 92.0019C116.062 91.426 116.237 91.2513 116.813 91.2513H121.313V94.5H124.812V99.5002H121.313V104.751C121.313 107.928 125.312 105.378 125.312 107.249V112.015H119.811C117.881 112.015 116.062 110.565 116.062 108.766V99.5002H114.076V94.5H116.062V92.0019ZM100.315 97.999C100.315 96.5652 102.138 94.5 103.564 94.5H112.563V99.5002H106.812C106.018 99.5002 105.561 100.406 105.561 101.252V111.749H100.315V97.999ZM42.3299 92.9988H49.3V97.0021H42.314V92.9988H42.3299ZM40.5625 110.251H55.5632V114.251C55.5632 114.827 55.7379 115.001 56.3138 115.001H125.816V85H55.5632V89.4998H40.5625V110.251Z" fill="#EC1D29"/>
</g>
<defs>
<clipPath id="clip0_4775_2982">
<rect width="180" height="30.0013" fill="white" transform="translate(40.5625 85)"/>
</clipPath>
</defs>
</svg>
