<svg width="110" height="22" viewBox="0 0 110 22" fill="none" xmlns="http://www.w3.org/2000/svg">
<path d="M3.94952 22H0L4.83551 0H8.78624L3.94952 22Z" fill="#001636" fill-opacity="0.92"/>
<path d="M12.5317 19.2728V3.85352H15.9465V9.5893H16.0093C16.8341 8.46848 17.8959 7.90766 19.1947 7.90683C20.3519 7.90683 21.2629 8.29162 21.9275 9.0612C22.5922 9.83077 22.9242 10.8406 22.9234 12.0906V19.2728H19.5074V12.8026C19.5074 12.1987 19.3645 11.7207 19.0789 11.3687C18.7932 11.0166 18.3776 10.8406 17.832 10.8406C17.5719 10.8333 17.3138 10.888 17.0776 11.0003C16.8414 11.1126 16.6336 11.2795 16.4704 11.488C16.1212 11.9187 15.9465 12.4791 15.9465 13.1692V19.2728H12.5317Z" fill="#001636" fill-opacity="0.92"/>
<path d="M28.0341 19.5971C26.8189 19.5971 25.8867 19.2268 25.2373 18.4862C24.5879 17.7457 24.2632 16.7429 24.2632 15.4779V8.23242H27.6562V14.7448C27.6562 15.9949 28.1942 16.6203 29.2701 16.6211C29.8567 16.6211 30.3178 16.4165 30.6534 16.0073C30.989 15.5981 31.1563 15.0633 31.1555 14.4031V8.23242H34.5703V19.274H31.3028V17.9147H31.2388C30.4301 19.0371 29.3618 19.5979 28.0341 19.5971Z" fill="#001636" fill-opacity="0.92"/>
<path d="M40.6445 19.6221C39.0801 19.6221 37.8328 19.2733 36.9025 18.5758C35.9723 17.8783 35.481 16.9174 35.4287 15.693H38.654C38.7803 16.7865 39.437 17.3332 40.6239 17.3332C41.1398 17.3332 41.5481 17.2359 41.8491 17.0412C41.9883 16.9612 42.1038 16.8438 42.1833 16.7016C42.2628 16.5594 42.3033 16.3976 42.3005 16.2335C42.3025 16.1311 42.2878 16.029 42.2571 15.9316C42.2272 15.8414 42.1772 15.7597 42.111 15.693C42.041 15.6222 41.9758 15.5576 41.9119 15.4992C41.8269 15.4298 41.7315 15.3753 41.6294 15.3376C41.5087 15.2879 41.3952 15.2482 41.3047 15.2134C41.2142 15.1786 41.0814 15.1525 40.9064 15.1165L40.4984 15.0307C40.4006 15.0083 40.2461 14.9798 40.0373 14.9437C39.8285 14.9077 39.6752 14.8828 39.5762 14.8679C39.1296 14.7975 38.7526 14.7221 38.4452 14.6418C38.0965 14.5495 37.7567 14.4247 37.43 14.269C37.0995 14.1245 36.7947 13.9242 36.5283 13.6763C36.2759 13.42 36.0796 13.1112 35.9526 12.7704C35.7906 12.3491 35.7111 11.8989 35.7184 11.4458C35.7184 10.3234 36.1582 9.45357 37.0377 8.83642C37.9173 8.21926 39.0205 7.90986 40.3475 7.9082C41.8419 7.9082 43.001 8.22133 43.8251 8.8476C44.6491 9.47386 45.103 10.3399 45.1866 11.4458H42.0483C41.9356 10.5835 41.3631 10.1519 40.3306 10.1511C39.9545 10.1335 39.581 10.2234 39.2515 10.4108C39.1228 10.4859 39.0166 10.596 38.9444 10.729C38.8723 10.862 38.8369 11.0128 38.8423 11.165C38.8413 11.2463 38.8561 11.327 38.8858 11.4024C38.9149 11.4773 38.9613 11.5438 39.0209 11.5962C39.0803 11.6516 39.1436 11.7023 39.2105 11.7478C39.293 11.7991 39.3809 11.8407 39.4724 11.8721C39.5834 11.9155 39.6836 11.9516 39.7754 11.9802C39.8991 12.0164 40.0249 12.0451 40.152 12.0659C40.3125 12.0957 40.4465 12.1206 40.5503 12.1417L40.98 12.2274C41.1611 12.2635 41.3083 12.2896 41.4194 12.3032C41.8938 12.389 42.2861 12.4685 42.5927 12.5406C42.9621 12.6327 43.3231 12.7574 43.6718 12.9133C44.0305 13.0578 44.3606 13.2683 44.6459 13.5346C44.9103 13.8145 45.1201 14.1439 45.2639 14.5051C45.447 14.9592 45.5362 15.4475 45.5258 15.939C45.5258 17.1178 45.0752 18.0237 44.1739 18.6566C43.2726 19.2895 42.0962 19.6113 40.6445 19.6221Z" fill="#001636" fill-opacity="0.92"/>
<path d="M50.4444 19.4008C49.3548 19.4008 48.5135 19.1747 47.9204 18.7224C47.3273 18.2701 47.0308 17.4831 47.0308 16.3614V10.4256H45.6089V8.22622H47.0344V4.73828H50.3647V8.23119H52.3129V10.4256H50.3647V15.601C50.3647 16.0036 50.4657 16.284 50.6677 16.4422C50.8705 16.6013 51.1674 16.6795 51.5585 16.6795C51.6696 16.6795 51.8168 16.6795 51.9979 16.6696L52.3129 16.6572V19.2244C51.9218 19.3449 51.3002 19.4008 50.4444 19.4008Z" fill="#001636" fill-opacity="0.92"/>
<path d="M53.4429 19.2728V3.85352H56.8999V19.2728H53.4429Z" fill="#001636" fill-opacity="0.92"/>
<path d="M63.6656 19.5972C61.9347 19.5972 60.549 19.0476 59.5085 17.9483C58.468 16.849 57.9478 15.4432 57.9478 13.731C57.9478 12.0651 58.4612 10.6779 59.488 9.56954C60.5148 8.46116 61.8377 7.90738 63.4568 7.9082C64.9238 7.9082 66.1458 8.36838 67.1227 9.28872C68.4102 10.4982 69.0387 12.2883 69.0081 14.6592H61.2986C61.4112 15.4205 61.6699 16.0132 62.0747 16.4373C62.4795 16.8615 63.0243 17.0735 63.7091 17.0735C64.5878 17.0735 65.1813 16.707 65.4895 15.9738H68.8198C68.5679 17.0391 67.9676 17.909 67.0189 18.5833C66.0701 19.2576 64.9524 19.5956 63.6656 19.5972ZM61.3203 12.5667H65.545C65.4895 11.9039 65.2767 11.3796 64.9065 10.9935C64.7262 10.8024 64.5093 10.6519 64.2695 10.5516C64.0297 10.4512 63.7723 10.4033 63.5135 10.4108C62.3033 10.4108 61.5722 11.1294 61.3203 12.5667Z" fill="#001636" fill-opacity="0.92"/>
<path d="M70.0342 19.2734V8.23181H73.3017V9.80492H73.3657C74.106 8.53997 75.1884 7.90708 76.6127 7.90625C78.0225 7.90625 79.0284 8.55322 79.6304 9.84717H79.6714C80.4817 8.55488 81.6083 7.90791 83.0512 7.90625C84.2373 7.90625 85.1414 8.284 85.7635 9.03949C86.3855 9.79498 86.6961 10.8118 86.6953 12.09V19.2722H83.2769V12.7175C83.2769 11.4667 82.7744 10.8412 81.7693 10.8412C81.5287 10.8309 81.2894 10.8815 81.0722 10.9885C80.855 11.0955 80.6667 11.2557 80.5236 11.4551C80.2218 11.8693 80.0713 12.4123 80.0721 13.0841V19.2734H76.6537V12.7175C76.6537 11.4667 76.1512 10.8412 75.1461 10.8412C74.9054 10.831 74.6659 10.8817 74.4486 10.9887C74.2312 11.0957 74.0426 11.2558 73.8992 11.4551C73.5991 11.8693 73.449 12.4123 73.449 13.0841V19.2734H70.0342Z" fill="#001636" fill-opacity="0.92"/>
<path d="M91.2758 19.5539C90.1725 19.5539 89.2873 19.2594 88.6202 18.6704C87.9531 18.0815 87.618 17.2531 87.6147 16.1853C87.6147 15.0644 87.9769 14.2485 88.7011 13.7374C89.4253 13.2262 90.4312 12.885 91.7188 12.7135C92.7649 12.5826 93.4807 12.4351 93.8661 12.2711C94.2516 12.1071 94.4431 11.8449 94.4407 11.4846C94.4407 10.6926 93.9523 10.2971 92.9753 10.2979C91.9292 10.2979 91.3494 10.7721 91.236 11.7206H88.0976C88.1105 11.197 88.2344 10.6826 88.4607 10.2134C88.6869 9.74425 89.0099 9.3316 89.4072 9.00435C90.2377 8.28613 91.4214 7.92661 92.9584 7.92578C94.4954 7.92495 95.6538 8.22856 96.4336 8.8366C97.3413 9.51257 97.7956 10.5621 97.7964 11.9853V17.5484C97.7964 18.4256 97.9171 18.95 98.173 19.1227V19.2743H94.8644C94.7244 19.073 94.6037 18.663 94.5023 18.0442H94.4612C93.7764 19.0507 92.7146 19.5539 91.2758 19.5539ZM92.3621 17.3173C93.0055 17.3173 93.5246 17.1334 93.9229 16.7668C94.1189 16.5878 94.2741 16.3665 94.3774 16.1186C94.4807 15.8707 94.5295 15.6024 94.5204 15.3328V14.012C94.1864 14.1851 93.5998 14.3794 92.7605 14.5948C92.0757 14.753 91.5928 14.9398 91.312 15.1552C91.1737 15.2625 91.0632 15.4032 90.9901 15.5648C90.9171 15.7265 90.8838 15.9041 90.8931 16.0821C90.8972 16.9022 91.3876 17.3123 92.3646 17.3123L92.3621 17.3173Z" fill="#001636" fill-opacity="0.92"/>
<path d="M103.529 19.6207C102.133 19.6207 101.002 19.0959 100.136 18.0463C99.269 16.9968 98.8361 15.5666 98.8369 13.7557C98.8369 12.0293 99.2735 10.624 100.147 9.5396C101.02 8.45523 102.146 7.91222 103.526 7.91056C104.814 7.91056 105.813 8.43535 106.524 9.48492H106.585V3.85352H110V19.2728H106.732V17.7817H106.694C105.995 19.0077 104.94 19.6207 103.529 19.6207ZM104.409 16.8398C104.732 16.8507 105.053 16.7785 105.342 16.6297C105.631 16.4808 105.879 16.2601 106.065 15.9874C106.467 15.4199 106.668 14.6744 106.668 13.7507C106.668 12.7881 106.48 12.0152 106.102 11.4321C105.726 10.8505 105.173 10.5622 104.449 10.5622C104.136 10.5537 103.827 10.628 103.55 10.7782C103.274 10.9284 103.039 11.1493 102.87 11.4196C102.485 11.9962 102.294 12.7567 102.294 13.706C102.294 14.6553 102.482 15.4307 102.859 15.9911C103.025 16.2573 103.255 16.4748 103.526 16.6229C103.798 16.7709 104.102 16.8443 104.409 16.8361V16.8398Z" fill="#001636" fill-opacity="0.92"/>
</svg>
