<svg width="261" height="200" viewBox="0 0 261 200" fill="none" xmlns="http://www.w3.org/2000/svg">
<path d="M153.602 151.03C149.916 152.645 146.321 154.546 142.173 154.773C141.273 154.436 140.281 154.436 139.38 154.773C138.361 154.962 137.308 154.818 136.376 154.363C136.627 154.045 136.911 153.92 137.253 154.233C137.181 154.145 137.087 154.078 136.982 154.037C136.876 153.996 136.762 153.983 136.65 153.999C136.035 154.056 135.392 153.829 134.823 154.233C130.856 153.943 126.975 152.931 123.372 151.246C118.963 149.209 114.361 148.072 109.627 148.328C104.041 148.629 99.7514 146.245 95.7578 142.929C92.9134 140.551 90.1372 138.031 87.4407 135.465C86.3939 134.475 86.337 132.911 85.9673 131.568C84.7555 127.125 84.2606 122.432 81.3763 118.575C80.8643 117.892 80.4661 117.147 79.6412 116.817C76.5692 115.588 75.5054 113.085 74.7829 110.047C72.6268 100.945 71.6825 91.9108 75.6647 83.0931C77.9402 78.0243 80.5116 73.0579 83.2252 68.1996C84.2037 66.4531 85.8762 65.0365 87.4236 63.6883C92.1226 59.6036 97.0549 55.7864 101.344 51.241C101.913 50.6095 102.732 49.8984 103.5 50.4843C105.469 51.9805 107.062 50.7517 108.672 49.961C112.979 47.8686 117.585 46.4561 122.325 45.7739C122.797 46.138 123.355 45.9844 123.878 46.0072C124.098 46.0535 124.328 46.0276 124.532 45.9332C124.406 45.9685 124.271 45.9589 124.15 45.906C124.03 45.8531 123.932 45.7602 123.872 45.6431C125.01 45.0458 126.228 45.114 127.451 45.2278C128.748 45.7967 130.198 45.0628 131.484 45.6943C134.329 44.585 137.224 45.1766 140.097 45.6317C139.91 45.8517 139.65 45.9965 139.364 46.0394C139.079 46.0823 138.787 46.0203 138.544 45.865C139.744 46.1514 140.997 46.1279 142.185 45.7967C143.421 45.7608 144.639 46.1064 145.672 46.7866C150.792 50.3592 157.021 51.6449 162.261 54.9501C166.095 57.3736 169.309 60.548 172.501 63.7281C174.323 65.6548 176.397 67.3255 178.668 68.6945C179.994 69.3943 181.155 70.3703 182.073 71.5567C182.99 72.7432 183.643 74.1124 183.987 75.5723C185.733 82.4616 187.4 89.3281 186.086 96.5075C185.921 97.4063 185.671 98.2938 185.472 99.1471C186.24 99.6705 187.298 98.3677 187.81 99.8696C188.538 102.014 188.771 104.068 187.576 106.076C187.284 106.662 186.808 107.137 186.223 107.43C182.462 108.682 181.427 111.725 180.938 115.167C180.494 115.918 180.494 115.918 180.801 117.323C181.01 118.336 180.859 119.39 180.374 120.304C180.01 120.139 180.164 119.735 179.953 119.434C180.147 120.065 179.834 120.748 180.261 121.305C179.777 124.685 178.412 127.563 175.709 129.793C174.581 130.659 173.745 131.851 173.314 133.206C172.586 135.744 170.737 137.189 168.621 138.497C165.74 140.14 163.066 142.122 160.657 144.402C159.406 145.564 158.657 147.168 158.569 148.874C158.518 149.864 158.171 150.734 156.936 150.768C155.827 150.586 154.678 150.194 153.602 151.03Z" fill="#172A99"/>
<path d="M142.225 45.79C140.956 46.6945 139.602 46.1882 138.243 45.9094L140.126 45.625L142.225 45.79Z" fill="#172A99"/>
<path d="M131.495 45.6704C130.153 45.5168 128.713 46.1654 127.462 45.204C128.822 45.2722 130.278 44.5782 131.495 45.6704Z" fill="#172A99"/>
<path d="M180.784 117.316C180.473 116.958 180.274 116.516 180.212 116.046C180.151 115.575 180.229 115.097 180.437 114.671C180.613 114.204 180.738 114.978 180.92 115.16L180.784 117.316Z" fill="#172A99"/>
<path d="M153.603 151.029C154.632 149.858 155.776 150.125 156.948 150.773L153.603 151.029Z" fill="#172A99"/>
<path d="M123.884 45.6367L124.578 45.9667C124.487 46.0634 124.402 46.2397 124.31 46.2454C123.611 46.2454 122.865 46.4616 122.336 45.7676L123.884 45.6367Z" fill="#172A99"/>
<path d="M180.243 121.3C179.538 120.595 179.612 119.809 180.084 118.666L180.357 120.299L180.243 121.3Z" fill="#172A99"/>
<path d="M134.829 154.226C135.358 153.543 136.103 153.731 136.803 153.753C136.894 153.753 136.98 153.93 137.071 154.021L136.382 154.357L134.829 154.226Z" fill="#172A99"/>
<path d="M139.38 154.767C139.761 154.416 140.259 154.221 140.777 154.221C141.295 154.221 141.793 154.416 142.174 154.767H139.38Z" fill="#172A99"/>
<path d="M158.722 101.991C158.008 107.237 156.499 112.344 154.245 117.135C148.044 129.855 134.26 131.641 124.891 127.687C121.625 126.305 119.168 125.076 115.845 128C113.444 130.105 109.826 129.918 106.595 128.785C104.32 127.983 103.33 126.112 102.482 124.092C102.249 123.787 102.122 123.413 102.122 123.028C102.122 122.644 102.249 122.27 102.482 121.964C105.235 115.923 109.775 114.347 115.902 117.63C117.916 118.705 118.536 118.358 119.156 116.338C119.977 113.841 120.624 111.29 121.09 108.704C121.204 108.01 121.938 107.037 120.715 106.513C120.1 105.91 119.094 106.667 118.536 105.882C114.503 104.886 110.572 103.976 107.983 100.062C103.881 93.8045 104.638 84.7022 110.651 79.0134C118.018 71.9933 127.149 70.2638 136.82 72.2663C149.546 74.9117 156.731 82.7908 158.239 95.5908C158.335 96.0479 158.478 96.494 158.665 96.922C159.135 98.5765 159.154 100.326 158.722 101.991Z" fill="white"/>
<path d="M158.722 101.991L158.666 96.8711C159.138 97.6393 159.393 98.5214 159.403 99.4232C159.413 100.325 159.178 101.213 158.722 101.991Z" fill="#172A99"/>
<path d="M118.519 105.876C119.304 105.876 120.197 105.517 120.698 106.507C119.844 106.507 118.991 106.507 118.149 106.507C117.768 106.507 117.723 106.274 117.99 106.046C118.154 105.957 118.334 105.899 118.519 105.876Z" fill="#172A99"/>
<path d="M102.465 121.959V124.087C101.51 123.376 101.527 122.664 102.465 121.959Z" fill="#172A99"/>
<path d="M109.149 115.302C109.437 115.121 109.772 115.03 110.111 115.04C110.451 115.05 110.779 115.161 111.055 115.359C110.768 115.54 110.433 115.632 110.094 115.622C109.754 115.612 109.425 115.5 109.149 115.302Z" fill="#172A99"/>
<path d="M127.36 94.5548C127.656 90.2711 128.384 86.0499 130.517 82.301C134.221 75.7986 136.843 75.8896 141.895 78.478C151.156 83.2226 155.03 92.3191 153.915 103.407C153.338 108.871 151.354 114.092 148.158 118.562C143.368 125.434 130.045 127.277 123.207 122.095C122.388 121.475 122.154 120.957 122.553 119.99C124.138 115.836 125.247 111.515 125.858 107.11C125.908 106.505 126.124 105.926 126.481 105.436C126.838 104.945 127.323 104.562 127.883 104.328C129.368 103.629 130.961 102.997 131.956 101.438C132.724 100.238 133.43 99.2083 132.212 97.9397C130.995 96.6711 129.846 97.3367 128.799 98.2526C128.583 98.4346 128.344 98.5882 128.116 98.7532C126.296 97.6325 127.354 96.0055 127.36 94.5548Z" fill="#172A99"/>
<path d="M122.82 93.4571C122.991 94.4765 122.842 95.5239 122.393 96.4551C122.316 96.4113 122.248 96.351 122.196 96.2785C122.144 96.206 122.108 96.123 122.091 96.0352C122.075 95.9475 122.077 95.8572 122.099 95.7705C122.121 95.6839 122.161 95.603 122.217 95.5335C122.144 95.6247 122.09 95.7295 122.058 95.8418C122.025 95.9541 122.016 96.0717 122.029 96.1877C122.098 96.7965 121.825 97.4621 122.302 98.0139C122.376 99.0208 122.553 100.045 121.733 100.892C121.528 100.86 121.318 100.877 121.12 100.941C120.923 101.005 120.743 101.115 120.596 101.262C115.942 101.507 112.347 99.5556 110.657 95.8407C108.877 91.9268 110.151 85.7088 113.411 82.4605C117.268 78.6091 121.239 76.9365 129.118 75.9922C125.426 80.6798 124.163 85.9989 122.94 91.3522C122.189 91.978 122.661 92.7232 122.82 93.4571Z" fill="#172A99"/>
<path d="M114.349 122.557C115.237 122.927 114.867 123.365 114.349 123.695C112.37 124.981 110.31 125.578 108.092 124.201C107.739 121.755 109.298 120.623 111.789 121.556C112.643 121.903 113.297 122.705 114.349 122.557Z" fill="#172A99"/>
<path d="M114.349 122.557C113.53 124.042 113.001 122.591 112.42 122.324C110.031 121.231 108.666 121.8 108.108 124.201C106.231 122.909 106.618 121.834 108.512 121.106C110.737 120.247 112.642 121.118 114.349 122.557Z" fill="#172A99"/>
<path d="M127.36 94.5566C127.894 95.9106 126.791 97.5547 128.088 98.7721C127.616 99.4263 126.95 99.8758 126.916 98.6526C126.865 97.2987 126.512 95.8423 127.36 94.5566Z" fill="#172A99"/>
<path d="M122.82 93.4579C122.251 92.7013 121.819 91.9617 122.973 91.3359L122.82 93.4579Z" fill="#172A99"/>
<path d="M122.314 98.0095C121.591 97.4975 121.745 96.7408 121.796 96.0411C121.796 95.6998 122.041 95.6542 122.24 95.9387C122.319 96.1005 122.375 96.2729 122.405 96.4507C122.365 96.9627 122.314 97.4861 122.314 98.0095Z" fill="#172A99"/>
<path d="M120.607 101.252C120.664 100.791 120.721 100.251 121.227 100.114C121.733 99.9777 121.631 100.558 121.739 100.859C121.529 101.423 121.068 101.315 120.607 101.252Z" fill="#172A99"/>
</svg>
