<svg width="261" height="200" viewBox="0 0 261 200" fill="none" xmlns="http://www.w3.org/2000/svg">
<path d="M108.574 78.3561C108.863 79.2126 109.197 80.0526 109.575 80.8724C110.652 83.611 111.754 86.339 112.839 89.074C114.317 92.7937 115.792 96.5146 117.263 100.237C117.94 101.931 118.627 103.621 119.307 105.315C119.353 105.442 119.391 105.572 119.422 105.703C119.403 105.713 119.383 105.722 119.362 105.728C118.494 105.806 118.456 105.756 118.03 104.652C117.445 103.123 116.821 101.609 116.231 100.081C115.565 98.3591 114.931 96.6228 114.258 94.9041C113.585 93.1855 112.842 91.375 112.138 89.6105C111.514 88.0329 110.907 86.4343 110.276 84.8673C109.756 83.5721 109.23 82.284 108.686 80.9853C108.494 80.5159 108.306 80.0466 108.104 79.549C107.788 80.0547 107.543 80.6022 107.375 81.1759C106.643 83.2722 105.781 85.3155 104.979 87.3836C104.422 88.827 103.857 90.2704 103.194 91.6679C102.825 92.4479 103.02 93.1396 103.351 93.8313C104.648 96.5558 105.625 99.4108 106.74 102.206C107.12 103.152 107.525 104.087 107.912 105.029C107.999 105.248 108.065 105.47 108.159 105.735C107.877 105.735 107.643 105.735 107.41 105.735C107.334 105.739 107.259 105.716 107.198 105.67C107.137 105.623 107.095 105.556 107.078 105.481C106.287 103.466 105.513 101.444 104.701 99.4355C104.087 97.9145 103.477 96.397 102.957 94.8477C102.866 94.4891 102.68 94.163 102.417 93.9054C102.131 94.6112 101.866 95.317 101.569 96.0017C100.59 98.285 99.7493 100.621 98.8148 102.922C98.4941 103.709 98.2047 104.51 97.9257 105.312C97.8141 105.633 97.6503 105.791 97.3016 105.735C97.0987 105.721 96.8947 105.721 96.6914 105.735C97.2423 104.761 97.4655 103.72 97.8769 102.746C98.5743 101.066 99.2193 99.3544 99.9027 97.6674C100.436 96.3475 100.949 95.0206 101.562 93.7325C101.762 93.3602 101.866 92.9435 101.866 92.5202C101.866 92.0969 101.762 91.6803 101.562 91.308C100.694 89.5681 100.074 87.7189 99.3658 85.9119C98.5987 83.9498 97.7967 82.0052 97.0087 80.0536C96.9459 79.8913 96.8936 79.7289 96.8134 79.5031C96.5129 80.1164 96.2566 80.7509 96.0463 81.4017C94.5261 85.2014 93.0153 89.007 91.5135 92.8184L86.8692 104.56C86.8238 104.676 86.7925 104.8 86.7506 104.913C86.4403 105.809 86.4403 105.809 85.4326 105.696C85.7464 104.888 86.0463 104.087 86.3636 103.289C87.4445 100.572 88.5303 97.8545 89.6202 95.1371C90.3978 93.1819 91.1614 91.2162 91.9459 89.2646C92.6223 87.5918 93.3406 85.9367 94.0031 84.2568C94.6447 82.6369 95.3176 81.0347 95.9104 79.3937C96.0429 79.0196 96.0429 78.5185 96.538 78.3349C96.7831 78.2636 97.0443 78.2722 97.2842 78.3596C97.9222 79.9795 98.5952 81.5853 99.1949 83.2228C100.15 85.8308 101.343 88.34 102.295 90.948C102.33 91.0433 102.347 91.1703 102.448 91.1703C102.626 91.1703 102.535 91.008 102.574 90.9162C103.016 89.8575 103.477 88.7988 103.902 87.74C104.502 86.2543 105.074 84.7579 105.645 83.2686C105.949 82.4958 106.259 81.73 106.562 80.9571C106.911 80.1136 107.228 79.2631 107.56 78.4161C107.887 78.1973 108.24 78.3455 108.574 78.3561Z" fill="#343434"/>
<path d="M73.1801 105.752H72.9534C72.678 105.653 72.3886 105.752 72.1097 105.685L71.761 105.667C71.632 105.576 71.4716 105.667 71.3391 105.6C70.1339 105.413 68.9604 105.056 67.8523 104.541C66.9247 104.139 66.0499 103.622 65.2477 103.003C65.1048 102.897 64.9339 102.784 64.9862 102.565C65.0663 102.352 65.2165 102.174 65.4116 102.061C65.5057 101.983 65.5789 102.113 65.6521 102.17C67.256 103.466 69.1654 104.317 71.1927 104.64C71.5056 104.697 71.8231 104.724 72.1411 104.721C72.3886 104.817 72.6536 104.721 72.9047 104.785H73.1662C73.4765 104.711 73.7972 104.817 74.1076 104.725L74.5051 104.704C74.6411 104.637 74.8014 104.704 74.9374 104.64C76.3784 104.494 77.7538 103.957 78.9193 103.087C79.9535 102.352 80.6641 101.238 80.8998 99.9819C81.0968 99.106 81.0724 98.194 80.8287 97.3304C80.585 96.4667 80.1296 95.6793 79.5051 95.0411C78.5672 94.0282 77.3538 93.4812 76.1195 92.9801C74.6271 92.3731 73.0581 91.9814 71.5413 91.4485C70.3493 91.0572 69.2089 90.5204 68.1452 89.8498C67.4592 89.3877 66.8723 88.7905 66.4194 88.0939C65.9665 87.3972 65.657 86.6153 65.5092 85.7948C65.4824 85.5996 65.473 85.4023 65.4813 85.2054C65.443 84.8713 65.443 84.5338 65.4813 84.1996C65.466 83.503 65.6035 82.8115 65.8838 82.175C66.1642 81.5386 66.5805 80.9729 67.1027 80.5188C68.2193 79.5296 69.586 78.8746 71.0497 78.6272C71.4577 78.546 71.8691 78.4931 72.277 78.4295C72.42 78.3731 72.5769 78.4295 72.7163 78.3695C72.8698 78.4189 73.0964 78.2743 73.1696 78.4472C73.2596 78.6706 73.2897 78.9141 73.2568 79.153C73.2115 79.4283 72.9291 79.2448 72.7722 79.3189C72.6153 79.393 72.3607 79.2977 72.1655 79.3824C70.6418 79.5659 69.1947 79.9612 67.9813 80.9599C66.4402 82.2198 65.9555 83.8714 66.3914 85.763C66.9214 88.064 68.5148 89.3133 70.5755 90.1286C72.3956 90.8556 74.3098 91.3073 76.1543 91.9884C77.549 92.5072 78.9089 93.1389 80.0107 94.2259C81.1348 95.3301 81.8081 96.8214 81.8971 98.4044C81.9354 98.7668 81.9354 99.1324 81.8971 99.4948C81.6704 101.658 80.4744 103.179 78.7345 104.326C77.3398 105.24 75.7882 105.547 74.1808 105.692C73.8775 105.756 73.5288 105.657 73.1801 105.752Z" fill="#343434"/>
<path d="M162.44 119.129C162.44 119.835 162.419 120.565 162.44 121.282C162.44 121.659 162.256 121.635 162.005 121.635C161.754 121.635 161.562 121.61 161.586 121.257C161.618 120.795 161.586 120.325 161.586 119.845C161.586 119.602 161.544 119.492 161.269 119.492C160.603 119.514 159.933 119.492 159.264 119.492C159.044 119.492 158.971 119.563 158.975 119.782C158.975 120.29 158.975 120.798 158.975 121.303C158.975 121.698 158.723 121.596 158.521 121.596C158.319 121.596 158.061 121.705 158.064 121.31C158.078 119.814 158.078 118.32 158.064 116.828C158.064 116.429 158.323 116.542 158.518 116.542C158.713 116.542 158.988 116.422 158.975 116.824C158.954 117.357 158.975 117.883 158.975 118.43C158.975 118.67 159.048 118.744 159.285 118.741C159.954 118.741 160.624 118.723 161.29 118.741C161.544 118.741 161.593 118.645 161.586 118.42C161.586 117.883 161.586 117.361 161.586 116.814C161.586 116.461 161.82 116.539 162.005 116.542C162.189 116.546 162.44 116.433 162.43 116.807C162.44 117.594 162.44 118.367 162.44 119.129Z" fill="#343434"/>
<path d="M67.9285 120.881C67.9285 121.64 67.9285 121.64 67.1928 121.64C66.3281 121.64 65.4494 121.64 64.6021 121.64C64.3232 121.64 64.2534 121.548 64.2534 121.287C64.2534 119.84 64.2534 118.39 64.2534 116.939C64.2534 116.674 64.3092 116.568 64.6021 116.586C65.5784 116.586 66.5512 116.586 67.5275 116.586C67.8309 116.586 67.8553 116.716 67.8762 116.963C67.8971 117.211 67.8762 117.376 67.5275 117.366C66.8301 117.338 66.1642 117.366 65.4843 117.366C65.2437 117.366 65.1809 117.447 65.1739 117.68C65.146 118.739 65.1391 118.739 66.1677 118.739C66.5163 118.739 66.8406 118.76 67.1719 118.739C67.5031 118.717 67.6635 118.82 67.6077 119.176C67.6008 119.275 67.6008 119.374 67.6077 119.473C67.3532 119.614 67.0777 119.515 66.8092 119.533C66.2776 119.516 65.7455 119.532 65.2158 119.579C65.153 119.999 65.153 120.426 65.2158 120.846C65.8351 120.896 66.4567 120.912 67.0777 120.891C67.3603 120.861 67.6452 120.858 67.9285 120.881Z" fill="#343434"/>
<path d="M208.675 119.531C208.56 119.949 208.56 120.391 208.675 120.809C209.421 120.864 210.17 120.87 210.917 120.827H211.06C211.224 120.858 211.409 120.826 211.44 121.084C211.44 121.642 211.44 121.642 210.879 121.642C209.962 121.642 209.045 121.642 208.128 121.642C207.869 121.642 207.758 121.596 207.779 121.289C207.793 119.828 207.793 118.367 207.779 116.906C207.779 116.616 207.876 116.553 208.128 116.553C209.174 116.553 210.24 116.553 211.297 116.553C211.346 116.803 211.346 117.061 211.297 117.311C210.502 117.311 209.711 117.311 208.916 117.311C208.682 117.311 208.612 117.379 208.605 117.619C208.577 118.677 208.57 118.677 209.634 118.677C209.939 118.695 210.245 118.695 210.551 118.677C210.973 118.624 211.105 118.794 211.039 119.189C211.032 119.274 211.032 119.358 211.039 119.443C210.404 119.514 209.766 119.443 209.132 119.475C208.977 119.459 208.821 119.478 208.675 119.531Z" fill="#343434"/>
<path d="M106.177 119.537C106.118 119.957 106.118 120.383 106.177 120.804C106.797 120.854 107.42 120.87 108.042 120.85C108.332 120.832 108.623 120.843 108.91 120.881C108.91 121.64 108.91 121.64 108.178 121.64H105.337C105.253 121.58 105.277 121.488 105.277 121.407C105.277 119.852 105.277 118.294 105.277 116.735C105.277 116.679 105.288 116.624 105.309 116.572C106.355 116.572 107.425 116.572 108.478 116.572C108.788 116.572 108.827 116.685 108.827 116.96C108.827 117.236 108.778 117.363 108.478 117.349C107.812 117.324 107.146 117.349 106.477 117.349C106.236 117.349 106.128 117.402 106.128 117.673C106.107 118.732 106.097 118.732 107.129 118.732C107.434 118.751 107.74 118.751 108.046 118.732C108.499 118.672 108.638 118.863 108.572 119.286C108.567 119.357 108.567 119.427 108.572 119.498C107.924 119.572 107.272 119.498 106.623 119.53C106.477 119.501 106.306 119.452 106.177 119.537Z" fill="#343434"/>
<path d="M141.305 119.537C141.242 119.957 141.242 120.384 141.305 120.804C141.925 120.855 142.548 120.87 143.17 120.85C143.46 120.833 143.751 120.843 144.038 120.882C144.038 121.641 144.038 121.641 143.303 121.641H140.464C140.377 121.581 140.402 121.489 140.402 121.408V116.742C140.399 116.687 140.41 116.631 140.433 116.58C141.479 116.58 142.546 116.58 143.602 116.58C143.909 116.58 143.951 116.689 143.951 116.968C143.951 117.247 143.902 117.371 143.602 117.356C142.936 117.332 142.27 117.356 141.601 117.356C141.36 117.356 141.252 117.402 141.252 117.678C141.252 118.736 141.221 118.736 142.253 118.736C142.602 118.736 142.919 118.758 143.25 118.736C143.582 118.715 143.742 118.821 143.69 119.174C143.679 119.272 143.679 119.372 143.69 119.47C143.432 119.612 143.156 119.513 142.888 119.53C142.36 119.501 141.832 119.504 141.305 119.537Z" fill="#343434"/>
<path d="M215.543 117.423C215.303 117.473 215.086 117.547 215.044 117.836C215.003 118.126 215.205 118.277 215.393 118.408C215.618 118.546 215.865 118.643 216.122 118.697C216.513 118.792 216.881 118.964 217.206 119.202C217.369 119.322 217.5 119.48 217.589 119.663C217.679 119.845 217.723 120.047 217.719 120.25C217.715 120.454 217.662 120.654 217.566 120.832C217.47 121.011 217.332 121.164 217.164 121.277C216.86 121.505 216.497 121.64 216.118 121.665C215.956 121.704 215.786 121.704 215.623 121.665C215.013 121.665 214.528 121.348 214.023 121.079C213.601 120.857 213.901 120.596 214.023 120.374C214.19 120.045 214.372 120.324 214.48 120.412C214.973 120.761 215.579 120.908 216.174 120.822C216.307 120.818 216.434 120.766 216.532 120.676C216.63 120.587 216.694 120.464 216.711 120.331C216.737 120.199 216.71 120.061 216.638 119.948C216.566 119.834 216.454 119.753 216.324 119.721C215.916 119.569 215.505 119.417 215.086 119.283C214.844 119.227 214.622 119.103 214.447 118.924C214.271 118.745 214.15 118.52 214.096 118.274C214.058 118.081 214.058 117.883 214.096 117.692C214.291 116.943 214.846 116.672 215.536 116.573C215.755 116.53 215.98 116.53 216.199 116.573C216.583 116.623 216.957 116.732 217.307 116.897C217.551 117.025 217.628 117.173 217.482 117.434C217.335 117.695 217.217 117.91 216.892 117.688C216.677 117.561 216.441 117.474 216.195 117.43C215.983 117.364 215.757 117.362 215.543 117.423Z" fill="#343434"/>
<path d="M125.456 116.751C125.627 116.398 125.944 116.602 126.181 116.599C126.418 116.595 126.299 116.842 126.299 116.976C126.299 117.834 126.299 118.695 126.299 119.553C126.299 120.199 126.714 120.827 127.196 120.887C128.074 120.996 128.747 120.626 128.894 119.877C128.984 119.21 128.894 118.54 128.935 117.873C128.918 117.441 128.928 117.008 128.967 116.578C129.8 116.578 129.814 116.578 129.797 117.439C129.826 118.178 129.806 118.919 129.737 119.655C129.694 120.138 129.498 120.594 129.179 120.956C128.86 121.318 128.435 121.567 127.966 121.667C127.748 121.704 127.525 121.704 127.307 121.667C126.115 121.55 125.564 120.544 125.473 119.528C125.452 119.334 125.473 119.136 125.449 118.939C125.405 118.21 125.408 117.479 125.456 116.751Z" fill="#343434"/>
<path d="M61.2538 119.109C61.1875 119.462 61.1492 119.857 61.0516 120.217C60.945 120.612 60.7201 120.963 60.4078 121.223C60.0956 121.483 59.7113 121.638 59.3082 121.668C59.1737 121.707 59.0312 121.707 58.8967 121.668C57.7008 121.474 57.0069 120.764 56.9162 119.349C56.8674 118.576 56.9162 117.8 56.8883 117.03C56.8674 116.642 56.9999 116.526 57.3555 116.579C57.4809 116.588 57.6068 116.588 57.7321 116.579C57.8054 117.489 57.7321 118.403 57.7635 119.314C57.7454 119.481 57.7573 119.651 57.7984 119.815C57.8301 120.075 57.9433 120.319 58.1215 120.509C58.2997 120.7 58.5335 120.827 58.7886 120.874C59.7126 120.937 60.1484 120.658 60.3158 119.9C60.5285 118.94 60.396 117.945 60.4065 116.963C60.4065 116.829 60.3124 116.582 60.5216 116.582C60.7308 116.582 61.076 116.367 61.2503 116.734C61.294 117.525 61.2951 118.318 61.2538 119.109Z" fill="#343434"/>
<path d="M92.3568 121.664C91.9443 121.596 91.5628 121.4 91.2647 121.104C90.9662 120.807 90.7658 120.425 90.6901 120.009C90.6099 119.685 90.6308 119.353 90.582 119.025C90.5384 118.268 90.5384 117.509 90.582 116.752C90.7563 116.399 91.0702 116.6 91.3107 116.6C91.5513 116.6 91.4049 116.844 91.4188 116.981C91.4275 117.149 91.4275 117.318 91.4188 117.486C91.3596 118.089 91.3596 118.697 91.4188 119.3C91.3826 119.634 91.4356 119.971 91.5722 120.277C91.7267 120.529 91.9575 120.724 92.2302 120.832C92.5029 120.941 92.8031 120.956 93.0855 120.877C93.331 120.815 93.552 120.678 93.7191 120.485C93.8857 120.292 93.9907 120.052 94.02 119.797C94.1106 119.092 94.0374 118.403 94.0618 117.705C94.0444 117.329 94.0548 116.953 94.0932 116.579C94.9265 116.579 94.9265 116.579 94.9265 117.405C94.9265 118.026 94.9265 118.643 94.9265 119.265C94.8428 119.402 94.9265 119.565 94.8603 119.702C94.6267 120.687 94.1071 121.407 93.089 121.664C92.8467 121.707 92.5991 121.707 92.3568 121.664Z" fill="#343434"/>
<path d="M75.3471 118.866C75.389 117.197 77.5333 115.923 79.2872 116.971C79.3325 117.002 79.3744 117.041 79.4232 117.069C79.8904 117.352 79.873 117.338 79.5313 117.751C79.336 117.991 79.2209 117.842 79.0605 117.733C78.1749 117.122 77.3381 117.179 76.6861 117.92C76.5633 118.023 76.464 118.152 76.3948 118.298C76.3257 118.443 76.2882 118.602 76.285 118.763C76.2178 118.994 76.2178 119.239 76.285 119.469C76.285 120.066 77.0661 120.842 77.617 120.821C77.8724 120.884 78.1392 120.884 78.3946 120.821C78.5379 120.778 78.676 120.719 78.806 120.644C79.4232 120.196 79.4441 120.39 79.8276 120.842C79.4033 121.308 78.828 121.605 78.2063 121.679C78.0155 121.719 77.8183 121.719 77.6275 121.679C76.442 121.467 75.5075 120.839 75.3506 119.462C75.3147 119.265 75.3135 119.063 75.3471 118.866Z" fill="#343434"/>
<path d="M175.574 121.665C174.982 121.65 174.415 121.416 173.98 121.008C173.545 120.6 173.271 120.046 173.21 119.449C173.172 119.228 173.172 119.003 173.21 118.782C173.301 117.261 175.302 115.899 177.14 116.972C177.199 117.007 177.255 117.049 177.314 117.088C177.485 117.197 177.775 117.243 177.548 117.554C177.367 117.801 177.231 117.988 176.875 117.713C175.829 116.908 174.738 117.427 174.225 118.291C174.059 118.622 174 118.997 174.057 119.362C174.113 119.729 174.282 120.068 174.539 120.331C175.257 121.055 175.989 120.998 176.722 120.603C176.822 120.531 176.927 120.465 177.035 120.405C177.314 120.299 177.433 120.539 177.579 120.695C177.726 120.85 177.537 120.966 177.447 121.048C177.056 121.394 176.569 121.609 176.052 121.662C175.895 121.699 175.732 121.7 175.574 121.665Z" fill="#343434"/>
<path d="M150.629 118.781C150.748 117.147 152.816 115.933 154.576 116.981C154.649 117.019 154.719 117.063 154.786 117.112C154.935 117.225 155.19 117.302 154.956 117.57C154.786 117.764 154.67 118.022 154.343 117.747C154.137 117.572 153.894 117.448 153.634 117.382C153.373 117.317 153.101 117.312 152.839 117.369C152.576 117.425 152.329 117.541 152.117 117.708C151.906 117.875 151.734 118.089 151.616 118.333C151.487 118.64 151.441 118.976 151.481 119.308C151.522 119.64 151.647 119.954 151.846 120.221C152.509 120.902 153.241 121.078 153.938 120.718C154.047 120.66 154.151 120.591 154.249 120.514C154.297 120.465 154.357 120.428 154.423 120.406C154.489 120.385 154.559 120.38 154.627 120.392C154.695 120.403 154.759 120.43 154.814 120.472C154.87 120.513 154.915 120.568 154.946 120.63C155.071 120.8 155.054 120.874 154.922 121.004C154.523 121.375 154.017 121.607 153.478 121.664C153.317 121.707 153.147 121.707 152.986 121.664C151.679 121.555 150.737 120.68 150.619 119.444C150.587 119.224 150.591 119 150.629 118.781Z" fill="#343434"/>
<path d="M102.468 116.625C101.826 117.786 101.439 119.042 100.961 120.26C100.812 120.634 100.669 121.012 100.543 121.393C100.39 121.845 100.024 121.569 99.7585 121.636C99.4935 121.703 99.4935 121.52 99.4482 121.319C99.2181 120.295 98.709 119.385 98.3011 118.432C98.0779 117.917 97.8478 117.401 97.663 116.868C97.5723 116.611 97.663 116.6 97.8722 116.572C97.9614 116.543 98.0556 116.536 98.1483 116.549C98.2407 116.563 98.3289 116.597 98.4064 116.65C98.4838 116.703 98.5483 116.774 98.5953 116.855C98.6424 116.937 98.6707 117.028 98.6776 117.123C98.967 118.213 99.5458 119.201 99.8666 120.299C99.8945 120.387 99.9363 120.465 100.027 120.468C100.118 120.472 100.107 120.348 100.135 120.278L101.338 117.288C101.351 117.263 101.361 117.238 101.369 117.211C101.645 116.501 101.645 116.501 102.468 116.625Z" fill="#343434"/>
<path d="M205.188 117.339H204.188C203.598 117.339 203.665 117.265 203.665 117.889C203.665 119.001 203.665 120.113 203.665 121.221C203.665 121.602 203.529 121.651 203.208 121.651C202.887 121.651 202.741 121.602 202.748 121.221C202.775 120.113 202.748 119.001 202.748 117.889C202.748 117.265 202.814 117.346 202.225 117.339H201.224C201.171 117.089 201.171 116.83 201.224 116.58H205.171C205.225 116.83 205.231 117.087 205.188 117.339Z" fill="#343434"/>
<path d="M47.4461 117.339H46.4454C45.8561 117.339 45.9259 117.265 45.9224 117.889C45.9224 119.001 45.9049 120.113 45.9224 121.221C45.9224 121.602 45.7829 121.651 45.4621 121.651C45.1413 121.651 44.9949 121.602 45.0053 121.221C45.0297 120.113 45.0053 119.001 45.0053 117.889C45.0053 117.265 45.0716 117.346 44.4823 117.339H43.4816C43.4293 117.089 43.4293 116.83 43.4816 116.58H47.4286C47.4867 116.829 47.4927 117.088 47.4461 117.339Z" fill="#343434"/>
<path d="M121.121 119.523C121.121 120.13 121.121 120.737 121.121 121.34C121.121 121.732 120.877 121.629 120.675 121.64C120.473 121.651 120.267 121.686 120.274 121.34C120.291 120.13 120.274 118.919 120.274 117.705C120.274 117.409 120.19 117.31 119.897 117.335C119.604 117.359 119.256 117.335 118.938 117.335C118.621 117.335 118.701 117.102 118.691 116.925C118.68 116.749 118.649 116.572 118.945 116.572C120.114 116.572 121.285 116.572 122.457 116.572C122.805 116.572 122.669 116.823 122.687 116.989C122.704 117.155 122.718 117.342 122.429 117.342C122.08 117.32 121.731 117.342 121.383 117.342C121.167 117.342 121.093 117.409 121.097 117.631C121.132 118.256 121.121 118.891 121.121 119.523Z" fill="#343434"/>
<path d="M192.537 121.08C192.537 121.638 192.537 121.638 191.976 121.638C191.279 121.638 190.553 121.638 189.846 121.638C189.615 121.638 189.528 121.578 189.528 121.331C189.528 119.838 189.528 118.349 189.528 116.856C189.528 116.45 189.793 116.591 189.985 116.577C190.177 116.563 190.386 116.528 190.379 116.877C190.358 118.031 190.379 119.185 190.379 120.339C190.379 120.491 190.4 120.646 190.41 120.798C191 120.854 191.594 120.869 192.185 120.84C192.36 120.847 192.51 120.858 192.537 121.08Z" fill="#343434"/>
<path fill-rule="evenodd" clip-rule="evenodd" d="M121.523 93.3356C122.279 99.9351 127.133 105.056 133.758 105.688C133.861 105.718 133.967 105.717 134.073 105.716C134.223 105.715 134.375 105.714 134.521 105.8H135.327C135.459 105.752 135.596 105.758 135.733 105.763C135.854 105.769 135.976 105.774 136.094 105.74C136.531 105.706 136.966 105.641 137.395 105.546C139.037 105.217 140.609 104.591 142.032 103.697C142.72 103.197 143.378 102.657 144.002 102.077L144.006 102.074C144.515 101.643 144.529 101.63 144.957 102.116C145.246 102.412 145.565 102.675 145.909 102.903C147.954 104.516 150.416 105.496 152.998 105.726C153.109 105.756 153.223 105.752 153.337 105.747C153.477 105.741 153.616 105.735 153.751 105.793H154.49C154.624 105.741 154.764 105.747 154.903 105.754C155.017 105.759 155.132 105.764 155.243 105.737C157.045 105.573 158.796 105.043 160.39 104.177C161.795 103.433 163.046 102.423 164.075 101.202C166.11 98.8157 167.333 95.83 167.562 92.6863C167.595 92.2681 167.595 91.848 167.562 91.4299C167.444 90.0831 167.174 88.7545 166.757 87.4702C166.281 86.07 165.562 84.7672 164.633 83.6235C163.734 82.4439 162.648 81.4242 161.418 80.6061C159.472 79.3094 157.229 78.5424 154.905 78.3792C154.352 78.3439 153.798 78.3439 153.245 78.3792C153.096 78.399 152.946 78.4173 152.797 78.4355C152.493 78.4726 152.19 78.5095 151.889 78.5592C149.177 78.956 146.668 80.24 144.745 82.2154C144.539 82.4306 144.431 82.4059 144.246 82.2154C143.942 81.9073 143.622 81.6163 143.287 81.3437C141.084 79.5579 138.545 78.6756 135.756 78.3827C135.285 78.3386 134.811 78.3386 134.34 78.3827H133.59C133.521 78.4342 133.443 78.4301 133.365 78.4259C133.299 78.4224 133.233 78.4189 133.172 78.4498L132.562 78.5592C131.27 78.7573 130.02 79.1674 128.859 79.7732C126.249 81.1593 124.134 83.3375 122.809 86.0021C122.079 87.478 121.641 89.0847 121.523 90.7311C121.494 90.8186 121.499 90.9098 121.503 91.0009C121.508 91.1119 121.513 91.2229 121.46 91.3275V92.7392C121.513 92.8426 121.507 92.9523 121.502 93.062C121.497 93.1545 121.492 93.2469 121.523 93.3356ZM127.136 102.074C129.533 103.96 132.505 104.941 135.54 104.848C137.883 104.89 140.655 103.711 143.151 101.77C143.354 101.599 143.539 101.406 143.702 101.195C143.777 101.126 143.821 101.029 143.826 100.927C143.83 100.824 143.794 100.724 143.726 100.648C143.554 100.373 143.36 100.118 143.167 99.8642C142.926 99.5472 142.686 99.2322 142.492 98.8834C140.938 96.1849 140.355 93.0249 140.843 89.9406C141.192 87.7631 141.889 85.7445 143.284 84.0258C143.403 83.8813 143.5 83.7198 143.597 83.558C143.659 83.455 143.721 83.3518 143.789 83.2529C143.812 83.2281 143.829 83.1986 143.839 83.1665C143.85 83.1343 143.853 83.1002 143.849 83.0667C143.845 83.0331 143.834 83.0008 143.816 82.972C143.799 82.9432 143.775 82.9186 143.747 82.9C143.243 82.3939 142.706 81.9224 142.14 81.4883C139.464 79.626 136.186 78.8685 132.977 79.3709C130.457 79.7058 128.114 80.863 126.303 82.6671C123.064 85.9139 121.631 89.8524 122.569 94.4614C123.189 97.5176 124.588 100.164 127.136 102.074ZM153.947 79.3533C159.933 79.3533 165.087 83.1965 166.38 89.5595C167.297 94.0555 166.091 97.9623 162.894 101.167C161.777 102.328 160.444 103.253 158.972 103.889C157.499 104.525 155.917 104.86 154.316 104.872C151.066 104.897 148.204 103.704 145.731 101.566C145.105 101.02 145.114 101.008 145.553 100.39L145.592 100.334C147.142 98.2418 148.09 95.7559 148.329 93.1521C148.629 89.4501 147.5 86.1997 145.265 83.3059C145.122 83.1223 145.146 83.0412 145.296 82.8929C147.079 81.128 149.349 79.9506 151.806 79.5156C152.512 79.3937 153.229 79.3394 153.947 79.3533ZM146.056 98.1847C147.002 96.2669 147.495 94.1525 147.496 92.0087L147.506 92.0051C147.504 89.0838 146.52 86.2501 144.717 83.9694C144.602 83.8353 144.515 83.7435 144.347 83.9694C143.635 84.8897 143.034 85.8933 142.558 86.9585C141.15 90.3147 141.22 93.6921 142.586 97.0412C142.981 98.142 143.58 99.1565 144.351 100.03C144.501 100.189 144.588 100.207 144.741 100.03C145.253 99.4727 145.695 98.8527 146.056 98.1847Z" fill="#343434"/>
<path fill-rule="evenodd" clip-rule="evenodd" d="M173.342 96.3495C176.142 96.3672 178.953 96.3672 181.742 96.3672C181.876 96.3119 182.014 96.3194 182.153 96.3269C182.272 96.3333 182.392 96.3397 182.509 96.3072L182.917 96.2895C182.981 96.2564 183.052 96.2391 183.124 96.2391C183.197 96.2391 183.268 96.2564 183.332 96.2895C183.755 96.7848 184.136 97.3148 184.472 97.8741C185.65 99.5821 186.838 101.284 188.026 102.985C188.62 103.836 189.214 104.688 189.807 105.539C189.845 105.606 189.901 105.661 189.968 105.698C190.035 105.735 190.111 105.752 190.187 105.748H190.957C190.965 105.693 190.961 105.638 190.944 105.586C190.927 105.534 190.898 105.486 190.86 105.448C189.626 103.754 188.427 102.04 187.265 100.306C186.376 98.9858 185.448 97.6941 184.517 96.406C184.287 96.0884 184.423 95.9931 184.692 95.8907C184.765 95.8637 184.839 95.8369 184.912 95.8102C185.242 95.6902 185.57 95.5711 185.895 95.4355C187.213 94.9357 188.378 94.0935 189.273 92.9933C190.333 91.624 190.78 90.0289 190.975 88.3384C191.017 87.665 191.017 86.9896 190.975 86.3162C190.946 86.1554 190.919 85.9942 190.893 85.8331C190.835 85.4849 190.778 85.1366 190.699 84.7917C190.229 82.706 189.186 80.9908 187.31 79.8827C186.135 79.2029 184.849 78.7415 183.513 78.5204C183.421 78.491 183.326 78.4941 183.232 78.4972C183.122 78.5008 183.013 78.5043 182.91 78.4569L182.091 78.4322C182.023 78.4037 181.952 78.4055 181.881 78.4072C181.803 78.4092 181.725 78.4111 181.651 78.3722L181.337 78.351C181.272 78.3276 181.202 78.318 181.132 78.3228H172.331C172.312 78.3228 172.292 78.3212 172.272 78.3196C172.198 78.3137 172.121 78.3076 172.063 78.3828V78.9333V105.179C172.063 105.217 172.062 105.258 172.062 105.298C172.061 105.378 172.06 105.458 172.063 105.515L172.063 105.524C172.066 105.605 172.069 105.682 172.157 105.73C172.238 105.779 172.33 105.805 172.425 105.806C172.519 105.807 172.612 105.782 172.694 105.734C172.776 105.686 172.844 105.617 172.89 105.534C172.936 105.45 172.96 105.356 172.959 105.261V96.766C172.955 96.466 172.994 96.3495 173.342 96.3495ZM172.962 79.625V87.3185C172.962 88.1793 172.963 89.0398 172.964 89.8993C172.965 91.6156 172.967 93.3283 172.962 95.0331C172.962 95.3402 173.036 95.439 173.356 95.439C173.655 95.4284 173.956 95.4369 174.256 95.4453C174.457 95.451 174.658 95.4566 174.859 95.4566C175.256 95.463 175.653 95.4712 176.05 95.4793C178.481 95.5289 180.913 95.5786 183.328 95.2449C185.009 95.012 186.568 94.4332 187.798 93.2298C190.027 91.0488 190.532 88.3172 189.988 85.3457C189.831 84.3676 189.464 83.4365 188.912 82.618C188.36 81.7996 187.637 81.114 186.794 80.6096C185.044 79.5509 183.098 79.2721 181.104 79.198C179.386 79.1415 177.668 79.1603 175.95 79.1792C175.092 79.1886 174.233 79.198 173.374 79.198C173.036 79.1945 172.962 79.3039 172.962 79.625Z" fill="#343434"/>
<path fill-rule="evenodd" clip-rule="evenodd" d="M115.848 121.622C115.947 121.615 116.046 121.615 116.144 121.622C116.052 121.478 115.966 121.338 115.882 121.202C115.692 120.895 115.514 120.608 115.311 120.334C115.105 120.066 115.13 119.935 115.405 119.713C115.688 119.515 115.903 119.232 116.02 118.904C116.137 118.576 116.15 118.22 116.057 117.885C115.979 117.549 115.798 117.247 115.539 117.022C115.28 116.798 114.957 116.662 114.617 116.635C114.192 116.569 113.768 116.573 113.346 116.578C113.047 116.58 112.749 116.583 112.452 116.561C112.155 116.54 112.079 116.639 112.079 116.935C112.079 117.414 112.081 117.893 112.084 118.372C112.088 119.331 112.093 120.29 112.079 121.248C112.075 121.583 112.211 121.643 112.49 121.636C112.769 121.629 112.961 121.594 112.936 121.241C112.931 121.157 112.917 121.066 112.904 120.972C112.86 120.673 112.813 120.354 112.999 120.182C113.163 120.031 113.429 120.06 113.699 120.089C113.833 120.104 113.967 120.119 114.091 120.112H114.132C114.186 120.101 114.242 120.11 114.29 120.137C114.338 120.164 114.375 120.208 114.394 120.26C114.452 120.371 114.52 120.478 114.587 120.585C114.684 120.736 114.78 120.887 114.847 121.05C114.875 121.155 114.923 121.253 114.989 121.338C115.054 121.424 115.136 121.495 115.229 121.549C115.322 121.602 115.425 121.636 115.531 121.649C115.638 121.661 115.745 121.652 115.848 121.622ZM113.902 117.345C112.929 117.32 112.929 117.324 112.929 118.319C112.929 118.385 112.931 118.452 112.931 118.519C112.934 118.675 112.936 118.832 112.926 118.993C112.912 119.222 112.978 119.314 113.226 119.314C113.399 119.306 113.574 119.307 113.749 119.309C113.965 119.311 114.181 119.312 114.394 119.296C114.513 119.304 114.633 119.286 114.744 119.243C114.856 119.2 114.957 119.134 115.041 119.048C115.125 118.962 115.19 118.858 115.231 118.745C115.272 118.631 115.289 118.51 115.28 118.389C115.3 117.8 115.077 117.525 114.478 117.412C114.288 117.376 114.095 117.353 113.902 117.345Z" fill="#343434"/>
<path fill-rule="evenodd" clip-rule="evenodd" d="M53.2085 119.837C53.6222 119.572 53.925 119.163 54.0593 118.686C54.1038 118.469 54.1073 118.245 54.0698 118.026C54.0062 117.658 53.822 117.322 53.5468 117.073C53.2716 116.824 52.9215 116.676 52.5531 116.653C52.0861 116.585 51.6217 116.589 51.1583 116.594C50.8605 116.597 50.5631 116.599 50.2657 116.583C50.067 116.572 50.0391 116.678 50.0391 116.844V121.4C50.0391 121.688 50.1973 121.668 50.3513 121.649C50.3992 121.642 50.4467 121.636 50.4889 121.64C50.5081 121.641 50.5278 121.644 50.5476 121.646C50.7103 121.663 50.8794 121.681 50.8794 121.382V120.373C50.8759 120.221 50.9142 120.154 51.0851 120.133C52.1486 119.992 52.3264 120.084 52.7971 121.026C52.8346 121.1 52.8788 121.171 52.9233 121.242C52.9739 121.324 53.0247 121.405 53.0656 121.492C53.0857 121.543 53.1218 121.586 53.1684 121.615C53.2149 121.644 53.2694 121.656 53.3236 121.651H54.1221C53.8501 121.159 53.5449 120.687 53.2085 120.239C53.0935 120.101 52.9854 119.964 53.2085 119.837ZM52.5253 117.419C52.2266 117.354 51.9208 117.326 51.6153 117.338C51.5588 117.338 51.5044 117.339 51.4505 117.34C51.3448 117.343 51.2415 117.345 51.1306 117.338C50.9633 117.327 50.8796 117.377 50.8796 117.567V119.081C50.8761 119.261 50.9493 119.343 51.1201 119.343C51.5857 119.38 52.0541 119.359 52.5148 119.283C52.7294 119.246 52.923 119.13 53.0593 118.959C53.1955 118.787 53.2648 118.571 53.254 118.351C53.2715 118.131 53.2061 117.913 53.0709 117.74C52.9356 117.567 52.7407 117.452 52.5253 117.419Z" fill="#343434"/>
<path fill-rule="evenodd" clip-rule="evenodd" d="M135.433 116.693C135.345 116.679 135.256 116.663 135.167 116.651C135.088 116.617 135.006 116.62 134.923 116.623C134.83 116.626 134.738 116.629 134.65 116.58H133.155C133.132 116.631 133.121 116.687 133.123 116.742V121.408C133.123 121.421 133.123 121.435 133.122 121.449C133.119 121.519 133.116 121.591 133.186 121.641H133.395C133.998 121.637 133.998 121.637 133.998 121.006C133.998 120.57 133.998 120.352 134.106 120.243C134.214 120.134 134.429 120.134 134.86 120.134C134.902 120.134 134.945 120.13 134.989 120.126C135.152 120.113 135.32 120.099 135.435 120.272C135.634 120.537 135.82 120.812 135.989 121.097C136.307 121.694 136.453 121.764 137.185 121.563C137.103 121.436 137.024 121.309 136.945 121.182C136.766 120.894 136.588 120.609 136.387 120.339C136.178 120.063 136.209 119.94 136.495 119.732C136.769 119.551 136.977 119.283 137.085 118.97C137.194 118.657 137.197 118.317 137.095 118.002C136.92 117.364 136.659 116.827 135.906 116.76C135.747 116.747 135.591 116.72 135.433 116.693ZM134.999 117.346C133.998 117.318 133.998 117.321 133.998 118.331C133.998 119.312 133.998 119.312 134.978 119.305H135.435C136.035 119.255 136.314 119.029 136.349 118.419C136.383 117.808 136.157 117.526 135.536 117.413C135.359 117.377 135.18 117.354 134.999 117.346Z" fill="#343434"/>
<path fill-rule="evenodd" clip-rule="evenodd" d="M166.076 117.782C165.918 118.034 165.815 118.317 165.773 118.612C165.729 118.944 165.727 119.281 165.769 119.614C165.865 120.152 166.131 120.643 166.528 121.013C166.924 121.384 167.429 121.614 167.966 121.668C168.184 121.703 168.407 121.703 168.625 121.668C168.983 121.614 169.326 121.482 169.629 121.281C169.932 121.08 170.188 120.816 170.381 120.505C170.574 120.195 170.698 119.846 170.745 119.483C170.792 119.12 170.761 118.75 170.654 118.4C170.104 116.734 168.245 116.138 166.686 117.151C166.441 117.316 166.233 117.531 166.076 117.782ZM168.092 120.909C169.012 120.941 169.992 120.02 169.898 119.145C169.909 118.91 169.873 118.676 169.792 118.456C169.711 118.237 169.587 118.036 169.427 117.867C169.267 117.697 169.074 117.563 168.86 117.471C168.647 117.38 168.418 117.333 168.186 117.334C167.954 117.324 167.723 117.361 167.505 117.443C167.288 117.525 167.089 117.65 166.919 117.811C166.75 117.971 166.614 118.165 166.52 118.379C166.425 118.594 166.374 118.825 166.37 119.06C166.366 119.533 166.543 119.99 166.864 120.334C167.185 120.679 167.625 120.885 168.092 120.909Z" fill="#343434"/>
<path fill-rule="evenodd" clip-rule="evenodd" d="M184.672 120.996C185.066 120.628 185.337 120.147 185.45 119.618C185.496 119.311 185.498 119 185.457 118.693C185.448 118.669 185.436 118.646 185.424 118.623C185.402 118.581 185.38 118.539 185.38 118.495C185.266 118.068 185.044 117.677 184.737 117.362C184.43 117.046 184.048 116.816 183.627 116.694C183.206 116.572 182.762 116.561 182.336 116.663C181.91 116.765 181.518 116.977 181.196 117.278C180.38 117.98 180.258 118.922 180.523 119.907C180.655 120.377 180.922 120.796 181.291 121.111C181.661 121.426 182.115 121.621 182.594 121.672C182.813 121.705 183.035 121.705 183.253 121.672C183.784 121.6 184.279 121.364 184.672 120.996ZM182.845 117.317C181.918 117.267 181.011 118.128 181.074 119.032C181.06 119.988 181.9 120.987 182.723 120.983C183.438 120.983 184.589 120.271 184.589 119.18C184.599 118.7 184.422 118.235 184.095 117.886C183.769 117.537 183.32 117.333 182.845 117.317Z" fill="#343434"/>
<path fill-rule="evenodd" clip-rule="evenodd" d="M86.9706 120.825C87.2948 120.462 87.5117 120.014 87.5971 119.532C87.6397 119.31 87.6397 119.081 87.5971 118.858C87.5413 118.671 87.4855 118.484 87.4263 118.301C87.2802 117.884 87.0295 117.512 86.6993 117.223C86.3687 116.933 85.9699 116.735 85.5413 116.648C85.1128 116.561 84.6693 116.587 84.254 116.726C83.8387 116.864 83.466 117.109 83.1724 117.436C82.8708 117.787 82.6686 118.214 82.588 118.671C82.5071 119.129 82.5504 119.6 82.7132 120.034C82.876 120.469 83.1522 120.851 83.5124 121.139C83.8726 121.427 84.3035 121.611 84.7589 121.671C84.9758 121.706 85.1972 121.706 85.4144 121.671C85.4583 121.66 85.5044 121.649 85.5518 121.639C85.6208 121.623 85.6927 121.608 85.7631 121.586C86.2279 121.452 86.6463 121.188 86.9706 120.825ZM85.6132 117.444C85.3886 117.357 85.1491 117.317 84.9088 117.327C84.0476 117.217 83.1654 118.202 83.2003 119.123C83.2324 119.594 83.429 120.037 83.7547 120.374C84.0807 120.711 84.5145 120.919 84.9786 120.962C85.4482 120.947 85.8942 120.749 86.224 120.41C86.5535 120.071 86.7418 119.616 86.7498 119.141C86.7526 118.898 86.707 118.656 86.6149 118.431C86.5228 118.207 86.3865 118.003 86.2143 117.834C86.042 117.664 85.8374 117.531 85.6132 117.444Z" fill="#343434"/>
<path fill-rule="evenodd" clip-rule="evenodd" d="M195.718 120.943C195.769 120.793 195.819 120.644 195.96 120.545C196.768 120.479 197.58 120.482 198.387 120.553C198.463 120.576 198.47 120.635 198.478 120.696C198.48 120.717 198.483 120.737 198.488 120.757C198.684 121.562 198.792 121.643 199.381 121.643C199.691 121.647 199.775 121.594 199.632 121.269C199.011 119.886 198.408 118.506 197.812 117.094C197.778 116.99 197.724 116.893 197.653 116.81C197.581 116.727 197.494 116.66 197.397 116.612C197.299 116.564 197.193 116.536 197.085 116.53C196.976 116.525 196.868 116.541 196.766 116.579C196.684 116.606 196.67 116.654 196.655 116.709C196.649 116.726 196.645 116.744 196.637 116.762L196.635 116.765C196.427 117.262 196.218 117.759 196.002 118.252C195.537 119.303 195.072 120.354 194.608 121.403C194.555 121.519 194.531 121.608 194.709 121.639C194.885 121.66 195.064 121.629 195.224 121.55C195.384 121.471 195.518 121.348 195.612 121.195C195.659 121.117 195.688 121.03 195.718 120.943ZM197.655 118.678C197.519 118.315 197.381 117.947 197.174 117.595C196.797 118.166 196.514 118.796 196.337 119.458C196.278 119.635 196.316 119.72 196.515 119.72H197.843C198.004 119.72 198.105 119.709 198.004 119.511C197.867 119.244 197.762 118.963 197.655 118.678Z" fill="#343434"/>
</svg>
