<svg width="261" height="200" viewBox="0 0 261 200" fill="none" xmlns="http://www.w3.org/2000/svg">
<path d="M37.7427 100.221C37.7427 92.7121 43.4023 87.5938 50.9353 87.5938C53.645 87.5938 55.3208 87.8952 57.6979 89.0648V95.4341C56.1571 94.2675 54.4483 93.3783 51.2679 93.3783C46.9153 93.3783 44.5053 96.3022 44.5053 100.275C44.5053 104.046 47.5507 106.551 51.6037 106.551C54.0796 106.551 55.9233 105.647 57.6288 104.619V110.789C55.5216 111.648 53.8458 112.354 51.1691 112.354C43.7678 112.354 37.7427 107.455 37.7427 100.221Z" fill="#343434"/>
<path d="M58.3501 99.9672C58.3501 92.4585 64.711 87.4004 72.5074 87.4004C80.5409 87.4004 86.6351 92.8262 86.6351 99.7592C86.6351 107.358 80.34 112.6 72.4778 112.6C64.1776 112.597 58.3501 107.202 58.3501 99.9672ZM72.4811 93.1638C68.201 93.1638 65.1127 96.0757 65.1127 100.061C65.1127 104.046 68.0923 106.852 72.4613 106.852C76.8303 106.852 79.8956 103.973 79.8956 99.8647C79.8791 96.1058 76.7414 93.1638 72.4811 93.1638Z" fill="#343434"/>
<path d="M96.4449 103.464H95.1049V111.739H88.4082V88.2598H98.6146C103.168 88.2598 107.386 90.62 107.386 95.6178C107.386 98.8341 105.845 101.01 102.967 102.023C103.626 102.928 109.829 111.739 109.829 111.739H101.828C101.828 111.739 97.1792 104.537 96.4449 103.464ZM94.97 92.9501V98.8341H97.1133C98.9538 98.8341 100.56 98.1288 100.56 95.8921C100.56 93.8996 99.3916 92.9501 97.1792 92.9501H94.97Z" fill="#343434"/>
<path d="M117.939 101.472V111.739H111.242V88.2598H117.939V98.2524L125.439 88.2598H133.407L124.234 99.3556L135.148 111.739H126.509L117.939 101.472Z" fill="#343434"/>
<path d="M131.168 100.221C131.168 92.7121 136.825 87.5938 144.358 87.5938C147.071 87.5938 148.743 87.8952 151.12 89.0648V95.4341C149.58 94.2675 147.874 93.3783 144.69 93.3783C140.341 93.3783 137.928 96.2902 137.928 100.275C137.928 104.046 140.977 106.56 145.026 106.56C147.505 106.56 149.346 105.656 151.055 104.628V110.789C148.944 111.648 147.272 112.354 144.592 112.354C137.194 112.354 131.168 107.455 131.168 100.221Z" fill="#343434"/>
<path d="M159.748 111.739H153.051V88.2598H159.748V111.739Z" fill="#343434"/>
<path d="M161.469 100.221C161.469 92.7121 167.126 87.5938 174.659 87.5938C177.372 87.5938 179.044 87.8952 181.421 89.0648V95.4341C179.884 94.2675 178.175 93.3783 174.994 93.3783C170.642 93.3783 168.232 96.2902 168.232 100.275C168.232 104.046 171.277 106.56 175.33 106.56C177.806 106.56 179.647 105.656 181.355 104.628V110.789C179.245 111.648 177.572 112.354 174.892 112.354C167.494 112.354 161.469 107.455 161.469 100.221Z" fill="#343434"/>
<path d="M198.004 111.739H183.208V88.2598H189.905V106.406H198.004V111.739Z" fill="#343434"/>
<path d="M199.365 111.739V88.2598H214.23V93.5891H206.061V97.3933H213.762V102.605H206.061V106.524H214.362V111.733L199.365 111.739Z" fill="#343434"/>
<path d="M219.546 105.547C220.308 105.549 221.051 105.758 221.683 106.147C222.315 106.536 222.806 107.088 223.096 107.732C223.385 108.377 223.46 109.086 223.31 109.769C223.16 110.452 222.792 111.08 222.252 111.572C221.713 112.064 221.027 112.398 220.28 112.534C219.533 112.669 218.759 112.598 218.056 112.331C217.353 112.064 216.752 111.612 216.329 111.032C215.907 110.452 215.681 109.771 215.681 109.074C215.686 108.138 216.096 107.242 216.82 106.581C217.544 105.92 218.524 105.548 219.546 105.547Z" fill="#343434"/>
<path d="M217.103 88.2598C217.4 88.2587 217.69 88.3379 217.939 88.4876C218.187 88.6373 218.381 88.8507 218.497 89.1011C218.613 89.3515 218.646 89.6277 218.591 89.8951C218.536 90.1624 218.396 90.409 218.189 90.6038C217.981 90.7986 217.716 90.933 217.425 90.9901C217.135 91.0473 216.832 91.0245 216.556 90.9248C216.28 90.8251 216.042 90.6529 215.872 90.4297C215.702 90.2066 215.608 89.9424 215.601 89.6705C215.599 89.4876 215.635 89.306 215.709 89.1362C215.783 88.9663 215.893 88.8114 216.033 88.6804C216.172 88.5494 216.338 88.4449 216.522 88.3727C216.705 88.3005 216.903 88.2621 217.103 88.2598ZM215.822 89.6373C215.82 89.8714 215.894 90.1008 216.034 90.2963C216.175 90.4918 216.376 90.6446 216.612 90.7354C216.847 90.8263 217.107 90.851 217.358 90.8064C217.609 90.7618 217.84 90.65 218.021 90.4851C218.203 90.3202 218.327 90.1097 218.377 89.8803C218.428 89.6508 218.403 89.4127 218.306 89.1963C218.208 88.9799 218.043 88.7948 217.83 88.6645C217.618 88.5343 217.368 88.4648 217.112 88.4648C216.772 88.4647 216.445 88.588 216.203 88.8076C215.962 89.0273 215.824 89.3255 215.822 89.6373ZM217.188 88.8988C217.517 88.8988 217.738 89.0104 217.738 89.3299C217.748 89.4175 217.724 89.5056 217.671 89.5789C217.617 89.6521 217.537 89.7059 217.445 89.7308L217.738 90.3337H217.471L217.214 89.7308H216.833V90.3337H216.599V88.8988H217.188ZM216.829 89.559H217.159C217.425 89.559 217.488 89.4926 217.488 89.3178C217.488 89.143 217.379 89.1038 217.175 89.1038H216.829V89.559Z" fill="#343434"/>
</svg>
