<svg width="261" height="200" viewBox="0 0 261 200" fill="none" xmlns="http://www.w3.org/2000/svg">
<path fill-rule="evenodd" clip-rule="evenodd" d="M35.9244 104.498C35.5478 101.993 35.4648 99.4543 35.6769 96.931C36.5863 92.5115 38.5404 88.6385 42.0744 85.6483C48.2072 80.4609 56.9818 79.3287 63.9463 82.7757C71.0834 86.3069 75.4577 93.7699 74.8246 101.353C74.1656 109.259 68.8645 115.786 61.0598 118.297C50.8289 121.59 39.2225 115.565 36.2352 105.406C36.1733 105.201 36.0988 104.991 36.0234 104.779L36.0233 104.779C35.9902 104.686 35.9569 104.592 35.9244 104.498ZM53.2781 116.705C57.2035 112.277 57.0884 107.319 55.8077 102.219C55.1454 99.5308 53.8387 97.0338 51.9946 94.9323C51.396 94.2485 51.419 93.8758 52.055 93.2508C56.3948 88.9658 61.5836 87.6123 67.5667 88.8313C67.8466 88.8894 68.1116 89.0014 68.3464 89.1607C68.5812 89.32 68.7808 89.5234 68.9337 89.7589C72.9167 95.277 73.8261 101.162 70.7583 107.297C67.7077 113.378 62.4844 116.503 55.5718 116.974C54.7963 117.038 54.0156 116.947 53.2781 116.705ZM49.1473 96.7884C46.7562 100.459 45.3738 104.667 45.1327 109.007C45.1183 110.619 45.3457 112.174 46.1342 113.614C46.3989 114.14 46.7927 114.593 47.2806 114.935C47.7685 115.276 48.3355 115.495 48.9311 115.572C49.5268 115.648 50.1326 115.581 50.695 115.375C51.2573 115.169 51.7588 114.831 52.1547 114.391C53.0058 113.497 53.5882 112.393 53.8383 111.199C54.9923 105.86 53.6714 101.076 50.4251 96.7043C49.8582 95.9477 49.5762 96.1158 49.1473 96.7884ZM43.1176 112.045C40.7815 109.988 39.1274 107.3 38.3663 104.324C37.241 100.12 37.808 96.0231 39.7707 92.1081C40.2484 91.1552 40.8297 90.8077 41.9032 91.186C43.7537 91.839 45.5495 92.5565 47.1812 93.655C47.8834 94.1286 47.9928 94.4425 47.469 95.1684C45.0688 98.4917 43.526 102.329 42.9709 106.356C42.7043 108.247 42.7539 110.169 43.1176 112.045ZM51.2909 90.7685C55.0638 87.4672 59.4813 85.8894 64.9004 86.066C56.2207 80.2564 45.5352 84.1379 42.335 88.9693C44.1956 89.3994 45.9723 90.1206 47.5957 91.1048L47.6216 91.1201C49.5642 92.2707 49.5718 92.2752 51.2909 90.7685Z" fill="#343434"/>
<path fill-rule="evenodd" clip-rule="evenodd" d="M172.968 95.4786C172.808 95.5762 172.642 95.6774 172.468 95.7811V92.0425C172.468 89.8479 172.468 89.8479 170.289 89.9346L170.206 89.9379C169.466 89.9687 169.221 90.1845 169.221 90.9188C169.239 95.9042 169.239 100.892 169.239 105.878V105.878C169.239 105.939 169.235 106.001 169.231 106.063C169.214 106.321 169.197 106.584 169.463 106.778C170.232 107.35 172.229 106.697 172.534 105.763C174.833 108.092 179.257 107.369 180.842 104.382C181.855 102.468 181.927 100.436 181.352 98.3957C180.566 95.5652 178.431 94.1752 175.458 94.4275C174.569 94.5035 173.865 94.9327 172.968 95.4786ZM178.506 100.815C178.495 98.6094 177.297 97.1521 175.487 97.1353C173.625 97.1212 172.388 98.5225 172.353 100.706C172.319 102.889 173.663 104.525 175.447 104.503C177.231 104.481 178.506 102.928 178.506 100.815ZM206.525 94.4185C204.585 94.2279 202.993 94.8781 201.675 96.2485C201.617 96.1528 201.564 96.0858 201.524 96.0339C201.488 95.9886 201.461 95.9548 201.448 95.9234C201.639 94.5844 200.898 94.6201 200.153 94.6559C199.921 94.667 199.69 94.6782 199.485 94.6483C198.314 94.4773 198.314 95.1612 198.314 96.0019C198.322 97.3071 198.32 98.614 198.319 99.9214C198.317 101.556 198.315 103.191 198.331 104.824C198.335 105.198 198.323 105.503 198.313 105.752C198.294 106.241 198.283 106.515 198.413 106.671C198.579 106.869 198.974 106.876 199.873 106.892C200.053 106.895 200.253 106.898 200.475 106.904C201.411 106.926 201.601 106.553 201.575 105.743C201.55 104.684 201.558 103.625 201.566 102.566V102.566V102.566V102.566V102.566V102.566V102.566V102.566V102.566C201.57 102.036 201.575 101.508 201.575 100.979C201.578 99.7993 201.957 98.7708 202.91 98.0057C203.816 97.2854 204.847 96.9632 205.978 97.4452C206.967 97.8652 206.964 98.7655 206.962 99.6095L206.962 99.7292C206.974 100.572 206.972 101.414 206.97 102.257V102.258V102.258V102.258V102.258V102.258V102.258V102.258V102.259V102.259C206.968 103.284 206.966 104.31 206.988 105.334C206.99 105.459 206.97 105.602 206.95 105.748L206.95 105.748C206.888 106.195 206.821 106.677 207.359 106.8C208.019 106.95 208.73 106.893 209.437 106.836C209.599 106.823 209.762 106.81 209.923 106.8C210.185 106.783 210.211 106.461 210.211 106.223C210.179 105.211 210.2 104.197 210.221 103.184V103.184C210.261 101.257 210.301 99.3311 209.978 97.4171C209.69 95.6404 208.358 94.5979 206.525 94.4185ZM104.747 106.77C105.595 106.439 106.34 105.899 106.911 105.205C106.945 105.277 106.981 105.334 107.01 105.381L107.01 105.381C107.052 105.448 107.081 105.494 107.078 105.535C106.866 106.938 107.637 106.912 108.432 106.886H108.432C108.663 106.878 108.895 106.87 109.107 106.897C110.236 107.044 110.202 106.416 110.168 105.791C110.163 105.685 110.157 105.579 110.157 105.477V96.6544C110.157 94.6131 110.157 94.6131 108.118 94.6325L107.976 94.6338C107.101 94.6422 106.942 94.9729 106.963 95.7156C106.997 97.2541 106.98 98.7955 106.963 100.337C106.951 101.707 106.522 102.901 105.328 103.742C104.499 104.319 103.555 104.504 102.617 104.075C101.751 103.677 101.687 102.825 101.687 102.018V96.6936V96.6854C101.687 95.6051 101.687 95.0593 101.415 94.7994C101.137 94.534 100.574 94.5666 99.4376 94.6326L99.3679 94.6366C98.7089 94.6759 98.4413 94.8524 98.4413 95.5362C98.4591 96.5772 98.4514 97.6181 98.4437 98.659C98.4328 100.14 98.4219 101.622 98.4844 103.103C98.5823 105.524 99.9176 106.892 102.073 107.096C102.979 107.214 103.9 107.102 104.747 106.77ZM91.489 96.7394C92.4646 95.6465 93.4805 94.7917 94.9194 94.5115C95.6706 94.3685 96.1483 94.5311 96.0706 95.4111C96.0332 95.8288 96.0332 96.2489 96.0706 96.6666C96.1224 97.2859 95.9612 97.5409 95.2303 97.5998C93.1697 97.7651 91.915 98.9786 91.7509 101.008C91.6214 102.58 91.6531 104.172 91.6847 105.752C91.702 106.554 91.5236 106.932 90.5854 106.907C90.3643 106.901 90.1654 106.897 89.9864 106.894H89.9864H89.9864H89.9864H89.9863H89.9863L89.9861 106.894C89.0911 106.878 88.6949 106.87 88.5267 106.671C88.3931 106.512 88.4033 106.233 88.4216 105.731C88.4305 105.488 88.4413 105.192 88.4385 104.833C88.429 103.744 88.4372 102.655 88.4454 101.566C88.4597 99.6729 88.4739 97.7799 88.3953 95.8903C88.3466 94.6651 88.9532 94.6634 89.6413 94.6615H89.6413H89.6413H89.6413H89.6413H89.6413H89.6413H89.6413C89.8062 94.661 89.9758 94.6605 90.1422 94.6432C91.1782 94.5339 91.6934 94.8141 91.4948 95.9099C91.4684 96.1857 91.4664 96.4633 91.489 96.7394ZM165.305 94.5621C164.048 94.876 163.138 95.6551 162.218 96.5715C162.191 96.3389 162.185 96.1044 162.2 95.8708C162.416 94.6467 161.734 94.6484 161.008 94.6503C160.835 94.6507 160.66 94.6511 160.494 94.6349C159.466 94.5285 159.063 94.7835 159.092 95.9045C159.178 99.1806 159.19 102.448 159.092 105.713C159.055 106.955 159.688 106.98 160.574 106.885C160.747 106.867 160.934 106.88 161.12 106.894C161.742 106.94 162.341 106.985 162.301 105.814C162.291 105.507 162.277 105.199 162.262 104.89C162.193 103.384 162.123 101.866 162.505 100.38C162.856 99.0152 163.656 97.8018 165.11 97.7289C166.752 97.6488 166.749 96.8492 166.745 95.7539C166.745 95.6992 166.744 95.6439 166.744 95.5878C166.744 94.4528 166.209 94.3407 165.305 94.5621ZM132.761 95.696C133.073 95.5435 133.359 95.383 133.633 95.2292C134.317 94.8458 134.926 94.504 135.668 94.432C139.317 94.0845 141.711 96.3601 141.936 100.427C142.16 104.493 139.633 107.262 135.866 107.113C134.646 107.066 133.694 106.494 132.718 105.712C132.641 107.172 131.821 107.033 131.043 106.901C130.776 106.856 130.514 106.811 130.289 106.833C129.369 106.925 129.447 106.317 129.514 105.796L129.514 105.795C129.531 105.665 129.547 105.539 129.547 105.432C129.536 103.625 129.538 101.818 129.541 100.01C129.546 97.0533 129.55 94.0962 129.495 91.1391C129.471 89.8708 130.121 89.8962 130.901 89.9266L130.901 89.9266C130.972 89.9294 131.045 89.9322 131.118 89.9341C131.248 89.9376 131.381 89.933 131.513 89.9284C132.214 89.9042 132.877 89.8813 132.787 91.0887C132.713 92.0822 132.729 93.1188 132.746 94.2095L132.746 94.2102C132.753 94.6944 132.761 95.1894 132.761 95.696ZM138.768 100.732C138.786 101.577 138.563 102.41 138.126 103.139C137.869 103.591 137.482 103.96 137.013 104.201C136.544 104.443 136.012 104.546 135.484 104.498C133.637 104.389 132.388 102.433 132.678 100.16C132.952 98.0248 134.405 96.8337 136.359 97.1756C137.72 97.4082 138.748 98.9216 138.768 100.732ZM222.316 94.1245V94.1269V94.1293V94.1317V94.1342C222.312 94.589 222.308 95.053 222.308 95.5307C218.702 93.6923 215.718 94.1995 214.109 96.8563C212.932 98.804 212.797 100.897 213.395 103.069C214.172 105.891 216.446 107.41 219.404 107.08C220.504 106.959 221.331 106.345 222.233 105.675L222.36 105.58C222.334 107.123 223.171 107.006 223.968 106.894C224.236 106.857 224.498 106.82 224.723 106.847C225.676 106.961 225.594 106.356 225.523 105.835C225.505 105.705 225.488 105.581 225.488 105.474C225.513 100.949 225.513 96.4247 225.488 91.9015C225.486 91.5491 225.497 91.2611 225.506 91.0254C225.524 90.5404 225.534 90.2773 225.408 90.1323C225.258 89.9603 224.917 89.9547 224.172 89.9425C223.954 89.9389 223.702 89.9348 223.41 89.9258C222.504 89.9033 222.256 90.206 222.291 91.0467C222.335 92.0591 222.326 93.0659 222.316 94.1225V94.1227V94.123V94.1233V94.1245ZM221.833 103.055C222.245 102.367 222.434 101.572 222.374 100.777C222.351 99.3029 221.916 97.9858 220.437 97.3328C219.96 97.1083 219.426 97.0274 218.901 97.1003C218.377 97.1731 217.887 97.3965 217.493 97.7419C216.287 98.748 215.882 101.015 216.63 102.638C217.11 103.675 217.876 104.409 219.099 104.49C219.649 104.541 220.203 104.432 220.689 104.176C221.176 103.921 221.574 103.531 221.833 103.055ZM117.228 95.9379C119.312 94.1863 121.352 93.9397 123.462 94.9878C125.675 96.0892 126.371 98.0706 126.415 100.349C126.461 101.185 126.398 102.023 126.227 102.843C125.076 107.408 119.833 108.302 117.188 105.646C117.188 107.107 116.364 107.002 115.57 106.9L115.569 106.9C115.343 106.871 115.119 106.843 114.917 106.851C113.922 106.893 114.015 106.27 114.096 105.724L114.096 105.724C114.118 105.577 114.139 105.436 114.138 105.315C114.122 103.413 114.125 101.51 114.128 99.6076V99.6073V99.6072V99.6072C114.132 96.8036 114.136 94.0003 114.083 91.1989C114.057 89.8959 114.71 89.9096 115.642 89.9291L115.654 89.9294C115.746 89.9311 115.838 89.931 115.927 89.9308C116.706 89.9295 117.368 89.9285 117.257 91.1597C117.169 92.1795 117.188 93.2006 117.209 94.318L117.209 94.3183V94.3183V94.3184C117.218 94.8345 117.228 95.3712 117.228 95.9379ZM123.27 101.223C123.221 102.187 122.905 103.493 121.503 104.191C119.336 105.27 117.057 103.443 117.126 100.721C117.178 98.656 118.3 97.238 119.964 97.1399C121.964 97.0194 123.267 98.4402 123.27 101.223ZM150.497 101.391L150.498 101.391H150.498C150.865 101.388 151.232 101.386 151.6 101.386C151.894 101.386 152.188 101.383 152.482 101.381L152.482 101.381C153.338 101.375 154.192 101.368 155.036 101.416C155.801 101.444 156.014 101.119 156.06 100.43C156.224 97.8489 154.843 95.5985 152.541 94.7409C150.132 93.8525 147.073 94.6737 145.527 96.6158C143.622 99.0147 143.68 102.748 145.697 105.04C147.715 107.332 151.741 107.786 154.814 106.161C155.891 105.592 155.718 105.051 155.292 104.163C154.809 103.157 154.374 103.314 153.585 103.804C152.963 104.146 152.279 104.369 151.571 104.46C150.762 104.589 149.932 104.445 149.219 104.052C148.506 103.659 147.952 103.041 147.648 102.299C147.381 101.601 147.539 101.363 148.296 101.386C149.029 101.402 149.763 101.397 150.497 101.391H150.497H150.497ZM149.662 99.1975C149.805 99.1953 149.949 99.1931 150.092 99.1931C150.267 99.1931 150.442 99.1895 150.618 99.1859C151.018 99.1775 151.418 99.1693 151.813 99.2043C152.843 99.2968 152.964 98.8877 152.555 98.0833C151.741 96.4831 149.24 96.3794 148.123 97.9236C148.088 97.9725 148.05 98.0225 148.012 98.0735C147.785 98.3733 147.533 98.7069 147.735 99.0446C147.879 99.2784 148.169 99.246 148.456 99.2139C148.576 99.2006 148.694 99.1874 148.802 99.1931C149.086 99.2062 149.374 99.2018 149.662 99.1975ZM191.627 105.424C190.189 107.016 188.609 107.324 186.85 107.01C186.092 106.88 185.392 106.527 184.846 105.998C184.3 105.468 183.934 104.789 183.797 104.051C183.634 103.314 183.723 102.545 184.052 101.862C184.38 101.179 184.93 100.62 185.616 100.27C187.112 99.4296 188.781 99.2306 190.459 99.1886C190.536 99.1886 190.62 99.1962 190.705 99.204C190.983 99.2292 191.278 99.256 191.394 99.0289C191.59 98.6505 191.394 98.1881 191.164 97.8406C190.649 97.1008 189.832 96.9214 189.003 96.9999C188.575 97.0409 188.156 97.1611 187.736 97.2816C187.467 97.3589 187.198 97.4362 186.925 97.4931C186.764 97.5268 186.611 97.6405 186.461 97.7517C186.199 97.9458 185.948 98.1326 185.679 97.8743C185.278 97.4887 184.99 96.8559 184.731 96.2846L184.689 96.1928C184.527 95.8399 184.822 95.6837 185.096 95.5385C185.129 95.5212 185.161 95.5039 185.193 95.4866C186.984 94.4486 189.116 94.1186 191.15 94.5645C193.415 95.0466 194.638 96.7 194.678 99.2082C194.713 101.304 194.701 103.412 194.678 105.503C194.678 105.605 194.688 105.717 194.699 105.832C194.748 106.369 194.802 106.967 193.852 106.859C193.65 106.838 193.417 106.866 193.18 106.893C192.39 106.986 191.552 107.085 191.627 105.424ZM188.685 104.645C187.847 104.623 187.174 104.326 186.995 103.454C186.831 102.647 187.248 102.109 188.011 101.834C188.443 101.641 188.905 101.519 189.378 101.473C189.602 101.473 189.857 101.406 190.112 101.34C190.667 101.195 191.22 101.051 191.439 101.596C191.758 102.392 191.151 103.278 190.489 103.936C190.258 104.173 189.977 104.359 189.666 104.482C189.355 104.604 189.02 104.66 188.685 104.645Z" fill="#343434"/>
</svg>
