<svg width="261" height="200" viewBox="0 0 261 200" fill="none" xmlns="http://www.w3.org/2000/svg">
<g clip-path="url(#clip0_4775_23137)">
<path fill-rule="evenodd" clip-rule="evenodd" d="M42.5625 79.3522C42.5625 77.6675 43.2388 76.0518 44.4427 74.8605C45.6466 73.6692 47.2794 73 48.9819 73H89.3326C91.0352 73 92.6679 73.6692 93.8718 74.8605C95.0756 76.0518 95.752 77.6675 95.752 79.3522V119.28C95.752 120.965 95.0756 122.581 93.8718 123.772C92.6679 124.963 91.0352 125.633 89.3326 125.633H48.9819C47.2794 125.633 45.6466 124.963 44.4427 123.772C43.2388 122.581 42.5625 120.965 42.5625 119.28V79.3522ZM50.5868 90.8156V90.4685H55.2317V90.7998C55.2317 91.7707 55.2317 92.7417 55.2317 93.7127C55.2317 95.9949 55.2317 98.2795 55.2202 100.564C55.1973 102.733 56.5477 104.232 59.0352 104.194C59.905 104.213 60.7544 103.932 61.438 103.4C61.7761 103.115 62.052 102.765 62.2492 102.371C62.4463 101.977 62.5601 101.547 62.5843 101.109C62.6091 100.829 62.6189 100.549 62.614 100.269V90.4685H67.1993V90.7543C67.1993 94.1257 67.1993 97.4984 67.1993 100.873C67.2377 102.299 66.8656 103.708 66.1264 104.934C65.1658 106.458 63.7443 107.359 62.0133 107.783C59.6382 108.366 57.263 108.357 54.9543 107.497C52.4324 106.56 51.0568 104.688 50.6877 102.066C50.6193 101.519 50.5864 100.969 50.5891 100.419C50.5875 98.0201 50.5868 95.6192 50.5868 93.2159V90.8156ZM83.8303 101.785C83.4895 102.578 82.9079 103.246 82.1658 103.697C80.4761 104.729 78.0918 104.328 76.7208 102.765C75.6248 101.515 75.2946 100.042 75.5423 98.4361C75.7487 97.0749 76.3837 95.9293 77.5691 95.1625C79.8617 93.6855 82.6129 94.3661 83.7843 96.7731C83.8046 96.8079 83.8285 96.8407 83.8554 96.8706L87.5856 95.0695C87.5791 95.0325 87.5699 94.9961 87.5581 94.9604C86.5861 93.0479 85.1485 91.637 83.0759 90.9336C81.4273 90.391 79.6589 90.3125 77.9679 90.7068C75.2167 91.3034 73.1372 92.7804 71.8878 95.3098C71.115 96.9081 70.8267 98.6937 71.058 100.451C71.2711 102.422 72.0117 104.171 73.4537 105.557C75.9756 107.98 79.0202 108.654 82.3836 107.924C84.6763 107.422 86.2811 105.966 87.4113 103.962C87.4527 103.885 87.4893 103.808 87.5305 103.736C87.5513 103.693 87.5719 103.647 87.5947 103.602L83.8303 101.785ZM140.207 83.0773C139.406 83.0694 138.614 83.2434 137.891 83.5859C137.169 83.9285 136.536 84.4305 136.041 85.0533V78.2179H132.911V96.3217H135.993V94.6066C137.1 95.9678 138.496 96.6325 140.181 96.6325C141.05 96.6539 141.913 96.493 142.714 96.1602C143.515 95.8274 144.236 95.3304 144.829 94.7019C146.08 93.3928 146.706 91.7957 146.706 89.8674C146.706 87.939 146.08 86.3419 144.829 85.0238C144.245 84.3899 143.529 83.8879 142.732 83.5521C141.934 83.2162 141.073 83.0542 140.207 83.0773ZM143.503 89.8424C143.53 90.8796 143.151 91.8866 142.444 92.6532C142.099 93.0225 141.677 93.3138 141.208 93.5071C140.739 93.7006 140.233 93.7916 139.725 93.774C139.212 93.793 138.701 93.7027 138.226 93.5094C137.752 93.316 137.325 93.0241 136.974 92.6532C136.268 91.8866 135.888 90.8796 135.915 89.8424C135.889 88.8197 136.269 87.8276 136.974 87.0792C137.321 86.7028 137.747 86.4062 138.222 86.2103C138.698 86.0143 139.211 85.9237 139.725 85.9449C140.235 85.925 140.742 86.0163 141.212 86.2123C141.682 86.4084 142.103 86.7043 142.444 87.0792C143.149 87.8276 143.529 88.8197 143.503 89.8424ZM118.711 94.94C117.434 96.0585 115.797 96.6325 113.797 96.6325C111.798 96.6325 110.196 96.0585 108.912 94.94C107.628 93.8217 106.986 92.1541 106.986 90.0148V78.717H110.285V89.7222C110.285 92.1768 111.608 93.4632 113.797 93.4632C115.941 93.4632 117.314 92.1292 117.314 89.7222V78.717H120.636V90.0148C120.636 92.1541 119.985 93.7966 118.711 94.94ZM126.554 90.0148V96.3217H123.424V83.3904H126.435V85.1781C126.774 84.5192 127.296 83.9697 127.939 83.594C128.583 83.2183 129.322 83.032 130.068 83.0569C130.602 83.0575 131.131 83.1464 131.634 83.3201L131.368 86.2943C130.88 86.1296 130.369 86.0408 129.853 86.0311C127.902 86.0311 126.554 87.3174 126.554 90.0148ZM154.499 83.0773C156.161 83.0773 157.58 83.7216 158.761 85.0306V83.3859H161.741V96.3172H158.761V94.7291C158.237 95.3393 157.584 95.8268 156.847 96.1568C156.11 96.4867 155.308 96.6508 154.499 96.637C152.621 96.637 151.081 95.9927 149.854 94.6838C148.627 93.3747 148.02 91.7345 148.02 89.7993C148.02 87.8642 148.621 86.2489 149.854 84.9875C150.451 84.3662 151.172 83.8753 151.972 83.5463C152.772 83.2173 153.633 83.0576 154.499 83.0773ZM157.75 92.6532C158.472 91.8949 158.861 90.8841 158.832 89.8424C158.854 88.812 158.466 87.8145 157.75 87.0656C157.388 86.7038 156.956 86.4166 156.481 86.2206C156.006 86.0246 155.496 85.9236 154.982 85.9236C154.467 85.9236 153.957 86.0246 153.482 86.2206C153.007 86.4166 152.576 86.7038 152.213 87.0656C151.512 87.8255 151.133 88.8228 151.154 89.8515C151.128 90.8885 151.508 91.8951 152.213 92.6623C152.576 93.0242 153.007 93.3113 153.482 93.5075C153.957 93.7034 154.467 93.8043 154.982 93.8043C155.496 93.8043 156.006 93.7034 156.481 93.5075C156.956 93.3113 157.388 93.0242 157.75 92.6623V92.6532ZM167.608 96.3217V89.3342C167.608 87.3083 168.933 85.8791 170.786 85.8791C172.519 85.8791 173.652 87.1178 173.652 89.2821V96.3149H176.804V88.4268C176.804 86.689 176.3 85.3777 175.312 84.4498C174.336 83.5243 173.029 83.0186 171.678 83.0433C169.775 83.0433 168.259 83.8781 167.551 85.1872V83.3722H164.486V96.3034L167.608 96.3217ZM109.685 117.835C111.485 119.555 113.693 120.415 116.308 120.415C117.883 120.428 119.438 120.07 120.845 119.371C122.195 118.707 123.364 117.733 124.257 116.531L122.588 115.147C120.986 117.216 118.919 118.25 116.386 118.248C114.359 118.248 112.678 117.593 111.342 116.283C110.006 114.974 109.336 113.299 109.331 111.258C109.331 109.188 110.019 107.472 111.395 106.111C112.048 105.449 112.831 104.926 113.696 104.574C114.561 104.223 115.49 104.051 116.425 104.069C117.607 104.061 118.773 104.353 119.809 104.917C120.876 105.471 121.799 106.26 122.507 107.225L124.224 105.841C123.41 104.619 122.285 103.631 120.962 102.976C119.555 102.247 117.988 101.873 116.4 101.884C115.166 101.86 113.94 102.082 112.795 102.537C111.651 102.992 110.61 103.672 109.737 104.534C107.903 106.281 106.986 108.514 106.986 111.233C106.986 113.904 107.885 116.105 109.685 117.835ZM126.84 108.831C126.206 109.461 125.706 110.211 125.373 111.037C125.04 111.863 124.879 112.747 124.901 113.636C124.901 115.578 125.547 117.196 126.84 118.491C128.134 119.785 129.776 120.441 131.77 120.458C133.766 120.458 135.41 119.802 136.701 118.491C137.993 117.18 138.638 115.561 138.638 113.636C138.654 112.746 138.488 111.861 138.151 111.036C137.814 110.21 137.312 109.46 136.676 108.831C135.386 107.505 133.75 106.841 131.77 106.839C129.789 106.838 128.146 107.501 126.84 108.831ZM135.083 110.262C135.52 110.709 135.865 111.238 136.096 111.816C136.327 112.395 136.441 113.014 136.431 113.636C136.444 114.266 136.332 114.893 136.101 115.48C135.87 116.068 135.524 116.604 135.083 117.059C134.656 117.504 134.142 117.858 133.573 118.101C133.004 118.343 132.39 118.468 131.771 118.468C131.151 118.468 130.538 118.343 129.968 118.101C129.399 117.858 128.886 117.504 128.459 117.059C128.018 116.604 127.671 116.068 127.44 115.481C127.208 114.893 127.095 114.266 127.109 113.636C127.099 113.013 127.213 112.395 127.444 111.816C127.676 111.237 128.021 110.709 128.459 110.262C128.882 109.811 129.394 109.451 129.964 109.205C130.534 108.958 131.149 108.831 131.771 108.831C132.393 108.831 133.008 108.958 133.578 109.205C134.148 109.451 134.66 109.811 135.083 110.262ZM155.505 106.816C157.109 106.816 158.377 107.326 159.309 108.345C160.241 109.365 160.707 110.732 160.707 112.447V120.142H158.523V112.762C158.523 111.516 158.228 110.554 157.64 109.875C157.357 109.531 156.997 109.257 156.588 109.076C156.179 108.895 155.733 108.811 155.285 108.831C154.796 108.816 154.308 108.908 153.859 109.101C153.409 109.294 153.009 109.583 152.686 109.947C152.03 110.675 151.703 111.63 151.704 112.812V120.142H149.519V112.812C149.519 111.565 149.225 110.594 148.637 109.899C148.354 109.548 147.991 109.267 147.577 109.081C147.163 108.896 146.711 108.81 146.257 108.831C145.764 108.814 145.273 108.905 144.819 109.098C144.366 109.291 143.961 109.581 143.634 109.947C142.978 110.675 142.651 111.646 142.653 112.86V120.142H140.459V107.154H142.593V109.071C142.973 108.387 143.532 107.817 144.212 107.42C144.92 107.015 145.725 106.806 146.543 106.814C147.419 106.809 148.279 107.041 149.031 107.483C149.767 107.886 150.358 108.505 150.723 109.255C151.195 108.499 151.876 107.892 152.686 107.506C153.554 107.05 154.522 106.813 155.505 106.816ZM174.805 108.831C174.219 108.187 173.499 107.675 172.694 107.332C171.89 106.988 171.02 106.82 170.144 106.839C169.222 106.817 168.308 107.016 167.479 107.417C166.651 107.819 165.932 108.412 165.384 109.146V107.154H163.202V125.483H165.384V118.223C166.563 119.711 168.133 120.456 170.096 120.456C170.977 120.476 171.852 120.311 172.664 119.972C173.475 119.633 174.205 119.127 174.805 118.489C176.021 117.168 176.694 115.445 176.694 113.659C176.694 111.872 176.021 110.15 174.805 108.829V108.831ZM173.244 117.084C172.395 118.005 171.283 118.467 169.908 118.468C168.532 118.47 167.412 118.008 166.547 117.084C165.707 116.131 165.261 114.9 165.297 113.636C165.261 112.386 165.708 111.168 166.547 110.233C167.398 109.297 168.518 108.828 169.908 108.826C170.534 108.804 171.158 108.919 171.734 109.162C172.311 109.405 172.826 109.771 173.244 110.233C174.103 111.158 174.561 112.38 174.521 113.636C174.553 114.904 174.097 116.137 173.244 117.084ZM188.96 109.071V107.152H191.069V120.142H188.96V118.273C188.406 118.975 187.694 119.538 186.88 119.918C186.066 120.297 185.173 120.482 184.274 120.458C183.392 120.481 182.516 120.317 181.704 119.978C180.892 119.639 180.163 119.132 179.564 118.491C178.322 117.166 177.7 115.523 177.698 113.563C177.697 111.603 178.319 110.002 179.564 108.758C180.807 107.479 182.377 106.839 184.274 106.839C185.177 106.82 186.072 107.012 186.887 107.4C187.701 107.788 188.411 108.361 188.96 109.071ZM189.132 113.634C189.16 112.376 188.694 111.156 187.832 110.231C187.4 109.786 186.882 109.432 186.309 109.19C185.735 108.948 185.118 108.824 184.495 108.824C183.871 108.824 183.255 108.948 182.681 109.19C182.108 109.432 181.59 109.786 181.158 110.231C180.317 111.173 179.87 112.397 179.908 113.654C179.875 114.91 180.321 116.133 181.158 117.077C181.593 117.516 182.113 117.864 182.686 118.102C183.259 118.339 183.874 118.462 184.495 118.462C185.116 118.462 185.731 118.339 186.304 118.102C186.877 117.864 187.396 117.516 187.832 117.077C188.692 116.136 189.156 114.905 189.132 113.636V113.634ZM193.745 120.14H195.941V112.908C195.941 111.71 196.284 110.731 196.97 109.972C197.304 109.6 197.716 109.305 198.179 109.109C198.641 108.913 199.141 108.82 199.644 108.838C200.112 108.82 200.579 108.906 201.009 109.089C201.439 109.273 201.823 109.55 202.131 109.899C202.753 110.612 203.063 111.615 203.062 112.908V120.142H205.245V112.277C205.245 110.515 204.746 109.164 203.75 108.223C203.256 107.759 202.675 107.396 202.039 107.154C201.403 106.913 200.725 106.798 200.045 106.816C198.098 106.816 196.707 107.545 195.875 109.001V107.154H193.74L193.745 120.14ZM212.528 117.107L216.135 107.152H218.562L213.019 121.719C212.496 123.118 211.874 124.12 211.153 124.725C210.451 125.34 209.54 125.67 208.603 125.648C207.892 125.68 207.186 125.511 206.567 125.163L206.813 123.246C207.314 123.485 207.861 123.617 208.418 123.634C209.513 123.634 210.38 122.865 211.017 121.327L211.533 120.065L205.843 107.15H208.365L212.528 117.107Z" fill="#2B2B2B"/>
</g>
<defs>
<clipPath id="clip0_4775_23137">
<rect width="176" height="54" fill="white" transform="translate(42.5625 73)"/>
</clipPath>
</defs>
</svg>
