<svg width="261" height="200" viewBox="0 0 261 200" fill="none" xmlns="http://www.w3.org/2000/svg">
<path d="M94.3616 75.3581C96.2152 71.7819 90.2095 72.7877 90.2095 72.7877C88.0593 72.7877 87.0954 75.3953 86.6505 76.1403L80.1629 88.992C78.9395 91.1153 74.8986 100.205 73.564 102.216C73.4528 100.167 73.6011 96.0697 73.6382 95.1012C73.8977 91.227 74.1572 88.2842 74.565 84.7453C74.8615 81.9888 75.4547 78.8969 74.8986 76.1403C74.5279 74.4268 73.9718 74.315 71.525 74.0543C68.967 73.7935 67.2246 77.5186 66.372 79.2694C63.2579 85.7511 59.7731 92.0838 56.9927 98.7145C56.1771 100.652 55.1761 102.589 54.3235 104.488C53.3225 106.798 52.3957 109.07 51.3206 111.343C50.1714 113.727 46.5754 121.549 45.5744 124.008C44.4622 126.69 44.2398 128.851 48.6885 128.739C49.3929 128.739 50.9499 128.888 52.8777 126.802C54.3976 125.163 54.6942 123.636 55.5839 121.363C58.7722 113.317 61.0336 107.99 64.5184 100.018C64.852 99.236 65.6305 96.9637 66.4091 95.2129C66.372 97.7087 65.9642 100.689 65.7788 102.663C65.1857 109.89 64.7779 116.856 64.1476 124.008C64.0735 124.977 63.814 126.131 64.2589 127.025C64.7037 127.919 65.8159 128.143 66.7056 128.255C70.2646 128.702 70.6353 126.914 71.7475 124.455C72.7484 122.257 73.3416 120.469 74.2313 118.234C76.9747 111.343 79.8663 104.526 83.0545 97.8205C83.8701 96.1069 84.6857 94.4306 85.5754 92.7543C87.2066 89.6625 88.5412 86.7569 90.3207 83.3298C91.6553 80.8712 92.9528 78.0774 94.3616 75.3581ZM216.515 94.7659C216.107 90.631 210.472 92.7171 207.099 93.3503C205.838 93.5739 201.945 94.3189 197.46 95.1757C197.274 90.5193 197.348 91.4505 197.311 88.6195C197.2 84.5218 196.978 81.3182 196.755 77.7049C196.607 75.4326 196.273 72.2662 192.195 72.8622C187.45 73.5327 186.672 75.9168 185.411 78.7852C182.112 86.2726 182.223 86.3099 178.479 94.6541C178.182 95.2874 176.81 98.64 176.588 99.3105C176.44 99.3478 176.143 99.4223 175.772 99.534C174.252 99.8693 172.399 100.279 170.36 100.726L170.397 100.54C170.879 96.7402 171.472 92.9406 171.991 89.141C172.473 85.6766 172.992 80.0144 173.4 76.5501C173.845 72.825 169.544 72.8995 169.544 72.8995C166.912 72.7505 165.911 73.5327 164.243 75.6933C161.388 79.4184 157.941 83.4415 154.901 87.5392C149.377 94.9521 145.336 100.54 140.331 107.99C138.885 110.151 136.661 113.429 134.733 115.999C133.436 113.429 132.324 110.598 131.249 107.99C129.691 104.265 128.542 101.955 127.801 99.4968C127.134 97.3362 127.949 97.0382 129.543 95.8089C134.14 92.3073 139.33 89.886 144.038 86.5334C147.375 84.1493 151.379 81.5045 154.641 79.0459C154.641 79.0459 156.532 77.9284 157.57 76.5128C158.867 74.7248 155.197 72.8622 155.197 72.8622C153.121 72.527 151.972 73.0112 150.526 73.6818C149.043 74.3523 147.115 75.8796 145.855 76.8854C143.075 79.0459 139.553 81.6162 136.809 83.7768C133.436 86.4216 131.137 88.0607 127.43 90.2585L136.846 76.1031C139.923 72.1172 131.768 70.9997 128.653 75.209C125.762 78.9714 123.797 82.2868 121.536 85.7139C116.086 93.8719 111.6 102.44 107.114 111.417C105.409 114.844 103.741 118.42 102.184 121.959C101.442 123.673 99.2551 127.621 102.258 128.031C108.671 128.851 109.71 125.796 111.155 122.108C113.528 116.036 114.306 114.919 115.826 111.156C117.309 107.506 118.384 105.42 120.053 102.291C120.09 102.253 120.572 101.471 120.572 101.471C120.868 102.104 122.833 108.661 123.093 109.406C124.427 112.944 126.763 121.214 128.097 124.977C129.061 128.106 129.321 129 133.51 128.888C135.586 128.851 136.476 128.031 137.847 125.424C139.219 122.816 145.151 111.715 145.151 111.715C146.93 111.417 149.488 110.97 151.156 110.672C151.453 110.635 152.12 110.486 153.047 110.3C153.677 110.225 154.196 110.113 154.604 110.002C154.641 110.002 154.641 110.002 154.678 109.964C156.309 109.629 158.385 109.219 160.647 108.772C160.239 110.821 158.979 115.329 158.719 116.483C158.719 116.483 155.976 127.212 159.535 127.77C161.759 128.106 162.908 127.733 162.908 127.733C167.06 127.249 167.135 121.624 167.135 121.624L169.396 107.059C171.027 106.724 172.658 106.388 174.252 106.09L169.359 122.704C168.655 125.051 168.136 128.068 172.325 128.068C175.735 128.255 175.958 126.094 175.958 126.094C176.032 125.759 178.738 117.005 179.405 113.876C179.85 111.864 181.444 106.686 182.075 104.6C183.854 104.265 185.189 104.004 185.819 103.892C186.56 103.781 188.006 103.52 189.897 103.222C189.86 105.159 189.897 107.841 189.934 108.214C190.342 114.099 189.897 120.208 191.12 125.982C191.306 126.914 191.676 128.106 192.863 128.106C194.271 128.106 194.716 127.957 196.199 127.845C200.5 127.472 199.721 123.114 199.462 120.357C199.165 117.303 198.868 114.732 198.461 111.678C198.127 109.182 197.905 105.904 197.868 101.955V101.881C204.911 100.689 212.511 99.385 213.623 99.1988C215.403 98.7145 216.886 98.8635 216.515 94.7659ZM161.462 102.589C161.462 102.626 161.425 102.626 161.425 102.663C156.495 103.743 151.861 104.786 149.266 105.382C151.861 101.024 163.279 85.1551 165.021 83.2925C164.058 88.2097 162.501 97.3362 161.462 102.589ZM189.934 96.3304V96.5912C187.561 97.0382 185.337 97.4852 183.558 97.8205C185.819 91.9348 188.192 84.7081 189.6 81.0575C189.489 83.7768 190.045 93.6484 189.934 96.3304ZM120.794 78.7852C121.536 77.4069 123.204 74.6875 121.128 73.6445C119.904 73.0485 118.273 72.676 117.013 73.3092C115.975 73.868 115.196 74.9483 114.677 75.9541L106.744 88.5077C105.446 90.2958 104.223 92.5308 101.591 92.8288C99.8483 93.0151 98.5878 92.2701 98.6249 90.7055C98.662 89.1037 99.5888 86.9804 100.293 85.6021C102.369 81.6535 102.629 80.3125 104.631 76.4011C106.558 72.6387 100.256 71.7819 98.699 74.5013C97.5869 76.4383 95.4367 80.0889 94.9547 81.3182C94.065 83.5533 87.392 94.2071 90.2836 98.4165C93.9909 103.185 103.852 95.6599 98.8103 104.339C94.7323 111.305 92.1743 115.291 88.6154 121.736C87.8369 123.114 86.873 124.492 86.6135 126.131C86.2427 128.441 89.3939 128.404 90.7656 128.329C93.1753 128.143 94.3245 127.025 95.2884 124.828C95.8074 123.673 96.5118 122.257 97.0308 121.102C101.702 110.858 106.67 101.955 112.824 92.0466C115.752 87.3529 118.347 83.3298 120.794 78.7852Z" fill="#FC2779"/>
</svg>
