<svg width="20" height="12" viewBox="0 0 20 12" fill="none" xmlns="http://www.w3.org/2000/svg">
<path d="M1.6258 0.141052C0.829693 1.09831 0.464674 2.25391 0.036375 3.45481C-0.067934 3.74968 0.0554657 4.07062 0.363178 4.18433C1.35615 4.5518 2.3523 4.90821 3.34527 5.27568C3.91418 5.48647 4.07443 4.54619 3.51115 4.33351C2.86374 4.09438 2.21566 3.85735 1.56694 3.62241C1.59767 3.61074 1.62682 3.59542 1.6539 3.57673C3.32688 2.44247 5.89804 1.613 7.68972 3.53006C7.79607 3.64457 7.89611 3.76568 7.98925 3.89261C7.56151 4.43452 7.24084 5.06963 7.04399 5.76477C6.83733 6.48172 6.83656 7.50566 7.63741 7.91466C8.27907 8.24179 8.92809 7.82225 9.25255 7.2867C9.60274 6.70191 9.65649 5.91559 9.51737 5.199C9.44213 4.82574 9.31812 4.46066 9.14917 4.11514C9.75151 3.60397 10.5157 3.33104 11.3537 3.45361C12.0728 3.55468 12.7637 3.95881 13.2059 4.55893C12.7894 4.86092 12.4224 5.23199 12.1168 5.66039C11.7014 6.21269 11.2068 6.93093 11.3951 7.73644C11.5835 8.54195 12.3771 8.91435 13.05 8.72965C13.7368 8.54134 14.2334 7.91963 14.4582 7.21897C14.6723 6.55488 14.6679 5.80946 14.4456 5.09965C14.5478 5.07673 14.6521 5.06122 14.7576 5.0532C15.9982 4.96934 17.285 5.76655 18.0301 6.90791C18.9313 8.28939 19.1508 9.96846 19.0841 11.526C19.0559 12.1495 19.9627 12.1607 19.9895 11.5431C20.0719 9.62966 19.6815 7.55935 18.4389 5.96755C17.3863 4.61939 15.6673 3.82633 14.1587 4.14012C14.1105 4.15033 14.0639 4.16151 14.0175 4.17447C13.6964 3.66949 13.2657 3.25172 12.7691 2.96337C11.3562 2.14271 9.76769 2.33315 8.62324 3.24803C8.03869 2.47784 7.25838 1.90692 6.39794 1.61988C4.60553 1.04317 2.81632 1.63008 1.36152 2.56061C1.60476 1.94223 1.89177 1.35618 2.31938 0.842977C2.68471 0.409986 1.99667 -0.304634 1.6258 0.141052ZM13.3781 7.29079C13.1899 7.56797 12.1637 8.23777 12.2727 7.38297C12.3475 6.79779 12.8723 6.24282 13.2209 5.85982C13.3468 5.72088 13.485 5.59552 13.6338 5.4852C13.7096 5.80199 13.7259 6.12551 13.682 6.43598C13.638 6.74644 13.5346 7.03731 13.3781 7.29079ZM8.63597 6.25124C8.58315 6.49307 8.14564 7.43132 7.8522 6.90342C7.57326 6.40218 8.20421 5.31768 8.42962 4.95574C8.4532 4.91784 8.4787 4.8816 8.50376 4.84467C8.68055 5.30253 8.72674 5.7939 8.63597 6.25124ZM1.08514 3.44493L1.04527 3.43069C1.04829 3.42072 1.05174 3.41143 1.05519 3.40214C1.06265 3.4178 1.07293 3.43252 1.08336 3.44615L1.08514 3.44493Z" fill="#2A32FF"/>
</svg>
