<svg width="261" height="200" viewBox="0 0 261 200" fill="none" xmlns="http://www.w3.org/2000/svg">
<path d="M38.8573 119.5H31.7627L40.4488 80.5H47.5456L38.8573 119.5Z" fill="#343434"/>
<path d="M54.2793 114.666V87.332H60.4134V97.5H60.5261C62.0077 95.5131 63.9151 94.519 66.2482 94.5175C68.3269 94.5175 69.9631 95.1997 71.1572 96.5638C72.3513 97.9282 72.9475 99.7182 72.946 101.934V114.666H66.8098V103.196C66.8098 102.126 66.5533 101.279 66.0401 100.654C65.5268 100.03 64.7803 99.7182 63.8002 99.7182C63.3332 99.7054 62.8694 99.8023 62.445 100.001C62.0209 100.2 61.6476 100.496 61.3544 100.866C60.7271 101.63 60.4134 102.623 60.4134 103.846V114.666H54.2793Z" fill="#343434"/>
<path d="M82.1272 115.236C79.9444 115.236 78.2699 114.58 77.1033 113.267C75.9368 111.954 75.3535 110.177 75.3535 107.934V95.0898H81.4486V106.635C81.4486 108.851 82.4147 109.959 84.3475 109.961C85.4013 109.961 86.2296 109.598 86.8324 108.873C87.4352 108.147 87.7357 107.199 87.7344 106.029V95.0898H93.8685V114.664H87.9989V112.254H87.884C86.4313 114.244 84.5123 115.238 82.1272 115.236Z" fill="#343434"/>
<path d="M104.781 115.283C101.971 115.283 99.7305 114.665 98.0596 113.428C96.3885 112.192 95.506 110.489 95.4121 108.318H101.206C101.433 110.256 102.612 111.226 104.744 111.226C105.671 111.226 106.404 111.053 106.945 110.708C107.195 110.566 107.402 110.358 107.545 110.106C107.688 109.854 107.761 109.567 107.756 109.276C107.76 109.095 107.733 108.914 107.678 108.741C107.624 108.581 107.535 108.436 107.416 108.318C107.29 108.192 107.173 108.078 107.058 107.974C106.905 107.852 106.734 107.755 106.551 107.688C106.334 107.6 106.13 107.529 105.967 107.468C105.805 107.406 105.566 107.36 105.252 107.296L104.519 107.144C104.343 107.104 104.066 107.054 103.691 106.99C103.315 106.926 103.04 106.882 102.862 106.855C102.06 106.731 101.383 106.597 100.831 106.454C100.204 106.291 99.5938 106.07 99.0071 105.794C98.4132 105.538 97.8657 105.182 97.3874 104.743C96.934 104.289 96.5812 103.741 96.3531 103.137C96.0622 102.39 95.9193 101.592 95.9325 100.789C95.9325 98.7991 96.7224 97.2572 98.3024 96.163C99.8822 95.0692 101.864 94.5207 104.248 94.5176C106.932 94.5176 109.014 95.0727 110.495 96.1829C111.975 97.2931 112.79 98.8284 112.94 100.789H107.303C107.1 99.2601 106.072 98.4951 104.217 98.4936C103.542 98.4625 102.871 98.6218 102.279 98.954C102.048 99.0872 101.857 99.2824 101.727 99.5181C101.598 99.754 101.534 100.021 101.544 100.291C101.542 100.435 101.569 100.578 101.622 100.712C101.674 100.845 101.758 100.963 101.865 101.055C101.971 101.154 102.085 101.244 102.205 101.324C102.354 101.415 102.511 101.489 102.676 101.544C102.875 101.622 103.055 101.685 103.22 101.736C103.442 101.801 103.668 101.851 103.897 101.888C104.185 101.941 104.426 101.985 104.612 102.022L105.384 102.174C105.709 102.238 105.974 102.285 106.173 102.309C107.025 102.461 107.73 102.602 108.281 102.729C108.944 102.893 109.593 103.114 110.219 103.39C110.863 103.647 111.456 104.02 111.969 104.492C112.444 104.988 112.821 105.572 113.079 106.212C113.408 107.017 113.568 107.883 113.55 108.754C113.55 110.844 112.74 112.45 111.121 113.572C109.502 114.694 107.389 115.264 104.781 115.283Z" fill="#343434"/>
<path d="M122.39 114.893C120.433 114.893 118.921 114.492 117.856 113.69C116.791 112.889 116.258 111.494 116.258 109.505V98.9825H113.704V95.0836H116.264V88.9004H122.247V95.0924H125.746V98.9825H122.247V108.157C122.247 108.871 122.428 109.368 122.791 109.648C123.155 109.93 123.689 110.069 124.391 110.069C124.591 110.069 124.855 110.069 125.18 110.051L125.746 110.029V114.58C125.044 114.794 123.927 114.893 122.39 114.893Z" fill="#343434"/>
<path d="M127.77 114.666V87.332H133.979V114.666H127.77Z" fill="#343434"/>
<path d="M146.131 115.239C143.021 115.239 140.532 114.265 138.663 112.316C136.794 110.367 135.859 107.875 135.859 104.84C135.859 101.887 136.782 99.4275 138.626 97.4627C140.471 95.4978 142.847 94.5163 145.755 94.5176C148.391 94.5176 150.586 95.3335 152.341 96.9649C154.653 99.109 155.782 102.282 155.727 106.485H141.879C142.081 107.835 142.546 108.886 143.273 109.637C144 110.389 144.979 110.765 146.209 110.765C147.787 110.765 148.853 110.115 149.407 108.816H155.389C154.937 110.704 153.858 112.246 152.154 113.442C150.45 114.637 148.442 115.236 146.131 115.239ZM141.918 102.776H149.507C149.407 101.601 149.025 100.671 148.36 99.987C148.036 99.6483 147.646 99.3815 147.215 99.2037C146.785 99.0258 146.322 98.9407 145.857 98.9539C143.683 98.9539 142.37 100.228 141.918 102.776Z" fill="#343434"/>
<path d="M157.563 114.667V95.0928H163.433V97.8815H163.547C164.877 95.639 166.822 94.5169 169.38 94.5156C171.913 94.5156 173.719 95.6624 174.801 97.9564H174.875C176.33 95.6655 178.354 94.5185 180.946 94.5156C183.076 94.5156 184.701 95.1853 185.818 96.5246C186.935 97.8638 187.493 99.6664 187.492 101.932V114.664H181.351V103.045C181.351 100.827 180.449 99.7186 178.643 99.7186C178.211 99.7003 177.781 99.7899 177.391 99.9796C177.001 100.169 176.662 100.453 176.405 100.807C175.863 101.541 175.593 102.504 175.594 103.695V114.667H169.454V103.045C169.454 100.827 168.551 99.7186 166.746 99.7186C166.313 99.7005 165.883 99.7902 165.493 99.9798C165.102 100.169 164.763 100.453 164.506 100.807C163.967 101.541 163.697 102.504 163.697 103.695V114.667H157.563Z" fill="#343434"/>
<path d="M195.731 115.16C193.749 115.16 192.159 114.638 190.96 113.594C189.762 112.55 189.16 111.082 189.154 109.189C189.154 107.202 189.805 105.755 191.106 104.849C192.407 103.943 194.214 103.338 196.526 103.034C198.406 102.802 199.691 102.541 200.384 102.25C201.076 101.959 201.42 101.494 201.416 100.856C201.416 99.4518 200.539 98.7504 198.784 98.752C196.905 98.752 195.863 99.5928 195.659 101.274H190.022C190.045 100.346 190.267 99.4339 190.674 98.6024C191.08 97.7706 191.661 97.0391 192.374 96.4589C193.866 95.1857 195.992 94.5484 198.753 94.5469C201.514 94.5453 203.595 95.0837 204.996 96.1615C206.626 97.3598 207.442 99.2205 207.444 101.743V111.605C207.444 113.16 207.661 114.09 208.12 114.396V114.665H202.177C201.925 114.308 201.709 113.581 201.526 112.484H201.453C200.223 114.268 198.315 115.16 195.731 115.16ZM197.682 111.195C198.838 111.195 199.77 110.869 200.486 110.22C200.838 109.902 201.117 109.51 201.302 109.071C201.488 108.631 201.576 108.155 201.559 107.678V105.336C200.959 105.643 199.905 105.987 198.398 106.369C197.168 106.65 196.3 106.981 195.796 107.363C195.547 107.553 195.349 107.802 195.218 108.089C195.087 108.375 195.027 108.69 195.043 109.006C195.051 110.46 195.932 111.187 197.686 111.187L197.682 111.195Z" fill="#343434"/>
<path d="M217.737 115.283C215.231 115.283 213.199 114.353 211.642 112.492C210.085 110.632 209.308 108.096 209.309 104.886C209.309 101.826 210.093 99.3343 211.662 97.4119C213.23 95.4898 215.254 94.5272 217.733 94.5241C220.046 94.5241 221.84 95.4545 223.117 97.315H223.227V87.332H229.361V114.666H223.492V112.023H223.422C222.167 114.196 220.273 115.283 217.737 115.283ZM219.318 110.353C219.898 110.373 220.474 110.245 220.994 109.981C221.513 109.717 221.959 109.326 222.293 108.842C223.015 107.836 223.377 106.515 223.377 104.877C223.377 103.171 223.039 101.801 222.36 100.767C221.683 99.7358 220.69 99.2248 219.389 99.2248C218.828 99.2096 218.272 99.3415 217.776 99.6076C217.279 99.8739 216.858 100.265 216.553 100.745C215.862 101.767 215.519 103.115 215.519 104.798C215.519 106.481 215.857 107.855 216.534 108.849C216.832 109.321 217.245 109.706 217.732 109.969C218.22 110.231 218.766 110.361 219.318 110.347V110.353Z" fill="#343434"/>
</svg>
