<svg width="2101" height="1137" viewBox="0 0 2101 1137" fill="none" xmlns="http://www.w3.org/2000/svg">
<g opacity="0.3" clip-path="url(#clip0_3714_297572)">
<rect width="2400" height="1643" transform="translate(-149.438)" fill="white"/>
<path d="M0.5625 0V2952.73" stroke="#DDD5D5" stroke-opacity="0.72"/>
<path d="M60.5625 0V2952.73" stroke="#DDD5D5" stroke-opacity="0.72"/>
<path d="M120.562 0V2952.73" stroke="#DDD5D5" stroke-opacity="0.72"/>
<path d="M180.562 0V2952.73" stroke="#DDD5D5" stroke-opacity="0.72"/>
<path d="M240.562 0V2952.73" stroke="#DDD5D5" stroke-opacity="0.72"/>
<path d="M300.562 0V2952.73" stroke="#DDD5D5" stroke-opacity="0.72"/>
<path d="M360.562 0V2952.73" stroke="#DDD5D5" stroke-opacity="0.72"/>
<path d="M420.562 0V2952.73" stroke="#DDD5D5" stroke-opacity="0.72"/>
<path d="M480.562 0V2952.73" stroke="#DDD5D5" stroke-opacity="0.72"/>
<path d="M540.562 0V2952.73" stroke="#DDD5D5" stroke-opacity="0.72"/>
<path d="M600.562 0V2952.73" stroke="#DDD5D5" stroke-opacity="0.72"/>
<path d="M660.562 0V2952.73" stroke="#DDD5D5" stroke-opacity="0.72"/>
<path d="M720.562 0V2952.73" stroke="#DDD5D5" stroke-opacity="0.72"/>
<path d="M780.562 0V2952.73" stroke="#DDD5D5" stroke-opacity="0.72"/>
<path d="M840.562 0V2952.73" stroke="#DDD5D5" stroke-opacity="0.72"/>
<path d="M900.562 0V2952.73" stroke="#DDD5D5" stroke-opacity="0.72"/>
<path d="M960.562 0V2952.73" stroke="#DDD5D5" stroke-opacity="0.72"/>
<path d="M1020.56 0V2952.73" stroke="#DDD5D5" stroke-opacity="0.72"/>
<path d="M1080.56 0V2952.73" stroke="#DDD5D5" stroke-opacity="0.72"/>
<path d="M1140.56 0V2952.73" stroke="#DDD5D5" stroke-opacity="0.72"/>
<path d="M1200.56 0V2952.73" stroke="#DDD5D5" stroke-opacity="0.72"/>
<path d="M1260.56 0V2952.73" stroke="#DDD5D5" stroke-opacity="0.72"/>
<path d="M1320.56 0V2952.73" stroke="#DDD5D5" stroke-opacity="0.72"/>
<path d="M1380.56 0V2952.73" stroke="#DDD5D5" stroke-opacity="0.72"/>
<path d="M1440.56 0V2952.73" stroke="#DDD5D5" stroke-opacity="0.72"/>
<path d="M1500.56 0V2952.73" stroke="#DDD5D5" stroke-opacity="0.72"/>
<path d="M1560.56 0V2952.73" stroke="#DDD5D5" stroke-opacity="0.72"/>
<path d="M1620.56 0V2952.73" stroke="#DDD5D5" stroke-opacity="0.72"/>
<path d="M1680.56 0V2952.73" stroke="#DDD5D5" stroke-opacity="0.72"/>
<path d="M1740.56 0V2952.73" stroke="#DDD5D5" stroke-opacity="0.72"/>
<path d="M1800.56 0V2952.73" stroke="#DDD5D5" stroke-opacity="0.72"/>
<path d="M1860.56 0V2952.73" stroke="#DDD5D5" stroke-opacity="0.72"/>
<path d="M1920.56 0V2952.73" stroke="#DDD5D5" stroke-opacity="0.72"/>
<path d="M1980.56 0V2952.73" stroke="#DDD5D5" stroke-opacity="0.72"/>
<path d="M2040.56 0V2952.73" stroke="#DDD5D5" stroke-opacity="0.72"/>
<path d="M2100.56 0V2952.73" stroke="#DDD5D5" stroke-opacity="0.72"/>
<path d="M-707.438 1080H2809.23" stroke="#DDD5D5" stroke-opacity="0.72"/>
<path d="M-707.438 1020H2809.23" stroke="#DDD5D5" stroke-opacity="0.72"/>
<path d="M-707.438 960H2809.23" stroke="#DDD5D5" stroke-opacity="0.72"/>
<path d="M-707.438 900H2809.23" stroke="#DDD5D5" stroke-opacity="0.72"/>
<path d="M-707.438 840H2809.23" stroke="#DDD5D5" stroke-opacity="0.72"/>
<path d="M-707.438 780H2809.23" stroke="#DDD5D5" stroke-opacity="0.72"/>
<path d="M-707.438 720H2809.23" stroke="#DDD5D5" stroke-opacity="0.72"/>
<path d="M-707.438 660H2809.23" stroke="#DDD5D5" stroke-opacity="0.72"/>
<path d="M-707.438 600H2809.23" stroke="#DDD5D5" stroke-opacity="0.72"/>
<path d="M-707.438 540H2809.23" stroke="#DDD5D5" stroke-opacity="0.72"/>
<path d="M-707.438 480H2809.23" stroke="#DDD5D5" stroke-opacity="0.72"/>
<path d="M-707.438 420H2809.23" stroke="#DDD5D5" stroke-opacity="0.72"/>
<path d="M-707.438 360H2809.23" stroke="#DDD5D5" stroke-opacity="0.72"/>
<path d="M-707.438 300H2809.23" stroke="#DDD5D5" stroke-opacity="0.72"/>
<path d="M-707.438 240H2809.23" stroke="#DDD5D5" stroke-opacity="0.72"/>
<path d="M-707.438 180H2809.23" stroke="#DDD5D5" stroke-opacity="0.72"/>
<path d="M-707.438 120H2809.23" stroke="#DDD5D5" stroke-opacity="0.72"/>
<path d="M-707.438 60H2809.23" stroke="#DDD5D5" stroke-opacity="0.72"/>
<path d="M-707.438 0H2809.23" stroke="#DDD5D5" stroke-opacity="0.72"/>
</g>
<defs>
<clipPath id="clip0_3714_297572">
<rect width="2400" height="1643" fill="white" transform="translate(-149.438)"/>
</clipPath>
</defs>
</svg>
