<svg width="261" height="200" viewBox="0 0 261 200" fill="none" xmlns="http://www.w3.org/2000/svg">
<path fill-rule="evenodd" clip-rule="evenodd" d="M151.993 104.383C134.098 104.383 119.905 93.9172 119.905 81.8918C119.905 73.9881 125.514 68.3095 132.639 68.3095C137.8 68.3095 141.614 71.2039 141.614 74.99C141.614 78.1639 139.09 80.6124 136.06 80.6124C134.209 80.6124 132.918 79.833 132.414 78.8311C132.806 78.8862 133.03 78.9423 133.256 78.9423C134.994 78.9423 136.117 77.6058 136.117 75.9918C136.117 74.2656 134.882 72.9852 132.807 72.9852C129.778 72.9852 127.197 75.7684 127.197 79.331C127.197 83.6731 131.348 87.2357 137.07 87.2357C146.719 87.2357 154.348 78.9413 154.348 69.4226C154.348 64.6346 152.384 59.959 148.963 56.8973C145.709 54.0029 141.894 53 135.948 53H106.777V105.606H152.068C152.501 105.606 152.793 105.458 152.778 104.992C152.768 104.659 152.385 104.383 151.993 104.383ZM108.067 104.328V54.2814H135.5C141.166 54.2814 144.363 54.7273 147.841 57.7328C151.152 60.6283 153.059 65.0815 153.059 69.5348C153.059 78.2751 145.822 86.0675 137.183 86.0675C132.695 86.0675 128.656 83.2293 128.656 79.332C128.656 76.4377 130.675 74.3217 132.583 74.3217C134.098 74.3217 134.771 75.1011 134.771 76.2142C134.771 77.2722 134.041 77.9955 132.527 77.9955C132.022 77.9955 131.63 77.9394 130.956 77.8282C131.348 80.1104 133.256 81.6693 136.061 81.6693C139.763 81.6693 142.905 78.775 142.905 75.045C142.905 70.4244 138.53 67.1403 133.088 67.1403C123.888 67.1403 118.67 74.2095 118.67 82.0591C118.67 91.9675 128.095 102.323 142.343 104.327L108.067 104.328Z" fill="black"/>
<path fill-rule="evenodd" clip-rule="evenodd" d="M83.8004 138.972C81.8933 138.972 80.9958 137.636 80.8272 135.52H89.9711C89.9711 130.621 88.2315 127.393 83.5763 127.393C79.5369 127.393 77.125 130.065 77.125 134.853C77.125 139.306 79.8176 141.867 83.7439 141.867C86.6606 141.867 88.4556 140.642 89.5783 138.304L86.1558 137.469C85.3703 138.638 84.9221 138.972 83.8004 138.972ZM83.6318 130.329C85.2028 130.329 86.1003 131.387 86.2124 133.056H80.8261C81.0513 131.331 82.0043 130.329 83.6318 130.329ZM71.6487 141.421H75.2943V127.838H71.6487V141.421ZM71.6487 126.229H75.2943V122.889H71.6487V126.229ZM95.4903 129.285V127.837H92.0688V141.419H95.7144V134.516C95.7144 132.068 96.7806 131.176 99.9779 131.176V127.446C97.6226 127.447 96.7806 127.782 95.4903 129.285ZM104.849 129.285V127.837H101.427V141.419H105.073V134.516C105.073 132.068 106.139 131.176 109.337 131.176V127.446C106.982 127.447 106.14 127.782 104.849 129.285ZM116.685 138.972C114.779 138.972 113.881 137.636 113.713 135.52H122.856C122.856 130.621 121.118 127.393 116.462 127.393C112.423 127.393 110.009 130.065 110.009 134.853C110.009 139.306 112.703 141.867 116.63 141.867C119.547 141.867 121.341 140.642 122.463 138.304L119.041 137.469C118.256 138.638 117.808 138.972 116.685 138.972ZM116.518 130.329C118.089 130.329 118.984 131.387 119.097 133.056H113.713C113.936 131.331 114.889 130.329 116.518 130.329ZM63.7993 127.462C61.8817 127.479 60.8815 128.074 59.985 129.131V127.907H56.5625V147H60.1526V140.376C61.0501 141.378 61.8922 141.878 63.6307 141.878C67.5015 141.878 69.6892 139.094 69.6892 134.586C69.6892 130.245 67.7256 127.462 63.7993 127.462ZM63.0693 138.694C61.2177 138.694 60.0395 137.303 60.0395 134.687C60.0395 131.959 61.0878 131.331 62.9007 130.679C64.8644 130.679 65.986 132.127 65.986 134.687C65.986 137.414 64.8089 138.694 63.0693 138.694ZM139.284 130.511C140.799 130.511 141.36 131.457 141.64 132.682H145.342C144.894 129.119 142.313 127.449 139.116 127.449C134.964 127.449 132.777 130.233 132.777 134.909C132.777 139.251 135.133 141.867 139.061 141.867C142.313 141.867 144.782 139.975 145.23 136.468H141.696C141.361 137.971 140.687 138.861 139.229 138.861C137.491 138.861 136.48 137.47 136.48 134.743C136.479 132.07 137.545 130.511 139.284 130.511ZM186.166 141.421H189.813V127.838H186.166V141.421ZM186.166 126.229H189.813V122.889H186.166V126.229ZM199.683 127.503C197.943 127.503 196.876 128.004 195.698 129.118V127.838H192.166V141.42H195.81V134.517C195.81 132.069 196.484 130.454 198.672 130.454C200.355 130.454 200.916 131.567 200.916 133.292V141.419H204.562V132.957C204.564 129.73 203.385 127.503 199.683 127.503ZM164.983 129.285V127.837H161.561V141.419H165.205V134.516C165.205 132.068 166.271 131.176 169.47 131.176V127.446C167.115 127.447 166.271 127.782 164.983 129.285ZM158.581 137.744V132.516C158.581 129.119 157.347 127.505 152.748 127.505C149.101 127.505 147.307 129.231 147.137 132.238H150.504C150.672 131.179 151.232 130.345 152.916 130.345C154.375 130.345 155.048 130.79 155.048 131.792C155.048 134.187 146.69 131.792 146.69 137.805C146.69 140.421 148.317 141.868 151.233 141.868C152.804 141.868 153.87 141.368 155.273 140.366C155.385 140.978 155.44 141.089 155.666 141.424H159.368V140.811C158.693 140.253 158.552 139.788 158.581 137.744ZM155.045 135.643C155.045 137.535 154.429 139.039 152.128 139.039C151.062 139.039 150.276 138.482 150.276 137.536C150.276 136.535 150.894 135.977 152.24 135.644C154.259 135.144 154.259 135.199 155.045 134.809V135.643ZM179.905 122.928V129.107C178.671 127.994 177.661 127.493 176.147 127.493C172.445 127.493 170.312 130.611 170.312 134.729C170.312 138.793 172.333 141.855 176.091 141.855C177.774 141.855 178.84 141.298 180.13 140.186V141.41H183.553V122.928H179.905ZM176.988 138.749C175.082 138.749 173.959 137.08 173.959 134.686C173.959 132.181 175.137 130.678 177.1 130.678C178.894 130.678 179.962 132.126 179.962 134.686C179.963 137.19 179.008 138.749 176.988 138.749Z" fill="black"/>
</svg>
