<svg width="261" height="200" viewBox="0 0 261 200" fill="none" xmlns="http://www.w3.org/2000/svg">
<path d="M99.3861 91.4662L99.0399 91.4126C98.75 91.9474 98.6921 92.1083 98.3443 92.6431L97.94 93.3388L94.1222 99.7057L93.3137 101.043L92.6182 102.222H99.9642L99.3861 91.4662ZM66.7057 83.334H79.604L69.4818 106.554C69.1935 107.196 69.0776 107.41 68.6139 107.997L68.7298 108.16C69.4238 108.106 69.5977 108.052 69.8296 108.052H76.7699C77.29 107.144 77.4639 106.928 77.9841 106.128L93.8339 83.334H108.582L111.128 106.5L111.302 109.122L111.418 110.245H111.88C112.4 108.319 112.689 107.516 113.21 106.232L123.043 83.334H141.09L139.585 97.8332L139.47 99.3317L139.295 101.096L139.702 101.149C140.743 99.384 141.205 98.6883 141.842 97.7259L152.021 83.334H179.901L182.156 92.3227C182.387 93.1779 182.503 93.6605 182.619 94.7837H182.909C183.718 93.6605 184.007 93.2852 185.048 92.2155L193.957 83.334H208.938L185.511 104.628L180.305 116.667H168.043L174.117 102.433L171.109 91.2517C170.937 90.5024 170.818 90.0212 170.647 88.6299L170.415 88.6835L169.259 91.6793L168.277 94.1417L158.501 116.667H146.699L154.799 98.3143C155.665 96.3345 155.781 96.1201 156.591 94.7837L155.84 94.6229L154.971 95.8534L153.931 97.2448L138.833 116.667H128.249L129.926 97.5665C129.984 96.6563 130.041 96.0665 130.215 94.6765H129.637C128.885 96.8158 128.538 97.7259 127.902 99.1709L120.614 116.667H100.832L100.426 111.316L100.312 109.709H88.338L84.1159 116.667H52.1875L66.7057 83.334Z" fill="#343434"/>
</svg>
