<svg width="261" height="200" viewBox="0 0 261 200" fill="none" xmlns="http://www.w3.org/2000/svg">
<g clip-path="url(#clip0_4775_142)">
<path d="M58.8568 139.345C58.8568 136.425 58.7303 133.464 58.5547 130.541H68.1531C70.7768 130.541 77.6096 130.653 77.6096 136.326C77.6096 142.312 70.1622 143.421 65.9608 143.421C64.6515 143.421 63.5566 143.396 62.4152 143.324V145.196C62.4152 148.114 62.5934 151.063 62.769 153.996H58.5624C58.738 151.075 58.8646 148.114 58.8646 145.196L58.8568 139.345ZM62.4075 141.896C63.4316 142.066 64.4678 142.156 65.5063 142.164C69.0983 142.164 73.6896 141.11 73.6896 136.484C73.6896 132.615 70.8491 131.793 66.3404 131.793H62.4152" fill="#050809"/>
<path d="M101.922 153.905C99.9751 150.656 94.4799 139.571 90.8828 132.514L90.8337 132.539V132.48H90.1029L90.09 132.511C86.3534 139.696 82.5393 146.794 78.6168 153.908L78.5703 153.987H81.4109L81.4289 153.951C82.0513 152.043 83.4406 148.949 84.9667 145.83C86.4644 145.802 87.9183 145.766 89.4109 145.766C91.0145 145.766 92.6155 145.802 94.183 145.83C95.4948 148.534 97.243 151.867 97.9376 153.951L97.9557 153.987H101.982L101.922 153.905ZM93.6045 144.323C92.2798 144.358 90.9138 144.386 89.5865 144.386C88.3392 144.386 86.9783 144.323 85.713 144.323L89.6278 136.76" fill="#050809"/>
<path d="M126.614 153.906C124.52 151.955 118.529 145.563 116.649 143.602C119.456 143.27 124.094 141.684 124.102 137.748C124.102 134.08 120.569 132.902 116.424 132.887H108.003V132.94C108.151 135.562 108.3 138.21 108.3 140.832V146.06C108.3 148.675 108.151 151.327 108.003 153.939V153.992H111.714V153.939C111.572 151.327 111.412 148.675 111.412 146.06V143.892H112.742C115.882 146.54 120.747 152.125 122.216 153.975L122.237 153.992H126.717L126.614 153.906ZM111.407 140.829C111.407 138.651 111.523 136.468 111.629 134.267C112.404 134.21 113.48 134.116 115.136 134.116C117.628 134.116 120.765 134.902 120.768 138.054C120.768 141.625 116.825 142.645 113.811 142.645C113.007 142.662 112.203 142.614 111.407 142.5" fill="#050809"/>
<path d="M172.081 152.121L172.099 152.042L172.014 152.057C169.72 152.419 165.431 152.45 162.178 152.45C162.131 151.684 162.105 150.197 162.105 147.94C162.105 145.081 162.105 144.29 162.131 143.576C163.939 143.576 168.489 143.643 170.991 143.849H171.063L171.048 143.78V141.941L171.063 141.878H170.991C168.835 142.033 166.431 142.184 162.139 142.189C162.139 141.401 162.105 139.768 162.105 138.223C162.105 136.751 162.203 135.695 162.242 134.397C166.975 134.397 168.768 134.616 171.835 134.792H171.915L171.887 134.721V132.935L171.908 132.869H158.691V132.928C158.839 135.509 158.986 138.162 158.986 140.781V146.01C158.986 148.624 158.839 151.274 158.691 153.916V153.977H172.094V153.909" fill="#050809"/>
<path d="M180.943 139.343C180.943 136.425 180.77 133.477 180.597 130.541H190.446C195.391 130.541 199.425 131.87 199.425 135.91C199.425 140.299 193.896 142.062 190.58 142.404C192.719 144.477 200.029 151.784 202.562 153.996H197.398C195.647 151.92 189.824 145.666 186.072 142.71H184.409V145.196C184.409 148.112 184.587 151.063 184.765 153.996H180.597C180.77 151.075 180.943 148.112 180.943 145.196V139.343ZM184.409 141.281C185.379 141.416 186.36 141.472 187.34 141.45C190.929 141.45 195.693 140.299 195.693 136.257C195.693 132.686 191.89 131.798 188.915 131.798C186.901 131.798 185.591 131.9 184.667 131.967C184.533 134.451 184.409 136.897 184.409 139.343" fill="#050809"/>
<path d="M136.623 132.943V132.889H132.917V132.943C133.07 135.565 133.209 138.212 133.209 140.829V146.063C133.209 148.672 133.07 151.324 132.917 153.941V153.995H136.623V153.941C136.478 151.324 136.331 148.672 136.331 146.063V140.829C136.331 138.212 136.478 135.565 136.623 132.943ZM152.786 153.906C148.654 150.024 144.595 146.111 140.68 142.428C143.335 139.898 149.021 135.427 152.373 132.971L152.509 132.879H149.057L149.039 132.897C145.682 136.07 140.747 140.398 137.349 142.89L137.292 142.936L137.341 142.976C139.074 144.458 145.088 150.49 148.489 153.967L148.507 153.985H152.879" fill="#050809"/>
<path d="M184.739 71.8523C179.802 68.5901 172.042 66.0217 162.425 64.2236C153.108 62.4382 142.043 61.4002 130.165 61.367C130.126 58.6864 130.092 56.9648 130.092 56.9648C130.092 56.9648 131.239 56.4164 131.316 55.5008C131.394 54.5851 130.423 49.1244 129.943 47.6859C129.462 46.2474 129.307 46 129.01 46C128.713 46 128.566 46.2193 128.083 47.6859C127.639 49.1168 126.635 54.6183 126.712 55.5008C126.789 56.3832 127.936 56.9648 127.936 56.9648C127.936 56.9648 127.936 58.6864 127.861 61.367C111.9 61.441 97.4209 63.2722 86.6552 66.2819C81.1575 67.8122 76.5558 69.6894 73.2892 71.8523C70.0226 74.0151 68.0161 76.5478 68.0161 79.2616C68.0161 81.9754 70.0226 84.5412 73.2892 86.699C78.224 89.933 86.0226 92.4963 95.6365 94.3302C104.476 96.0161 114.942 97.0082 126.193 97.1893L128.644 94.3684L128.974 49.4101H129.049L129.385 94.3684L131.835 97.1893C147.169 96.97 160.979 95.1744 171.373 92.277C176.904 90.7467 181.47 88.8644 184.739 86.699C188.008 84.5335 190.012 82.0111 190.012 79.2616C190.012 76.5121 188.006 74.0126 184.739 71.8523ZM126.304 93.5318C126.304 93.8991 126.263 94.5521 126.229 95.4396C113.124 95.1846 101.356 93.2768 92.8554 90.3794C88.3234 88.8491 84.7572 87.0025 82.3841 85.0972C80.0109 83.192 78.8541 81.2459 78.8541 79.2718C78.8541 77.2977 80.0084 75.3822 82.3841 73.4744C85.9115 70.6153 92.2227 67.9397 100.352 66.1059C108.148 64.3078 117.653 63.2085 127.861 63.132C127.75 71.0565 127.531 84.1816 127.306 86.199C127.009 89.1704 126.304 90.7084 126.304 93.5318ZM175.642 85.0972C172.114 87.9589 165.803 90.5987 157.674 92.4708C150.286 94.195 141.377 95.256 131.76 95.4396C131.76 94.5572 131.722 93.9093 131.722 93.5318C131.722 90.7084 131.017 89.1704 130.72 86.199C130.498 84.1459 130.276 71.0565 130.165 63.0988C143.939 63.2085 156.339 65.1903 165.173 68.1999C169.705 69.7302 173.305 71.5717 175.642 73.4795C178.02 75.3873 179.167 77.3283 179.167 79.2769C179.167 81.2255 178.02 83.1996 175.642 85.1023" fill="#050809"/>
<path d="M128.595 103.061L125.772 106.279C125.751 106.891 125.715 107.501 125.697 108.088L128.579 104.797" fill="#050809"/>
<path d="M128.579 105.664L125.659 108.993C125.636 109.628 125.615 110.237 125.594 110.806L128.572 107.406" fill="#050809"/>
<path d="M128.613 100.564L125.891 103.661C125.865 104.227 125.839 104.798 125.816 105.362L128.602 102.182" fill="#050809"/>
<path d="M132.543 114.371L129.01 110.334L125.48 114.354V114.451C125.48 114.871 125.816 115.139 126.493 115.139H131.523C132.202 115.139 132.556 114.871 132.556 114.451" fill="#050809"/>
<path d="M128.564 108.27L125.555 111.703C125.535 112.376 125.512 112.978 125.506 113.488L128.551 110.037" fill="#050809"/>
<path d="M128.651 95.4023L126.139 98.2666C126.113 98.792 126.09 99.3378 126.064 99.9015L128.633 96.9633" fill="#050809"/>
<path d="M128.631 98.0059L126.015 100.99C125.989 101.533 125.966 102.079 125.935 102.635L128.615 99.5744" fill="#050809"/>
<path d="M131.972 99.9142C131.947 99.3506 131.918 98.8048 131.895 98.2845L129.375 95.4023V96.9607" fill="#050809"/>
<path d="M129.455 107.407L132.453 110.822C132.432 110.254 132.412 109.642 132.378 109.012L129.442 105.66" fill="#050809"/>
<path d="M129.405 99.5786L132.091 102.639C132.07 102.08 132.047 101.533 132.021 100.999L129.393 97.9922" fill="#050809"/>
<path d="M129.473 110.014L132.535 113.506C132.535 112.996 132.499 112.397 132.476 111.721L129.465 108.252" fill="#050809"/>
<path d="M129.439 104.788L132.339 108.103C132.313 107.507 132.282 106.9 132.264 106.287L129.424 103.051" fill="#050809"/>
<path d="M129.424 102.18L132.225 105.376C132.197 104.81 132.166 104.243 132.14 103.675L129.411 100.553" fill="#050809"/>
</g>
<defs>
<clipPath id="clip0_4775_142">
<rect width="144" height="108" fill="white" transform="translate(58.5625 46)"/>
</clipPath>
</defs>
</svg>
