<svg width="16" height="18" viewBox="0 0 16 18" fill="none" xmlns="http://www.w3.org/2000/svg">
<path d="M14.6669 12.6901V14.9401C14.6677 15.149 14.6297 15.3557 14.5553 15.5471C14.4809 15.7385 14.3718 15.9103 14.235 16.0515C14.0982 16.1927 13.9367 16.3002 13.7608 16.3671C13.5849 16.434 13.3985 16.4589 13.2136 16.4401C11.1622 16.1893 9.19161 15.4007 7.46028 14.1376C5.8495 12.9861 4.48384 11.4497 3.46028 9.63758C2.3336 7.68098 1.63244 5.45332 1.41361 3.13507C1.39695 2.92767 1.41886 2.71864 1.47795 2.52129C1.53703 2.32394 1.63199 2.14259 1.75679 1.98879C1.88159 1.83499 2.03348 1.7121 2.20281 1.62796C2.37213 1.54382 2.55517 1.50027 2.74028 1.50007H4.74028C5.06382 1.49649 5.37748 1.62538 5.62279 1.86272C5.8681 2.10006 6.02833 2.42966 6.07361 2.79007C6.15803 3.51012 6.31458 4.21712 6.54028 4.89757C6.62998 5.16602 6.64939 5.45776 6.59622 5.73823C6.54305 6.01871 6.41952 6.27616 6.24028 6.48007L5.39361 7.43257C6.34265 9.31023 7.72458 10.8649 9.39361 11.9326L10.2403 10.9801C10.4215 10.7784 10.6504 10.6395 10.8997 10.5796C11.149 10.5198 11.4083 10.5417 11.6469 10.6426C12.2518 10.8965 12.8802 11.0726 13.5203 11.1676C13.8441 11.219 14.1399 11.4025 14.3513 11.6832C14.5627 11.9639 14.6751 12.3223 14.6669 12.6901Z" fill="#001636" fill-opacity="0.92"/>
</svg>
