<svg width="1600" height="12" viewBox="0 0 1600 12" fill="none" xmlns="http://www.w3.org/2000/svg">
<path d="M1431.3 0.0442854C1423.65 -0.117496 1415.99 0.164315 1408.47 0.884262C1404.7 1.23759 1401.67 2.72008 1402.03 4.80465C1402.33 6.60707 1405.92 8.45089 1409.71 8.0919C1417.23 7.37444 1424.9 7.09541 1432.55 7.2602C1436.38 7.33886 1439.29 5.10451 1438.99 3.33516C1438.59 1.16994 1435.12 0.1157 1431.3 0.0442854Z" fill="#490069"/>
<path d="M1475.45 0.256636L1459.4 0.158709C1455.58 0.129653 1452.65 2.27305 1452.96 4.0791C1453.33 6.1921 1456.77 7.33207 1460.65 7.36997L1476.68 7.46892C1480.5 7.49797 1483.43 5.35457 1483.12 3.54853C1482.77 1.42987 1479.27 0.272782 1475.45 0.256636Z" fill="#490069"/>
<path d="M1520.95 2.05822L1504.89 2.02846C1501.08 2.00666 1498.13 4.12633 1498.45 5.94891C1498.8 8.04174 1502.28 9.23388 1506.13 9.2361L1522.19 9.26587C1525.99 9.28767 1528.94 7.16806 1528.63 5.34548C1528.27 3.25265 1524.83 2.07495 1520.95 2.05822Z" fill="#490069"/>
<path d="M1579.12 2.59564C1572.82 2.04688 1566.42 1.91386 1560.06 2.19985C1550.97 2.61027 1552.19 9.81893 1561.28 9.41677C1566.38 9.1825 1571.51 9.28687 1576.55 9.72725C1585.55 10.5014 1588.12 3.38271 1579.12 2.59564Z" fill="#490069"/>
<path d="M1631.6 4.43796C1623.31 3.63566 1614.01 4.15123 1605.88 5.08042C1602.15 5.51179 1600.51 8.07363 1601.7 9.72824C1603.17 11.7593 1607.07 12.2875 1610.8 11.8644C1609.63 12.001 1611.83 11.7875 1612.05 11.7697C1612.94 11.7056 1613.83 11.6451 1614.72 11.5939C1616.62 11.487 1618.54 11.4215 1620.45 11.3771C1623.29 11.2475 1626.16 11.3049 1628.97 11.5478C1638.02 12.4331 1640.56 5.3154 1631.6 4.43796Z" fill="#490069"/>
<path d="M1674.28 2.1616L1656.29 2.28211C1652.46 2.30368 1649.54 4.35873 1649.85 6.2025C1650.21 8.27415 1653.69 9.51233 1657.53 9.48974L1675.54 9.38478C1679.38 9.36219 1682.3 7.30345 1681.98 5.46433C1681.6 3.37715 1678.12 2.13902 1674.28 2.1616Z" fill="#490069"/>
<path d="M1134.3 0.0442854C1126.65 -0.117496 1118.99 0.164315 1111.47 0.884262C1107.7 1.23759 1104.67 2.72008 1105.03 4.80465C1105.33 6.60707 1108.92 8.45089 1112.71 8.0919C1120.23 7.37444 1127.9 7.09541 1135.55 7.2602C1139.38 7.33886 1142.29 5.10451 1141.99 3.33516C1141.59 1.16994 1138.12 0.1157 1134.3 0.0442854Z" fill="#490069"/>
<path d="M1178.45 0.256636L1162.4 0.158709C1158.58 0.129653 1155.65 2.27305 1155.96 4.0791C1156.33 6.1921 1159.77 7.33207 1163.65 7.36997L1179.68 7.46892C1183.5 7.49797 1186.43 5.35457 1186.12 3.54853C1185.77 1.42987 1182.27 0.272782 1178.45 0.256636Z" fill="#490069"/>
<path d="M1223.95 2.05822L1207.89 2.02846C1204.08 2.00666 1201.13 4.12633 1201.45 5.94891C1201.8 8.04174 1205.28 9.23388 1209.13 9.2361L1225.19 9.26587C1228.99 9.28767 1231.94 7.16806 1231.63 5.34548C1231.27 3.25265 1227.83 2.07495 1223.95 2.05822Z" fill="#490069"/>
<path d="M1282.12 2.59564C1275.82 2.04688 1269.42 1.91386 1263.06 2.19985C1253.97 2.61027 1255.19 9.81893 1264.28 9.41677C1269.38 9.1825 1274.51 9.28687 1279.55 9.72725C1288.55 10.5014 1291.12 3.38271 1282.12 2.59564Z" fill="#490069"/>
<path d="M1334.6 4.43796C1326.31 3.63566 1317.01 4.15123 1308.88 5.08042C1305.15 5.51179 1303.51 8.07363 1304.7 9.72824C1306.17 11.7593 1310.07 12.2875 1313.8 11.8644C1312.63 12.001 1314.83 11.7875 1315.05 11.7697C1315.94 11.7056 1316.83 11.6451 1317.72 11.5939C1319.62 11.487 1321.54 11.4215 1323.45 11.3771C1326.29 11.2475 1329.16 11.3049 1331.97 11.5478C1341.02 12.4331 1343.56 5.3154 1334.6 4.43796Z" fill="#490069"/>
<path d="M1377.28 2.1616L1359.29 2.28211C1355.46 2.30368 1352.54 4.35873 1352.85 6.2025C1353.21 8.27415 1356.69 9.51233 1360.53 9.48974L1378.54 9.38478C1382.38 9.36219 1385.3 7.30345 1384.98 5.46433C1384.6 3.37715 1381.12 2.13902 1377.28 2.1616Z" fill="#490069"/>
<path d="M837.304 0.0442854C829.654 -0.117496 821.992 0.164315 814.466 0.884262C810.705 1.23759 807.675 2.72008 808.028 4.80465C808.33 6.60707 811.922 8.45089 815.707 8.0919C823.234 7.37444 830.896 7.09541 838.547 7.2602C842.379 7.33886 845.286 5.10451 844.992 3.33516C844.586 1.16994 841.119 0.1157 837.304 0.0442854Z" fill="#490069"/>
<path d="M881.445 0.256636L865.402 0.158709C861.581 0.129653 858.652 2.27305 858.963 4.0791C859.332 6.1921 862.77 7.33207 866.651 7.36997L882.678 7.46892C886.499 7.49797 889.428 5.35457 889.117 3.54853C888.772 1.42987 885.271 0.272782 881.445 0.256636Z" fill="#490069"/>
<path d="M926.947 2.05822L910.887 2.02846C907.084 2.00666 904.133 4.12633 904.448 5.94891C904.803 8.04174 908.279 9.23388 912.127 9.2361L928.187 9.26587C931.99 9.28767 934.94 7.16806 934.625 5.34548C934.27 3.25265 930.831 2.07495 926.947 2.05822Z" fill="#490069"/>
<path d="M985.116 2.59564C978.823 2.04688 972.417 1.91386 966.058 2.19985C956.967 2.61027 958.191 9.81893 967.284 9.41677C972.377 9.1825 977.508 9.28687 982.548 9.72725C991.554 10.5014 994.117 3.38271 985.116 2.59564Z" fill="#490069"/>
<path d="M1037.6 4.43796C1029.31 3.63566 1020.01 4.15123 1011.88 5.08042C1008.15 5.51179 1006.51 8.07363 1007.7 9.72824C1009.17 11.7593 1013.07 12.2875 1016.8 11.8644C1015.63 12.001 1017.83 11.7875 1018.05 11.7697C1018.94 11.7056 1019.83 11.6451 1020.72 11.5939C1022.62 11.487 1024.54 11.4215 1026.45 11.3771C1029.29 11.2475 1032.16 11.3049 1034.97 11.5478C1044.02 12.4331 1046.56 5.3154 1037.6 4.43796Z" fill="#490069"/>
<path d="M1080.28 2.1616L1062.29 2.28211C1058.46 2.30368 1055.54 4.35873 1055.85 6.2025C1056.21 8.27415 1059.69 9.51233 1063.53 9.48974L1081.54 9.38478C1085.38 9.36219 1088.3 7.30345 1087.98 5.46433C1087.6 3.37715 1084.12 2.13902 1080.28 2.1616Z" fill="#490069"/>
<path d="M540.304 0.0442854C532.654 -0.117496 524.992 0.164315 517.466 0.884262C513.705 1.23759 510.675 2.72008 511.028 4.80465C511.33 6.60707 514.922 8.45089 518.707 8.0919C526.234 7.37444 533.896 7.09541 541.547 7.2602C545.379 7.33886 548.286 5.10451 547.992 3.33516C547.586 1.16994 544.119 0.1157 540.304 0.0442854Z" fill="#490069"/>
<path d="M584.445 0.256636L568.402 0.158709C564.581 0.129653 561.652 2.27305 561.963 4.0791C562.332 6.1921 565.77 7.33207 569.651 7.36997L585.678 7.46892C589.499 7.49797 592.428 5.35457 592.117 3.54853C591.772 1.42987 588.271 0.272782 584.445 0.256636Z" fill="#490069"/>
<path d="M629.947 2.05822L613.887 2.02846C610.084 2.00666 607.133 4.12633 607.448 5.94891C607.803 8.04174 611.279 9.23388 615.127 9.2361L631.187 9.26587C634.99 9.28767 637.94 7.16806 637.625 5.34548C637.27 3.25265 633.831 2.07495 629.947 2.05822Z" fill="#490069"/>
<path d="M688.116 2.59564C681.823 2.04688 675.417 1.91386 669.058 2.19985C659.967 2.61027 661.191 9.81893 670.284 9.41677C675.377 9.1825 680.508 9.28687 685.548 9.72725C694.554 10.5014 697.116 3.38271 688.116 2.59564Z" fill="#490069"/>
<path d="M740.597 4.43796C732.307 3.63566 723.012 4.15123 714.884 5.08042C711.149 5.51179 709.513 8.07363 710.7 9.72824C712.175 11.7593 716.066 12.2875 719.803 11.8644C718.628 12.001 720.829 11.7875 721.046 11.7697C721.935 11.7056 722.833 11.6451 723.716 11.5939C725.622 11.487 727.538 11.4215 729.451 11.3771C732.295 11.2475 735.159 11.3049 737.975 11.5478C747.016 12.4331 749.562 5.3154 740.597 4.43796Z" fill="#490069"/>
<path d="M783.277 2.1616L765.289 2.28211C761.464 2.30368 758.538 4.35873 758.85 6.2025C759.209 8.27415 762.688 9.51233 766.529 9.48974L784.538 9.38478C788.379 9.36219 791.295 7.30345 790.976 5.46433C790.597 3.37715 787.119 2.13902 783.277 2.1616Z" fill="#490069"/>
<path d="M243.304 0.0442854C235.654 -0.117496 227.992 0.164315 220.466 0.884262C216.705 1.23759 213.675 2.72008 214.028 4.80465C214.33 6.60707 217.922 8.45089 221.707 8.0919C229.234 7.37444 236.896 7.09541 244.547 7.2602C248.379 7.33886 251.286 5.10451 250.992 3.33516C250.586 1.16994 247.119 0.1157 243.304 0.0442854Z" fill="#490069"/>
<path d="M287.445 0.256636L271.402 0.158709C267.581 0.129653 264.652 2.27305 264.963 4.0791C265.332 6.1921 268.77 7.33207 272.651 7.36997L288.678 7.46892C292.499 7.49797 295.428 5.35457 295.117 3.54853C294.772 1.42987 291.271 0.272782 287.445 0.256636Z" fill="#490069"/>
<path d="M332.947 2.05822L316.887 2.02846C313.084 2.00666 310.133 4.12633 310.448 5.94891C310.803 8.04174 314.279 9.23388 318.127 9.2361L334.187 9.26587C337.99 9.28767 340.94 7.16806 340.625 5.34548C340.27 3.25265 336.831 2.07495 332.947 2.05822Z" fill="#490069"/>
<path d="M391.116 2.59564C384.823 2.04688 378.417 1.91386 372.058 2.19985C362.967 2.61027 364.191 9.81893 373.284 9.41677C378.377 9.1825 383.508 9.28687 388.548 9.72725C397.554 10.5014 400.116 3.38271 391.116 2.59564Z" fill="#490069"/>
<path d="M443.597 4.43796C435.307 3.63566 426.012 4.15123 417.884 5.08042C414.149 5.51179 412.513 8.07363 413.7 9.72824C415.175 11.7593 419.066 12.2875 422.803 11.8644C421.628 12.001 423.829 11.7875 424.046 11.7697C424.935 11.7056 425.833 11.6451 426.716 11.5939C428.622 11.487 430.538 11.4215 432.451 11.3771C435.295 11.2475 438.159 11.3049 440.975 11.5478C450.016 12.4331 452.562 5.3154 443.597 4.43796Z" fill="#490069"/>
<path d="M486.277 2.1616L468.289 2.28211C464.464 2.30368 461.538 4.35873 461.85 6.2025C462.209 8.27415 465.688 9.51233 469.529 9.48974L487.538 9.38478C491.379 9.36219 494.295 7.30345 493.976 5.46433C493.597 3.37715 490.119 2.13902 486.277 2.1616Z" fill="#490069"/>
<path d="M-53.6957 0.0442854C-61.346 -0.117496 -69.0076 0.164315 -76.5335 0.884262C-80.2954 1.23759 -83.3253 2.72008 -82.9719 4.80465C-82.67 6.60707 -79.0785 8.45089 -75.2933 8.0919C-67.7662 7.37444 -60.1038 7.09541 -52.4535 7.2602C-48.6206 7.33886 -45.714 5.10451 -46.008 3.33516C-46.4136 1.16994 -49.881 0.1157 -53.6957 0.0442854Z" fill="#490069"/>
<path d="M-9.5546 0.256636L-25.5984 0.158709C-29.4193 0.129653 -32.3478 2.27305 -32.0368 4.0791C-31.6684 6.1921 -28.2297 7.33207 -24.3491 7.36997L-8.32151 7.46892C-4.50058 7.49797 -1.57206 5.35457 -1.8831 3.54853C-2.22823 1.42987 -5.72856 0.272782 -9.5546 0.256636Z" fill="#490069"/>
<path d="M35.9468 2.05822L19.8866 2.02846C16.0838 2.00666 13.1331 4.12633 13.4481 5.94891C13.8034 8.04174 17.2794 9.23388 21.1268 9.2361L37.187 9.26587C40.9898 9.28767 43.9405 7.16806 43.6255 5.34548C43.2701 3.25265 39.8305 2.07495 35.9468 2.05822Z" fill="#490069"/>
<path d="M94.1157 2.59564C87.8225 2.04688 81.4173 1.91386 75.0576 2.19985C65.9667 2.61027 67.1907 9.81893 76.2836 9.41677C81.3767 9.1825 86.5078 9.28687 91.5483 9.72725C100.554 10.5014 103.116 3.38271 94.1157 2.59564Z" fill="#490069"/>
<path d="M146.597 4.43796C138.307 3.63566 129.012 4.15123 120.884 5.08042C117.149 5.51179 115.513 8.07363 116.7 9.72824C118.175 11.7593 122.066 12.2875 125.803 11.8644C124.628 12.001 126.829 11.7875 127.046 11.7697C127.935 11.7056 128.833 11.6451 129.716 11.5939C131.622 11.487 133.538 11.4215 135.451 11.3771C138.295 11.2475 141.16 11.3049 143.975 11.5478C153.016 12.4331 155.562 5.3154 146.597 4.43796Z" fill="#490069"/>
<path d="M189.277 2.1616L171.289 2.28211C167.463 2.30368 164.538 4.35873 164.85 6.2025C165.209 8.27415 168.687 9.51233 172.529 9.48974L190.538 9.38478C194.379 9.36219 197.295 7.30345 196.976 5.46433C196.597 3.37715 193.119 2.13902 189.277 2.1616Z" fill="#490069"/>
</svg>
