<svg width="1600" height="24" viewBox="0 0 1600 24" fill="none" xmlns="http://www.w3.org/2000/svg">
<path d="M1431.3 6.04429C1423.65 5.8825 1415.99 6.16431 1408.47 6.88426C1404.7 7.23759 1401.67 8.72008 1402.03 10.8046C1402.33 12.6071 1405.92 14.4509 1409.71 14.0919C1417.23 13.3744 1424.9 13.0954 1432.55 13.2602C1436.38 13.3389 1439.29 11.1045 1438.99 9.33516C1438.59 7.16994 1435.12 6.1157 1431.3 6.04429Z" fill="#490069"/>
<path d="M1475.45 6.25664L1459.4 6.15871C1455.58 6.12965 1452.65 8.27305 1452.96 10.0791C1453.33 12.1921 1456.77 13.3321 1460.65 13.37L1476.68 13.4689C1480.5 13.498 1483.43 11.3546 1483.12 9.54853C1482.77 7.42987 1479.27 6.27278 1475.45 6.25664Z" fill="#490069"/>
<path d="M1520.95 8.05822L1504.89 8.02846C1501.08 8.00666 1498.13 10.1263 1498.45 11.9489C1498.8 14.0417 1502.28 15.2339 1506.13 15.2361L1522.19 15.2659C1525.99 15.2877 1528.94 13.1681 1528.63 11.3455C1528.27 9.25265 1524.83 8.07495 1520.95 8.05822Z" fill="#490069"/>
<path d="M1579.12 8.59564C1572.82 8.04688 1566.42 7.91386 1560.06 8.19985C1550.97 8.61027 1552.19 15.8189 1561.28 15.4168C1566.38 15.1825 1571.51 15.2869 1576.55 15.7272C1585.55 16.5014 1588.12 9.38271 1579.12 8.59564Z" fill="#490069"/>
<path d="M1631.6 10.438C1623.31 9.63566 1614.01 10.1512 1605.88 11.0804C1602.15 11.5118 1600.51 14.0736 1601.7 15.7282C1603.17 17.7593 1607.07 18.2875 1610.8 17.8644C1609.63 18.001 1611.83 17.7875 1612.05 17.7697C1612.94 17.7056 1613.83 17.6451 1614.72 17.5939C1616.62 17.487 1618.54 17.4215 1620.45 17.3771C1623.29 17.2475 1626.16 17.3049 1628.97 17.5478C1638.02 18.4331 1640.56 11.3154 1631.6 10.438Z" fill="#490069"/>
<path d="M1674.28 8.1616L1656.29 8.28211C1652.46 8.30368 1649.54 10.3587 1649.85 12.2025C1650.21 14.2742 1653.69 15.5123 1657.53 15.4897L1675.54 15.3848C1679.38 15.3622 1682.3 13.3035 1681.98 11.4643C1681.6 9.37715 1678.12 8.13902 1674.28 8.1616Z" fill="#490069"/>
<path d="M1134.3 6.04429C1126.65 5.8825 1118.99 6.16431 1111.47 6.88426C1107.7 7.23759 1104.67 8.72008 1105.03 10.8046C1105.33 12.6071 1108.92 14.4509 1112.71 14.0919C1120.23 13.3744 1127.9 13.0954 1135.55 13.2602C1139.38 13.3389 1142.29 11.1045 1141.99 9.33516C1141.59 7.16994 1138.12 6.1157 1134.3 6.04429Z" fill="#490069"/>
<path d="M1178.45 6.25664L1162.4 6.15871C1158.58 6.12965 1155.65 8.27305 1155.96 10.0791C1156.33 12.1921 1159.77 13.3321 1163.65 13.37L1179.68 13.4689C1183.5 13.498 1186.43 11.3546 1186.12 9.54853C1185.77 7.42987 1182.27 6.27278 1178.45 6.25664Z" fill="#490069"/>
<path d="M1223.95 8.05822L1207.89 8.02846C1204.08 8.00666 1201.13 10.1263 1201.45 11.9489C1201.8 14.0417 1205.28 15.2339 1209.13 15.2361L1225.19 15.2659C1228.99 15.2877 1231.94 13.1681 1231.63 11.3455C1231.27 9.25265 1227.83 8.07495 1223.95 8.05822Z" fill="#490069"/>
<path d="M1282.12 8.59564C1275.82 8.04688 1269.42 7.91386 1263.06 8.19985C1253.97 8.61027 1255.19 15.8189 1264.28 15.4168C1269.38 15.1825 1274.51 15.2869 1279.55 15.7272C1288.55 16.5014 1291.12 9.38271 1282.12 8.59564Z" fill="#490069"/>
<path d="M1334.6 10.438C1326.31 9.63566 1317.01 10.1512 1308.88 11.0804C1305.15 11.5118 1303.51 14.0736 1304.7 15.7282C1306.17 17.7593 1310.07 18.2875 1313.8 17.8644C1312.63 18.001 1314.83 17.7875 1315.05 17.7697C1315.94 17.7056 1316.83 17.6451 1317.72 17.5939C1319.62 17.487 1321.54 17.4215 1323.45 17.3771C1326.29 17.2475 1329.16 17.3049 1331.97 17.5478C1341.02 18.4331 1343.56 11.3154 1334.6 10.438Z" fill="#490069"/>
<path d="M1377.28 8.1616L1359.29 8.28211C1355.46 8.30368 1352.54 10.3587 1352.85 12.2025C1353.21 14.2742 1356.69 15.5123 1360.53 15.4897L1378.54 15.3848C1382.38 15.3622 1385.3 13.3035 1384.98 11.4643C1384.6 9.37715 1381.12 8.13902 1377.28 8.1616Z" fill="#490069"/>
<path d="M837.304 6.04429C829.654 5.8825 821.992 6.16431 814.466 6.88426C810.705 7.23759 807.675 8.72008 808.028 10.8046C808.33 12.6071 811.922 14.4509 815.707 14.0919C823.234 13.3744 830.896 13.0954 838.547 13.2602C842.379 13.3389 845.286 11.1045 844.992 9.33516C844.586 7.16994 841.119 6.1157 837.304 6.04429Z" fill="#490069"/>
<path d="M881.445 6.25664L865.402 6.15871C861.581 6.12965 858.652 8.27305 858.963 10.0791C859.332 12.1921 862.77 13.3321 866.651 13.37L882.678 13.4689C886.499 13.498 889.428 11.3546 889.117 9.54853C888.772 7.42987 885.271 6.27278 881.445 6.25664Z" fill="#490069"/>
<path d="M926.947 8.05822L910.887 8.02846C907.084 8.00666 904.133 10.1263 904.448 11.9489C904.803 14.0417 908.279 15.2339 912.127 15.2361L928.187 15.2659C931.99 15.2877 934.94 13.1681 934.625 11.3455C934.27 9.25265 930.831 8.07495 926.947 8.05822Z" fill="#490069"/>
<path d="M985.116 8.59564C978.823 8.04688 972.417 7.91386 966.058 8.19985C956.967 8.61027 958.191 15.8189 967.284 15.4168C972.377 15.1825 977.508 15.2869 982.548 15.7272C991.554 16.5014 994.117 9.38271 985.116 8.59564Z" fill="#490069"/>
<path d="M1037.6 10.438C1029.31 9.63566 1020.01 10.1512 1011.88 11.0804C1008.15 11.5118 1006.51 14.0736 1007.7 15.7282C1009.17 17.7593 1013.07 18.2875 1016.8 17.8644C1015.63 18.001 1017.83 17.7875 1018.05 17.7697C1018.94 17.7056 1019.83 17.6451 1020.72 17.5939C1022.62 17.487 1024.54 17.4215 1026.45 17.3771C1029.29 17.2475 1032.16 17.3049 1034.97 17.5478C1044.02 18.4331 1046.56 11.3154 1037.6 10.438Z" fill="#490069"/>
<path d="M1080.28 8.1616L1062.29 8.28211C1058.46 8.30368 1055.54 10.3587 1055.85 12.2025C1056.21 14.2742 1059.69 15.5123 1063.53 15.4897L1081.54 15.3848C1085.38 15.3622 1088.3 13.3035 1087.98 11.4643C1087.6 9.37715 1084.12 8.13902 1080.28 8.1616Z" fill="#490069"/>
<path d="M540.304 6.04429C532.654 5.8825 524.992 6.16431 517.466 6.88426C513.705 7.23759 510.675 8.72008 511.028 10.8046C511.33 12.6071 514.922 14.4509 518.707 14.0919C526.234 13.3744 533.896 13.0954 541.547 13.2602C545.379 13.3389 548.286 11.1045 547.992 9.33516C547.586 7.16994 544.119 6.1157 540.304 6.04429Z" fill="#490069"/>
<path d="M584.445 6.25664L568.402 6.15871C564.581 6.12965 561.652 8.27305 561.963 10.0791C562.332 12.1921 565.77 13.3321 569.651 13.37L585.678 13.4689C589.499 13.498 592.428 11.3546 592.117 9.54853C591.772 7.42987 588.271 6.27278 584.445 6.25664Z" fill="#490069"/>
<path d="M629.947 8.05822L613.887 8.02846C610.084 8.00666 607.133 10.1263 607.448 11.9489C607.803 14.0417 611.279 15.2339 615.127 15.2361L631.187 15.2659C634.99 15.2877 637.94 13.1681 637.625 11.3455C637.27 9.25265 633.831 8.07495 629.947 8.05822Z" fill="#490069"/>
<path d="M688.116 8.59564C681.823 8.04688 675.417 7.91386 669.058 8.19985C659.967 8.61027 661.191 15.8189 670.284 15.4168C675.377 15.1825 680.508 15.2869 685.548 15.7272C694.554 16.5014 697.116 9.38271 688.116 8.59564Z" fill="#490069"/>
<path d="M740.597 10.438C732.307 9.63566 723.012 10.1512 714.884 11.0804C711.149 11.5118 709.513 14.0736 710.7 15.7282C712.175 17.7593 716.066 18.2875 719.803 17.8644C718.628 18.001 720.829 17.7875 721.046 17.7697C721.935 17.7056 722.833 17.6451 723.716 17.5939C725.622 17.487 727.538 17.4215 729.451 17.3771C732.295 17.2475 735.159 17.3049 737.975 17.5478C747.016 18.4331 749.562 11.3154 740.597 10.438Z" fill="#490069"/>
<path d="M783.277 8.1616L765.289 8.28211C761.464 8.30368 758.538 10.3587 758.85 12.2025C759.209 14.2742 762.688 15.5123 766.529 15.4897L784.538 15.3848C788.379 15.3622 791.295 13.3035 790.976 11.4643C790.597 9.37715 787.119 8.13902 783.277 8.1616Z" fill="#490069"/>
<path d="M243.304 6.04429C235.654 5.8825 227.992 6.16431 220.466 6.88426C216.705 7.23759 213.675 8.72008 214.028 10.8046C214.33 12.6071 217.922 14.4509 221.707 14.0919C229.234 13.3744 236.896 13.0954 244.547 13.2602C248.379 13.3389 251.286 11.1045 250.992 9.33516C250.586 7.16994 247.119 6.1157 243.304 6.04429Z" fill="#490069"/>
<path d="M287.445 6.25664L271.402 6.15871C267.581 6.12965 264.652 8.27305 264.963 10.0791C265.332 12.1921 268.77 13.3321 272.651 13.37L288.678 13.4689C292.499 13.498 295.428 11.3546 295.117 9.54853C294.772 7.42987 291.271 6.27278 287.445 6.25664Z" fill="#490069"/>
<path d="M332.947 8.05822L316.887 8.02846C313.084 8.00666 310.133 10.1263 310.448 11.9489C310.803 14.0417 314.279 15.2339 318.127 15.2361L334.187 15.2659C337.99 15.2877 340.94 13.1681 340.625 11.3455C340.27 9.25265 336.831 8.07495 332.947 8.05822Z" fill="#490069"/>
<path d="M391.116 8.59564C384.823 8.04688 378.417 7.91386 372.058 8.19985C362.967 8.61027 364.191 15.8189 373.284 15.4168C378.377 15.1825 383.508 15.2869 388.548 15.7272C397.554 16.5014 400.116 9.38271 391.116 8.59564Z" fill="#490069"/>
<path d="M443.597 10.438C435.307 9.63566 426.012 10.1512 417.884 11.0804C414.149 11.5118 412.513 14.0736 413.7 15.7282C415.175 17.7593 419.066 18.2875 422.803 17.8644C421.628 18.001 423.829 17.7875 424.046 17.7697C424.935 17.7056 425.833 17.6451 426.716 17.5939C428.622 17.487 430.538 17.4215 432.451 17.3771C435.295 17.2475 438.159 17.3049 440.975 17.5478C450.016 18.4331 452.562 11.3154 443.597 10.438Z" fill="#490069"/>
<path d="M486.277 8.1616L468.289 8.28211C464.464 8.30368 461.538 10.3587 461.85 12.2025C462.209 14.2742 465.688 15.5123 469.529 15.4897L487.538 15.3848C491.379 15.3622 494.295 13.3035 493.976 11.4643C493.597 9.37715 490.119 8.13902 486.277 8.1616Z" fill="#490069"/>
<path d="M-53.6957 6.04429C-61.346 5.8825 -69.0076 6.16431 -76.5335 6.88426C-80.2954 7.23759 -83.3253 8.72008 -82.9719 10.8046C-82.67 12.6071 -79.0785 14.4509 -75.2933 14.0919C-67.7662 13.3744 -60.1038 13.0954 -52.4535 13.2602C-48.6206 13.3389 -45.714 11.1045 -46.008 9.33516C-46.4136 7.16994 -49.881 6.1157 -53.6957 6.04429Z" fill="#490069"/>
<path d="M-9.5546 6.25664L-25.5984 6.15871C-29.4193 6.12965 -32.3478 8.27305 -32.0368 10.0791C-31.6684 12.1921 -28.2297 13.3321 -24.3491 13.37L-8.32151 13.4689C-4.50058 13.498 -1.57206 11.3546 -1.8831 9.54853C-2.22823 7.42987 -5.72856 6.27278 -9.5546 6.25664Z" fill="#490069"/>
<path d="M35.9468 8.05822L19.8866 8.02846C16.0838 8.00666 13.1331 10.1263 13.4481 11.9489C13.8034 14.0417 17.2794 15.2339 21.1268 15.2361L37.187 15.2659C40.9898 15.2877 43.9405 13.1681 43.6255 11.3455C43.2701 9.25265 39.8305 8.07495 35.9468 8.05822Z" fill="#490069"/>
<path d="M94.1157 8.59564C87.8225 8.04688 81.4173 7.91386 75.0576 8.19985C65.9667 8.61027 67.1907 15.8189 76.2836 15.4168C81.3767 15.1825 86.5078 15.2869 91.5483 15.7272C100.554 16.5014 103.116 9.38271 94.1157 8.59564Z" fill="#490069"/>
<path d="M146.597 10.438C138.307 9.63566 129.012 10.1512 120.884 11.0804C117.149 11.5118 115.513 14.0736 116.7 15.7282C118.175 17.7593 122.066 18.2875 125.803 17.8644C124.628 18.001 126.829 17.7875 127.046 17.7697C127.935 17.7056 128.833 17.6451 129.716 17.5939C131.622 17.487 133.538 17.4215 135.451 17.3771C138.295 17.2475 141.16 17.3049 143.975 17.5478C153.016 18.4331 155.562 11.3154 146.597 10.438Z" fill="#490069"/>
<path d="M189.277 8.1616L171.289 8.28211C167.463 8.30368 164.538 10.3587 164.85 12.2025C165.209 14.2742 168.687 15.5123 172.529 15.4897L190.538 15.3848C194.379 15.3622 197.295 13.3035 196.976 11.4643C196.597 9.37715 193.119 8.13902 189.277 8.1616Z" fill="#490069"/>
</svg>
