<svg width="221" height="170" viewBox="0 0 221 170" fill="none" xmlns="http://www.w3.org/2000/svg">
<path d="M53.909 121.612C54.4909 121.354 54.9329 120.971 55.2497 120.47C55.5591 119.969 55.7212 119.38 55.7212 118.717C55.7212 117.921 55.4928 117.251 55.0434 116.706C54.5941 116.161 54.0047 115.807 53.2754 115.638C52.7966 115.527 51.8758 115.468 50.5277 115.468H48.0967V127.653H49.3122V121.995H49.9973L54.3804 127.653H55.8906L51.5074 121.995C52.5314 122.003 53.327 121.87 53.909 121.612ZM49.3122 120.816V116.676H51.4632C52.2957 116.676 52.8924 116.75 53.2533 116.89C53.6143 117.037 53.9016 117.273 54.1226 117.605C54.3436 117.936 54.4541 118.312 54.4541 118.717C54.4541 119.137 54.3436 119.52 54.13 119.859C53.909 120.198 53.6069 120.448 53.2165 120.603C52.8261 120.758 52.222 120.831 51.4117 120.831L49.3122 120.816Z" fill="#020203"/>
<path d="M65.6367 115.476L59.876 127.66H61.2314L63.132 123.653H68.3845L70.2998 127.66H71.6184L65.9387 115.476H65.6367ZM63.6919 122.481L65.7767 118.069L67.8541 122.481H63.6919Z" fill="#020203"/>
<path d="M82.0202 121.612C82.6021 121.354 83.0441 120.971 83.3609 120.47C83.6703 119.969 83.8324 119.38 83.8324 118.717C83.8324 117.921 83.604 117.251 83.1546 116.706C82.7053 116.161 82.1159 115.807 81.3866 115.638C80.9078 115.527 79.987 115.468 78.6389 115.468H76.2079V127.653H77.4234V121.995H78.1085L82.4916 127.653H84.0018L79.6186 121.995C80.6352 122.003 81.4382 121.87 82.0202 121.612ZM77.4234 120.816V116.676H79.5744C80.4069 116.676 81.0036 116.75 81.3645 116.89C81.7255 117.037 82.0128 117.273 82.2338 117.605C82.4548 117.936 82.5653 118.312 82.5653 118.717C82.5653 119.137 82.4548 119.52 82.2412 119.859C82.0202 120.198 81.7181 120.448 81.3277 120.603C80.9373 120.758 80.3332 120.831 79.5229 120.831L77.4234 120.816Z" fill="#020203"/>
<path d="M89.0701 127.667H96.0095V126.474H90.2929V121.686H96.0095V120.492H90.2929V116.669H96.0537V115.476H89.0701V127.667Z" fill="#020203"/>
<path d="M113.999 121.612C114.581 121.354 115.023 120.971 115.34 120.47C115.649 119.969 115.811 119.38 115.811 118.717C115.811 117.921 115.583 117.251 115.133 116.706C114.677 116.161 114.095 115.807 113.365 115.638C112.887 115.527 111.966 115.468 110.618 115.468H108.187V127.653H109.402V121.995H110.087L114.47 127.653H115.981L111.597 121.995C112.621 122.003 113.417 121.87 113.999 121.612ZM109.402 120.816V116.676H111.553C112.386 116.676 112.982 116.75 113.343 116.89C113.704 117.037 113.992 117.273 114.213 117.605C114.434 117.936 114.544 118.312 114.544 118.717C114.544 119.137 114.434 119.52 114.22 119.859C113.999 120.198 113.697 120.448 113.306 120.603C112.916 120.758 112.312 120.831 111.502 120.831L109.402 120.816Z" fill="#020203"/>
<path d="M125.727 115.476L119.966 127.66H121.321L123.222 123.653H128.474L130.39 127.66H131.708L126.029 115.476H125.727ZM123.782 122.481L125.867 118.069L127.944 122.481H123.782Z" fill="#020203"/>
<path d="M142.478 121.782C142.14 121.494 141.646 121.236 141.02 121.023C141.528 120.75 141.919 120.389 142.184 119.94C142.449 119.498 142.582 119.004 142.582 118.459C142.582 117.877 142.434 117.354 142.132 116.875C141.83 116.404 141.418 116.05 140.902 115.822C140.386 115.594 139.642 115.476 138.67 115.476H136.268V127.66H139.613C140.814 127.66 141.779 127.321 142.493 126.644C143.208 125.966 143.569 125.141 143.569 124.161C143.569 123.682 143.473 123.233 143.281 122.82C143.082 122.422 142.817 122.069 142.478 121.782ZM137.454 116.669H138.869C139.723 116.669 140.342 116.831 140.732 117.148C141.123 117.465 141.314 117.907 141.314 118.459C141.314 118.872 141.197 119.247 140.968 119.594C140.732 119.932 140.423 120.183 140.025 120.338C139.628 120.492 139.001 120.573 138.154 120.573H137.454V116.669ZM141.919 125.391C141.668 125.76 141.337 126.032 140.917 126.209C140.504 126.386 139.849 126.467 138.957 126.467H137.447V121.796H138.139C139.171 121.796 139.893 121.848 140.305 121.944C140.924 122.091 141.41 122.371 141.764 122.769C142.117 123.174 142.294 123.645 142.294 124.183C142.302 124.625 142.176 125.023 141.919 125.391Z" fill="#020203"/>
<path d="M154.847 121.782C154.508 121.494 154.015 121.236 153.388 121.023C153.897 120.75 154.287 120.389 154.552 119.94C154.818 119.498 154.95 119.004 154.95 118.459C154.95 117.877 154.803 117.354 154.501 116.875C154.199 116.404 153.786 116.05 153.271 115.822C152.755 115.594 152.011 115.476 151.038 115.476H148.637V127.66H151.981C153.182 127.66 154.147 127.321 154.862 126.644C155.576 125.966 155.937 125.141 155.937 124.161C155.937 123.682 155.842 123.233 155.65 122.82C155.458 122.422 155.193 122.069 154.847 121.782ZM149.823 116.669H151.237C152.092 116.669 152.711 116.831 153.101 117.148C153.492 117.465 153.683 117.907 153.683 118.459C153.683 118.872 153.565 119.247 153.337 119.594C153.101 119.932 152.792 120.183 152.394 120.338C151.996 120.492 151.37 120.573 150.523 120.573H149.823V116.669ZM154.295 125.391C154.044 125.76 153.713 126.032 153.293 126.209C152.88 126.386 152.224 126.467 151.333 126.467H149.823V121.796H150.515C151.547 121.796 152.269 121.848 152.681 121.944C153.3 122.091 153.786 122.371 154.14 122.769C154.493 123.174 154.67 123.645 154.67 124.183C154.67 124.625 154.545 125.023 154.295 125.391Z" fill="#020203"/>
<path d="M162.015 115.476H160.799V127.66H162.015V115.476Z" fill="#020203"/>
<path d="M166.229 115.476V116.669H168.947V127.667H170.192V116.669H172.903V115.476H166.229Z" fill="#020203"/>
<path d="M134.272 48.5421L131.104 46.7299L120.577 55.9235L120.533 55.9604L113.034 68.7121H110.109L102.625 56.0046L92.0315 46.7226L88.8712 48.5348L90.0498 63.6806L97.4975 70.8779L100.761 76.4029V81.9279L97.3576 86.0458L97.6522 94.6133L105.321 99.3206H107.045L110.537 102.827H112.607L116.098 99.3206H117.822L125.491 94.6133L125.778 86.0458L122.375 81.9279V76.425L125.66 70.8631L133.02 63.7543L133.012 63.7469L133.086 63.6733L134.272 48.5421ZM132.452 63.3197L123.671 67.8502L121.388 69.6624L123.878 57.7578L131.259 47.5771L133.579 48.9031L132.452 63.3197ZM121.712 81.9205L119.811 84.0274H118.257L117.844 82.694L121.712 77.3458V81.9205ZM125.152 70.4285L122.22 75.3715L121.24 70.6348L124.01 68.4321L130.898 64.874L125.152 70.4285ZM121.056 56.3876L129.196 49.2788L123.296 57.4263L123.237 57.5516L120.548 70.4285V70.5611L121.557 75.4378L113.66 68.9625L121.056 56.3876ZM109.483 68.9699L101.608 75.4526L102.617 70.5758V70.4432L99.9285 57.5663L99.8696 57.4411L93.991 49.3304L102.08 56.395L109.483 68.9699ZM92.2304 64.8667L99.1477 68.4395L101.918 70.6421L100.938 75.401L98.0427 70.5022L92.2304 64.8667ZM101.424 77.3458L105.291 82.7014L104.879 84.0347H103.325L101.424 81.9279V77.3458ZM89.5636 48.9105L91.8915 47.5771L99.2803 57.7726L101.77 69.6771L99.5381 67.9017L90.6834 63.327L89.5636 48.9105ZM112.327 102.164H110.809L108.592 99.9394L110.389 100.683L111.465 99.8215L112.54 100.683L114.684 99.792L112.327 102.164ZM124.835 94.2302L117.631 98.6502H116.592L119.126 96.2708L119.435 90.7752L115.082 87.4897L115.236 80.0273L117.844 77.53L117.38 77.0511L114.573 79.74L114.411 87.8138L118.75 91.092L118.47 95.9687L115.561 98.7018L112.643 99.9099L111.789 99.2248V95.3352L114.352 93.6114V92.0791H113.682V93.2578L111.457 94.7532L109.233 93.2578V92.0791H108.562V93.6114L111.118 95.3352V99.2248L110.264 99.9099L107.354 98.7091L107.303 98.6576H107.295L104.437 95.9761L104.157 91.0994L108.496 87.8212L108.334 79.7473L105.527 77.0585L105.063 77.5373L107.671 80.0346L107.826 87.4971L103.472 90.7826L103.781 96.2781L106.315 98.6576H105.483L98.2784 94.2376L98.0058 86.2816L101.078 82.5614L103 84.6977H105.343L106.006 82.5761L101.52 76.366L110.006 69.3751H113.078L121.579 76.3513L117.086 82.5761L117.748 84.6977H120.091L122.014 82.5614L125.086 86.2816L124.835 94.2302Z" fill="#020203"/>
<path d="M139.952 80.2114C140.033 80.8302 140.092 81.449 140.158 82.0605C140.246 82.834 140.46 82.9445 141.263 82.6277C140.674 81.4785 141.329 80.0052 140.261 78.9591C140.349 78.8781 140.416 78.8191 140.489 78.7602C141.197 78.1635 141.337 77.39 141.138 76.5428C140.939 75.703 140.364 75.1947 139.51 75.0916C138.817 75.0106 138.117 75.0253 137.418 75.0106C136.828 74.9958 136.231 75.0106 135.657 75.0106C135.657 77.6478 135.657 80.182 135.657 82.7382C135.944 82.7382 136.18 82.7382 136.489 82.7382C136.489 81.6185 136.489 80.5356 136.489 79.4379C137.447 79.4379 138.338 79.4158 139.222 79.4453C139.672 79.4453 139.893 79.7842 139.952 80.2114ZM136.519 78.4729C136.519 77.6184 136.519 76.7565 136.519 75.8577C137.447 75.8577 138.353 75.7988 139.244 75.8798C139.944 75.9388 140.298 76.4839 140.291 77.1911C140.283 77.8909 139.944 78.3992 139.267 78.4582C138.368 78.5318 137.462 78.4729 136.519 78.4729Z" fill="#020203"/>
<path d="M83.7587 75.0695C82.9042 75.1726 82.3296 75.6809 82.1307 76.5207C81.9318 77.3679 82.0644 78.1488 82.7789 78.7381C82.8526 78.797 82.9189 78.8633 83.0073 78.937C81.9391 79.9831 82.5948 81.4638 82.0054 82.613C82.8084 82.9371 83.022 82.8192 83.1104 82.0457C83.1767 81.4269 83.2357 80.8081 83.3167 80.1893C83.3756 79.7694 83.5966 79.4306 84.0534 79.4158C84.9447 79.3864 85.8361 79.4085 86.7938 79.4085C86.7938 80.5061 86.7938 81.589 86.7938 82.7161C87.1032 82.7161 87.3463 82.7161 87.6336 82.7161C87.6336 80.1599 87.6336 77.6184 87.6336 74.9737C87.059 74.9737 86.4623 74.9664 85.8656 74.9737C85.1584 75.0032 84.4512 74.9885 83.7587 75.0695ZM86.7569 78.4655C85.814 78.4655 84.9005 78.5245 84.0018 78.4434C83.3241 78.3845 82.9852 77.8762 82.9778 77.1764C82.9705 76.4618 83.3241 75.924 84.0239 75.8577C84.9226 75.7767 85.8287 75.8356 86.7569 75.8356C86.7569 76.7491 86.7569 77.611 86.7569 78.4655Z" fill="#020203"/>
<path d="M106.617 48.9768C109.874 48.9768 113.093 48.9768 116.305 48.9768C116.489 47.6066 116.489 47.6066 117.41 47.4666C117.41 45.7649 117.41 44.0632 117.41 42.332C116.621 43.0908 115.863 43.8201 115.06 44.601C114.485 43.9085 113.918 43.2234 113.321 42.5015C112.695 43.2013 112.098 43.879 111.472 44.5789C110.846 43.879 110.249 43.2087 109.623 42.5015C109.026 43.2234 108.452 43.9159 107.848 44.6452C107.045 43.8717 106.286 43.135 105.535 42.4057C105.535 44.0853 105.535 45.787 105.535 47.5034C106.669 47.4519 106.529 48.3064 106.617 48.9768ZM106.131 46.6268C106.117 45.7428 106.124 44.8588 106.124 43.8643C106.75 44.4978 107.288 45.0503 107.862 45.6323C108.467 44.903 109.041 44.2179 109.63 43.5033C110.242 44.1884 110.839 44.8588 111.465 45.5586C112.084 44.8662 112.68 44.1958 113.299 43.5033C113.888 44.2105 114.448 44.8883 115.03 45.5955C115.605 45.0209 116.157 44.4684 116.806 43.8201C116.806 44.8662 116.813 45.787 116.798 46.7078C116.798 46.7889 116.702 46.892 116.621 46.9436C115.966 47.3782 115.863 47.5255 115.693 48.3359C112.887 48.3359 110.065 48.3359 107.236 48.3359C107.126 47.7171 106.897 47.1867 106.279 46.9215C106.198 46.8846 106.131 46.7299 106.131 46.6268Z" fill="#020203"/>
</svg>
