<svg width="90" height="60" viewBox="0 0 90 60" fill="none" xmlns="http://www.w3.org/2000/svg">
<path d="M85.2289 38.6746C78.0899 41.3491 69.3539 42.7055 62.3617 38.8277C60.5907 37.8455 59.0691 36.3542 57.9387 34.599M57.9387 34.599C56.217 31.9256 55.4027 28.6397 55.9966 25.6072C56.9258 20.8627 59.8644 16.4501 64.977 15.9866C67.6419 15.745 70.074 16.7023 70.88 19.441C72.1114 23.625 68.3555 28.5331 65.1783 30.7799C62.9816 32.3333 60.5349 33.6113 57.9387 34.599ZM2.98858 36.7713C10.0059 39.7496 18.6755 41.4797 25.8281 37.9054C27.6398 37.0001 29.2241 35.5755 30.429 33.8704M30.429 33.8704C32.2642 31.2733 33.2192 28.0254 32.7563 24.9702C32.0322 20.1902 29.2862 15.6556 24.1983 14.9732C21.5463 14.6174 19.0752 15.4695 18.1521 18.1711C16.7417 22.2984 20.283 27.3631 23.3605 29.7442C25.4883 31.3904 27.8777 32.7722 30.429 33.8704ZM30.429 33.8704C39.3937 37.7292 49.3983 38.5985 58.0295 34.631" stroke="#0F143A" stroke-opacity="0.7" stroke-width="3" stroke-linecap="round"/>
<path d="M7.09375 44.3594C5.70695 42.7051 2.64885 38.8 1.5108 36.4141" stroke="#0F143A" stroke-opacity="0.7" stroke-width="3" stroke-linecap="round"/>
<path d="M1.50977 36.4141C3.50056 35.5756 8.00827 33.4979 10.1127 31.8953" stroke="#0F143A" stroke-opacity="0.7" stroke-width="3" stroke-linecap="round"/>
</svg>
