<svg width="61" height="40" viewBox="0 0 61 40" fill="none" xmlns="http://www.w3.org/2000/svg">
<path d="M3.18137 14.2169C7.94073 12.434 13.7647 11.5296 18.4262 14.1149C19.6069 14.7697 20.6213 15.7638 21.3749 16.934M21.3749 16.934C22.5227 18.7163 23.0655 20.9069 22.6696 22.9286C22.0501 26.0915 20.091 29.0333 16.6826 29.3423C14.9061 29.5034 13.2846 28.8651 12.7473 27.0393C11.9264 24.25 14.4303 20.9779 16.5485 19.4801C18.0129 18.4444 19.6441 17.5925 21.3749 16.934ZM58.0083 15.4858C53.33 13.5003 47.5503 12.3469 42.7819 14.7297C41.5741 15.3333 40.5179 16.283 39.7146 17.4198M39.7146 17.4198C38.4912 19.1511 37.8545 21.3164 38.1631 23.3532C38.6458 26.5399 40.4765 29.5629 43.8685 30.0179C45.6365 30.255 47.2839 29.687 47.8993 27.8859C48.8395 25.1344 46.4787 21.7579 44.427 20.1706C43.0085 19.073 41.4155 18.1519 39.7146 17.4198ZM39.7146 17.4198C33.7382 14.8472 27.0684 14.2677 21.3143 16.9127" stroke="#0F143A" stroke-opacity="0.7" stroke-width="3" stroke-linecap="round"/>
<path d="M55.2715 10.4297C56.196 11.5326 58.2348 14.136 58.9935 15.7265" stroke="#0F143A" stroke-opacity="0.7" stroke-width="3" stroke-linecap="round"/>
<path d="M58.9941 15.7266C57.6669 16.2856 54.6618 17.6707 53.2588 18.7391" stroke="#0F143A" stroke-opacity="0.7" stroke-width="3" stroke-linecap="round"/>
</svg>
