<svg width="64" height="50" viewBox="0 0 64 50" fill="none" xmlns="http://www.w3.org/2000/svg">
<path fill-rule="evenodd" clip-rule="evenodd" d="M31.5053 14.5147C32.0528 14.5871 32.4379 15.0897 32.3654 15.6372C32.231 16.6528 31.9558 17.9328 31.5073 19.2739C31.0981 20.4978 30.5446 21.7726 29.8223 22.9439C28.9868 24.2988 27.8909 25.5637 26.4967 26.4267C25.3597 27.1304 24.0242 27.5669 22.4697 27.5669C21.9174 27.5669 21.4697 27.1192 21.4697 26.5669C21.4697 26.0146 21.9174 25.5669 22.4697 25.5669C24.9614 25.5669 26.7947 24.0432 28.12 21.8942C29.4482 19.7403 30.1519 17.1194 30.3827 15.3748C30.4552 14.8273 30.9578 14.4422 31.5053 14.5147Z" fill="#0B8AFF"/>
<path fill-rule="evenodd" clip-rule="evenodd" d="M31.1912 35.5837C30.6483 35.4827 30.29 34.9606 30.391 34.4176C30.5469 33.5798 30.8598 32.5401 31.3625 31.4535C31.8442 30.4122 32.5003 29.3278 33.3594 28.3368C34.3147 27.2349 35.5245 26.2468 37.0172 25.5679C38.305 24.9822 39.8034 24.6266 41.5307 24.6266C42.0829 24.6266 42.5307 25.0743 42.5307 25.6266C42.5307 26.1789 42.0829 26.6266 41.5307 26.6266C38.4705 26.6266 36.3328 27.9603 34.8706 29.6469C33.3845 31.361 32.6085 33.4329 32.3573 34.7835C32.2563 35.3264 31.7342 35.6847 31.1912 35.5837Z" fill="#0B8AFF"/>
<path fill-rule="evenodd" clip-rule="evenodd" d="M31.213 14.4136C30.6679 14.5026 30.2982 15.0166 30.3872 15.5617C30.5559 16.5949 30.9141 17.9116 31.5073 19.2739C31.9647 20.3243 32.5617 21.4017 33.3192 22.3973C34.2732 23.6513 35.4952 24.7891 37.0172 25.5679C38.3016 26.2251 39.7996 26.6266 41.5307 26.6266C42.0829 26.6266 42.5307 26.1789 42.5307 25.6266C42.5307 25.0743 42.0829 24.6266 41.5307 24.6266C38.5236 24.6266 36.3935 23.135 34.9109 21.1864C33.409 19.2124 32.6188 16.8182 32.3611 15.2394C32.2721 14.6943 31.7581 14.3246 31.213 14.4136Z" fill="#0B8AFF"/>
<path fill-rule="evenodd" clip-rule="evenodd" d="M31.5533 35.5844C32.0966 35.4854 32.4569 34.9647 32.3579 34.4213C32.2065 33.5902 31.8877 32.5392 31.3625 31.4535C30.9519 30.6046 30.4151 29.7345 29.7335 28.9316C28.8894 27.9374 27.8187 27.0431 26.4967 26.4267C25.349 25.8915 24.0121 25.5658 22.4697 25.5658C21.9174 25.5658 21.4697 26.0135 21.4697 26.5658C21.4697 27.118 21.9174 27.5658 22.4697 27.5658C25.1032 27.5658 26.9434 28.7355 28.2088 30.226C29.4974 31.744 30.1721 33.5824 30.3903 34.7798C30.4892 35.3231 31.01 35.6833 31.5533 35.5844Z" fill="#0B8AFF"/>
<path d="M31.5073 19.2739C31.0981 20.4978 30.5446 21.7726 29.8223 22.9439C28.9868 24.2988 27.8909 25.5637 26.4967 26.4267C27.8187 27.0431 28.8894 27.9374 29.7335 28.9316C30.4151 29.7345 30.9519 30.6046 31.3625 31.4535C31.8442 30.4122 32.5003 29.3278 33.3594 28.3368C34.3147 27.2349 35.5245 26.2468 37.0172 25.5679C35.4952 24.7891 34.2732 23.6513 33.3192 22.3973C32.5617 21.4017 31.9647 20.3243 31.5073 19.2739Z" fill="#0B8AFF"/>
<path fill-rule="evenodd" clip-rule="evenodd" d="M30.5659 0.270476C31.1134 0.34293 31.4985 0.845512 31.4261 1.39302C30.8031 6.10063 28.9239 13.1579 25.2785 19.0693C21.6301 24.9855 16.099 29.914 8.17383 29.914C7.62154 29.914 7.17383 29.4663 7.17383 28.914C7.17383 28.3617 7.62154 27.914 8.17383 27.914C15.1299 27.914 20.1193 23.6251 23.5761 18.0195C27.0359 12.4092 28.8465 5.64043 29.4433 1.13064C29.5158 0.583131 30.0184 0.198022 30.5659 0.270476Z" fill="#2A3DA0"/>
<path fill-rule="evenodd" clip-rule="evenodd" d="M30.252 49.983C29.709 49.8819 29.3507 49.3599 29.4517 48.8169C30.1744 44.9327 32.3445 39.1524 36.5315 34.323C40.7423 29.4662 47.0046 25.565 55.8262 25.565C56.3785 25.565 56.8262 26.0128 56.8262 26.565C56.8262 27.1173 56.3785 27.565 55.8262 27.565C47.6738 27.565 41.9362 31.1422 38.0426 35.6331C34.1252 40.1516 32.0867 45.5887 31.418 49.1827C31.317 49.7257 30.7949 50.084 30.252 49.983Z" fill="#2A3DA0"/>
<path fill-rule="evenodd" clip-rule="evenodd" d="M30.2737 0.0132192C29.7287 0.10221 29.3589 0.616216 29.4479 1.16128C30.1641 5.54767 32.32 12.1013 36.4912 17.5839C40.6816 23.0917 46.9515 27.5654 55.8262 27.5654C56.3785 27.5654 56.8262 27.1177 56.8262 26.5654C56.8262 26.0131 56.3785 25.5654 55.8262 25.5654C47.7269 25.5654 41.9968 21.5173 38.0829 16.3729C34.1498 11.2033 32.097 4.97437 31.4218 0.83902C31.3328 0.293952 30.8188 -0.0757715 30.2737 0.0132192Z" fill="#2A3DA0"/>
<path fill-rule="evenodd" clip-rule="evenodd" d="M30.6139 49.9836C31.1573 49.8846 31.5175 49.3639 31.4185 48.8206C30.7828 45.331 28.8746 40.139 25.1897 35.7983C21.4814 31.4301 15.9572 27.9129 8.17383 27.9129C7.62154 27.9129 7.17383 28.3606 7.17383 28.9129C7.17383 29.4652 7.62154 29.9129 8.17383 29.9129C15.2717 29.9129 20.2681 33.0913 23.665 37.0927C27.0852 41.1215 28.8668 45.973 29.4509 49.179C29.5499 49.7224 30.0706 50.0826 30.6139 49.9836Z" fill="#2A3DA0"/>
</svg>
