<svg width="16" height="16" viewBox="0 0 16 16" fill="none" xmlns="http://www.w3.org/2000/svg">
<g clip-path="url(#clip0_4605_6825)">
<path d="M13.7146 0.726562H2.28598C1.42559 0.726562 0.727539 1.42461 0.727539 2.285V13.7136C0.727539 14.574 1.42559 15.272 2.28598 15.272H13.7146C14.5749 15.272 15.273 14.574 15.273 13.7136V2.285C15.273 1.42461 14.5749 0.726562 13.7146 0.726562ZM12.1269 5.88241C12.1334 5.97332 12.1334 6.06747 12.1334 6.15838C12.1334 8.97332 9.99053 12.2168 6.07494 12.2168C4.86715 12.2168 3.74702 11.8662 2.80546 11.2623C2.97754 11.2818 3.14312 11.2883 3.31845 11.2883C4.3152 11.2883 5.23079 10.9506 5.96131 10.3792C5.02624 10.3597 4.24053 9.74604 3.97105 8.90189C4.29897 8.95059 4.59442 8.95059 4.93208 8.86293C3.95806 8.66487 3.22754 7.80773 3.22754 6.77202V6.74604C3.51001 6.90513 3.84118 7.00254 4.18858 7.01552C3.89651 6.82125 3.65708 6.55769 3.49165 6.24837C3.32623 5.93904 3.23995 5.59358 3.24053 5.2428C3.24053 4.84669 3.34442 4.48306 3.52949 4.16812C4.57819 5.46033 6.15286 6.30448 7.9191 6.39539C7.61715 4.95059 8.69832 3.77851 9.99702 3.77851C10.6107 3.77851 11.1626 4.035 11.5522 4.45059C12.0327 4.35968 12.4938 4.18111 12.9029 3.9376C12.7438 4.43111 12.4094 4.84669 11.9678 5.10968C12.3964 5.06422 12.812 4.9441 13.1951 4.77851C12.9061 5.20384 12.5425 5.58046 12.1269 5.88241Z" fill="#0F143A"/>
</g>
<defs>
<clipPath id="clip0_4605_6825">
<rect width="16" height="16" fill="white"/>
</clipPath>
</defs>
</svg>
