<svg width="221" height="170" viewBox="0 0 221 170" fill="none" xmlns="http://www.w3.org/2000/svg">
<g clip-path="url(#clip0_4585_8309)">
<path d="M185.279 80.9699L184.915 80.9513C184.656 80.5989 184.514 80.175 184.511 79.7391C184.507 79.3032 184.642 78.8772 184.896 78.5209L185.279 78.4961V80.9699Z" fill="#ECECEC"/>
<path d="M184.89 94.6247L185.279 94.5938V97.0738H184.928C184.659 96.7226 184.51 96.2958 184.503 95.8553C184.496 95.4149 184.632 94.9838 184.89 94.6247Z" fill="#ECECEC"/>
<path d="M147.352 78.2405C150.745 78.2405 154.139 78.2901 157.529 78.2157C158.856 78.1878 158.896 78.8636 158.925 79.8556C158.956 80.9344 158.58 81.2785 157.482 81.2816C154.223 81.2816 154.223 81.3312 154.223 84.6079C154.223 88.2659 154.179 91.927 154.248 95.585C154.273 96.8405 154.057 97.4016 152.574 97.4202C150.962 97.4419 150.98 96.6421 151.006 95.5106C151.04 91.2326 150.977 86.9546 151.046 82.6797C151.068 81.4955 150.701 81.1545 149.541 81.232C147.979 81.232 146.568 81.232 145.15 81.232C144.005 81.1576 143.77 81.6009 143.783 82.6394C143.836 87.0197 143.754 91.4 143.836 95.7803C143.861 97.1257 143.356 97.383 142.117 97.4047C140.816 97.4295 140.549 96.9583 140.549 95.7865C140.609 91.4465 140.549 87.1282 140.599 82.8006C140.599 81.635 140.452 81.2506 139.069 81.2506C138.57 81.232 138.1 81.2785 137.664 81.2754C136.218 81.2785 135.829 80.9147 135.829 79.4588C135.829 78.7985 136.256 78.2188 137.171 78.2188C140.567 78.2188 143.946 78.2405 147.352 78.2405Z" fill="#1F1F1F"/>
<path d="M78.1435 85.6206C78.1435 87.4806 78.1686 89.3406 78.1435 91.2006C78.0808 95.0818 75.2895 97.6548 71.112 97.7106C66.671 97.7788 63.7167 95.3546 63.61 91.3618C63.5034 87.369 63.61 83.4165 63.5473 79.4454C63.5254 78.1403 64.3189 78.2426 65.1876 78.2333C66.0563 78.224 66.8153 78.2054 66.7934 79.4733C66.7275 83.1344 66.7589 86.7986 66.7746 90.4628C66.7746 93.2528 68.142 94.6137 70.8517 94.6199C73.5614 94.6261 74.9288 93.2683 74.9571 90.4907C74.9727 86.9846 74.9947 83.4754 74.9571 79.9507C74.9571 78.7944 75.0888 78.1527 76.5252 78.1682C77.8707 78.1837 78.2313 78.6146 78.1717 79.8701C78.0745 81.7983 78.1435 83.711 78.1435 85.6206Z" fill="#1E1E1E"/>
<path d="M81.4713 90.0935C81.4713 88.1839 81.44 86.2743 81.4713 84.3678C81.5435 80.5982 84.3159 78.0407 88.4276 77.9043C92.6553 77.7648 95.7915 80.1115 95.9703 83.8811C96.1648 87.9979 96.0299 92.1302 96.0801 96.2563C96.0989 97.6234 95.1549 97.332 94.3583 97.363C93.5617 97.394 92.7901 97.4498 92.8152 96.2346C92.8654 92.5735 92.8403 88.9093 92.8152 85.2482C92.8152 82.3559 91.4572 80.9764 88.6785 81.0012C85.9844 81.0229 84.639 82.3993 84.6233 85.2017C84.6233 88.7109 84.5668 92.2201 84.6484 95.7417C84.6766 97.0034 84.3348 97.4002 82.9987 97.4312C81.5497 97.4622 81.3835 96.8453 81.4306 95.6797C81.5247 93.8104 81.4713 91.9504 81.4713 90.0935Z" fill="#1E1E1E"/>
<path d="M184.911 94.4065V97.3453C183.575 97.3453 183.262 97.3453 182.192 97.3453C180.282 97.3453 178.401 97.3453 176.547 97.3453C174.499 97.3143 173.348 96.2045 173.336 94.1678C173.304 89.8898 173.317 85.6149 173.336 81.3369C173.336 79.8923 173.994 78.6368 175.434 78.457C178.714 78.457 184.911 78.457 184.911 78.457V81.2253C182.635 81.2253 181.066 81.2253 179.062 81.2253C176.535 81.309 176.531 81.247 176.531 83.7704C176.531 86.9045 176.563 90.0355 176.513 93.1665C176.513 94.1151 176.826 94.3724 177.767 94.4065C180.126 94.4065 182.478 94.4065 184.911 94.4065Z" fill="#1F1F1F"/>
<path d="M164.601 86.3736C164.601 88.6428 164.645 90.912 164.579 93.1936C164.554 94.1577 164.892 94.4615 165.833 94.4336C167.188 94.3685 168.552 94.4801 169.91 94.3964C171.181 94.3189 171.199 95.035 171.193 95.9464C171.193 96.8051 171.168 97.453 169.982 97.4065C168.101 97.3352 166.219 97.4282 164.337 97.3755C162.64 97.3259 161.455 96.2285 161.433 94.539C161.37 89.4891 161.433 84.433 161.383 79.38C161.383 78.0191 162.324 78.3043 163.108 78.2671C163.958 78.2268 164.651 78.2671 164.619 79.4389C164.541 81.7329 164.601 84.0517 164.601 86.3736Z" fill="#1F1F1F"/>
<path d="M181.264 86.2383H182.518C184.359 86.2383 184.359 86.4962 184.359 87.7883C184.359 88.7183 184.359 89.0841 183.262 89.1027C182.164 89.1213 181.127 89.1213 179.984 89.1213C178.4 89.1027 178.4 88.7183 178.4 87.7883C178.4 86.5834 178.4 86.2383 179.969 86.2383C180.439 86.2383 180.753 86.2383 181.264 86.2383Z" fill="#222222"/>
<path fill-rule="evenodd" clip-rule="evenodd" d="M99.344 85.7053C99.3461 86.409 99.3482 87.1127 99.3482 87.8164C99.3482 88.2746 99.3476 88.7329 99.347 89.191C99.3448 90.7939 99.3426 92.3956 99.367 93.9916C99.367 96.2484 100.452 97.3365 102.67 97.3644C103.791 97.3768 104.906 97.3727 106.02 97.3685C106.576 97.3665 107.132 97.3644 107.688 97.3644C110.181 97.3396 111.984 96.205 112.982 93.9544C113.926 91.8216 113.37 89.7136 111.489 87.9683C111.467 87.9481 111.446 87.9285 111.425 87.9095C111.068 87.5823 110.87 87.4002 111.332 86.9081C112.884 85.2434 113.066 83.2842 112.125 81.3095C111.144 79.2418 109.312 78.3397 107.067 78.256C105.555 78.2033 104.04 78.2095 102.528 78.256C100.487 78.318 99.3733 79.4557 99.3482 81.4831C99.3357 82.8905 99.3398 84.2979 99.344 85.7053ZM102.528 86.2562C102.523 86.7905 102.519 87.325 102.519 87.8598C102.519 88.3533 102.521 88.8482 102.523 89.3439C102.528 90.6481 102.533 91.9581 102.503 93.2631C102.488 94.004 102.644 94.4318 103.526 94.3977C104.15 94.3727 104.78 94.3769 105.411 94.3811C106.189 94.3863 106.969 94.3916 107.744 94.3419C108.084 94.3289 108.418 94.2488 108.727 94.1064C109.035 93.964 109.312 93.7622 109.54 93.5127C109.769 93.2632 109.945 92.9711 110.057 92.6535C110.17 92.336 110.217 91.9994 110.197 91.6635C110.188 91.0119 109.931 90.3873 109.478 89.9141C109.025 89.4408 108.408 89.1534 107.75 89.1091C107.192 89.06 106.628 89.0687 106.064 89.0775C105.845 89.0809 105.626 89.0843 105.408 89.0843C105.399 89.0842 105.39 89.0842 105.381 89.0841C104.966 89.0813 104.611 89.0789 104.467 88.5263C104.05 86.9236 104.523 86.2354 106.154 86.2354C106.468 86.2439 106.782 86.2366 107.095 86.2137C108.563 86.0587 109.488 85.0264 109.431 83.6283C109.432 83.3181 109.37 83.011 109.25 82.7245C109.13 82.4381 108.953 82.178 108.731 81.9592C108.508 81.7405 108.244 81.5674 107.954 81.4501C107.663 81.3327 107.352 81.2733 107.038 81.2754C106.516 81.2486 105.99 81.2561 105.464 81.2636C104.893 81.2717 104.322 81.2799 103.755 81.2444C102.814 81.1855 102.463 81.4862 102.5 82.4534C102.549 83.7206 102.538 84.9879 102.528 86.2562Z" fill="#1E1E1E"/>
<path fill-rule="evenodd" clip-rule="evenodd" d="M125.897 97.7108C131.539 97.7015 135.88 93.3615 135.851 87.7536C135.844 85.7898 135.247 83.8723 134.136 82.2442C133.025 80.6161 131.45 79.3505 129.611 78.6079C127.772 77.8652 125.751 77.6788 123.804 78.0723C121.858 78.4658 120.073 79.4216 118.677 80.8185C117.28 82.2153 116.335 83.9905 115.96 85.919C115.585 87.8475 115.797 89.8427 116.571 91.6517C117.344 93.4607 118.643 95.0022 120.303 96.0808C121.963 97.1594 123.91 97.7267 125.897 97.7108ZM125.991 80.9987C122.124 80.9398 119.129 83.8569 119.091 87.7071C119.054 91.6193 121.882 94.5736 125.762 94.6263C129.642 94.679 132.609 91.8053 132.662 87.9272C132.715 84.0491 129.858 81.0576 125.991 80.9987Z" fill="#1E1E1E"/>
<path d="M41.2766 70.8147L38.7675 72.3647C38.2971 71.7447 37.3562 70.2257 37.3562 69.1097C37.3562 67.7147 37.8267 66.3197 38.6107 65.5447C40.3033 63.8717 43.3151 63.2198 45.1969 63.8398C47.0787 64.4598 47.9673 66.3714 48.49 67.7147C48.49 68.283 48.7113 69.6386 48.49 70.3497C47.8627 72.3647 47.0787 73.1397 43.7856 74.9997C41.1511 76.4877 39.3948 76.2397 39.0812 78.2547V98.4047C39.0812 99.1487 39.5516 100.11 41.1197 100.11C41.5407 100.153 42.2506 100.257 43.0015 100.32C43.9424 100.32 44.7264 100.32 45.6673 100.11C46.9218 99.8287 46.765 98.5597 46.765 97.1647V79.9597C46.765 77.4797 46.2946 77.7897 46.1378 77.4797C46.0123 77.2317 45.1446 76.5497 44.7265 76.2397L47.8627 74.2247L48.0195 74.3797C49.5249 75.4957 50.1104 77.3247 50.2149 78.0997L50.2149 98.4047C50.2149 102.125 47.3923 103.21 45.6673 103.21H43.0015H40.022C37.9835 103.21 35.7881 101.66 35.7881 98.4047V95.9247V77.4797C35.7881 76.2397 36.5722 75.4647 37.3562 74.9997C38.5129 74.3137 42.2174 73.2947 43.6288 72.2097C44.256 71.7275 45.8241 70.0397 45.8241 69.2647C45.8241 67.4047 44.8833 66.6297 44.0992 66.3197C42.352 65.6289 41.2766 66.3197 40.8061 66.7847C40.3357 67.4047 39.2693 68.4586 41.2766 70.8147Z" fill="url(#paint0_linear_4585_8309)"/>
</g>
<defs>
<linearGradient id="paint0_linear_4585_8309" x1="43.0015" y1="63.6848" x2="43.0015" y2="103.21" gradientUnits="userSpaceOnUse">
<stop stop-color="#06FFB5"/>
<stop offset="1" stop-color="#7E11E6"/>
</linearGradient>
<clipPath id="clip0_4585_8309">
<rect width="149.6" height="52.7" fill="white" transform="translate(35.7002 58.6484)"/>
</clipPath>
</defs>
</svg>
