<svg width="28" height="28" viewBox="0 0 28 28" fill="none" xmlns="http://www.w3.org/2000/svg">
<path d="M24.5271 19.7408V23.2408C24.5283 23.5657 24.4672 23.8873 24.3479 24.185C24.2286 24.4827 24.0536 24.75 23.8341 24.9696C23.6147 25.1893 23.3556 25.3565 23.0734 25.4606C22.7913 25.5647 22.4923 25.6033 22.1957 25.5741C18.9048 25.184 15.7437 23.9573 12.9664 21.9924C10.3824 20.2012 8.19164 17.8113 6.54969 14.9924C4.7423 11.9488 3.61753 8.48359 3.26649 4.87743C3.23977 4.55481 3.27491 4.22965 3.36969 3.92266C3.46447 3.61567 3.61681 3.33357 3.81701 3.09432C4.0172 2.85508 4.26087 2.66393 4.53249 2.53304C4.80412 2.40215 5.09775 2.3344 5.39469 2.3341H8.60302C9.12203 2.32852 9.62519 2.52902 10.0187 2.89822C10.4122 3.26742 10.6693 3.78012 10.7419 4.34076C10.8773 5.46084 11.1285 6.56061 11.4905 7.6191C11.6344 8.03668 11.6655 8.4905 11.5803 8.92679C11.495 9.36308 11.2968 9.76356 11.0093 10.0808L9.65108 11.5624C11.1735 14.4832 13.3903 16.9016 16.0677 18.5624L17.4259 17.0808C17.7167 16.7671 18.0838 16.5509 18.4837 16.4579C18.8837 16.3648 19.2997 16.3988 19.6825 16.5558C20.6527 16.9507 21.6609 17.2247 22.6876 17.3724C23.2071 17.4524 23.6815 17.7378 24.0207 18.1745C24.3599 18.6112 24.5401 19.1686 24.5271 19.7408Z" fill="#0F143A" fill-opacity="0.8"/>
</svg>
