<svg width="24" height="40" viewBox="0 0 24 40" fill="none" xmlns="http://www.w3.org/2000/svg">
<path d="M5.72148 18.0292C5.13846 17.1774 5.0192 16.1729 4.75419 15.2257C4.42293 14.0241 4.13804 12.8099 3.91279 11.5893C3.70078 10.4704 3.56828 9.33248 3.45565 8.20089C3.4159 7.82581 3.31652 7.59694 2.95876 7.43801C2.0511 7.03114 1.33558 6.40177 0.719429 5.65161C0.143033 4.95231 -0.0888453 4.17038 0.0304089 3.29943C0.103286 2.7527 0.20929 2.20598 0.288793 1.74825C1.1567 1.55118 1.91197 1.37316 2.66725 1.20152C6.74177 0.305139 10.8892 0.0572155 15.0498 0C15.4606 0 15.7455 0.12714 15.9906 0.451361C16.3219 0.890014 16.3947 1.37317 16.4544 1.88811C16.5471 2.72092 16.6134 3.56007 16.7657 4.38016C16.9711 5.46725 16.6332 6.27463 15.6328 6.82771C15.2684 7.03115 14.9107 7.23458 14.4734 7.48251C15.3479 10.1589 16.2689 12.7972 16.5604 15.6071C17.0109 15.6898 17.3951 15.7724 17.786 15.8423C20.3566 16.2937 22.2448 17.6415 23.4572 19.8474C23.709 20.3115 23.8415 20.8455 23.9541 21.3668C24.133 22.1996 23.7885 22.6701 22.9272 22.8671C21.4895 23.1977 20.0254 23.4711 18.6076 23.8716C17.4415 24.2022 16.3218 24.6726 15.1889 25.0922C15.0233 25.1558 14.8709 25.2575 14.745 25.3274C14.7185 25.4228 14.6854 25.48 14.6987 25.5181C15.9045 28.8112 16.4941 32.2505 17.1831 35.658C17.415 36.8277 17.4945 38.0292 17.6072 39.2117C17.6337 39.4596 17.5078 39.7203 17.4481 40C17.0705 39.8284 16.8055 39.5995 16.5339 39.5931C16.0436 39.5804 15.878 39.2943 15.772 38.951C15.4606 37.9275 15.1359 36.904 14.8842 35.8678C14.3807 33.7381 13.9368 31.5957 13.4399 29.466C13.3339 29.0019 13.1219 28.5569 12.9562 28.1055C12.8502 27.8195 12.731 27.5397 12.6515 27.2473C12.572 26.9549 12.5322 26.6561 12.4527 26.2492C12.1016 26.3827 11.8167 26.4717 11.5384 26.5989C9.41173 27.5397 7.22541 28.2963 4.9132 28.6904C4.46931 28.7667 4.02541 28.862 3.58152 28.8938C3.21714 28.9193 2.83288 28.9193 2.48174 28.843C1.44821 28.6078 0.924807 27.9148 1.15006 26.9231C1.3952 25.8614 1.71322 24.7998 2.15048 23.8017C2.95213 21.9644 4.0453 20.2797 5.4631 18.8112C5.70161 18.5696 5.85398 18.3344 5.71485 18.0038L5.68835 17.9657L5.72148 18.0229V18.0292ZM4.58856 20.7565C4.27718 20.7692 4.22417 20.9536 4.2573 21.2015C4.21092 21.2079 4.13805 21.2015 4.11818 21.2333C3.45565 22.225 2.79312 23.2104 2.47511 24.3611C2.2896 24.7298 2.09748 25.0985 1.91197 25.4673C1.87222 25.7533 1.83246 26.0458 1.79271 26.3318C1.83246 26.3318 1.87222 26.3318 1.91197 26.3318V25.4609C2.40886 25.2257 2.38898 24.7616 2.45524 24.3357C3.05151 23.2804 3.64778 22.2314 4.23743 21.1761C4.34343 21.0299 4.45606 20.8773 4.56207 20.7247C4.65482 20.5531 4.74095 20.3814 4.8337 20.2098C5.00596 20.0191 5.17158 19.8347 5.34384 19.644C5.47634 19.5232 5.60222 19.396 5.73472 19.2753C5.68172 19.2435 5.63535 19.2117 5.58235 19.1736L5.36371 19.6567C5.19146 19.8474 5.02583 20.0318 4.85358 20.2225C4.76745 20.3942 4.67469 20.5658 4.58856 20.7438V20.7565ZM5.82086 21.4558C5.82086 21.513 5.83411 21.5766 5.83411 21.6338C5.76786 21.7419 5.69498 21.8436 5.62873 21.9517L5.65522 21.9135V21.939C5.44322 22.2441 5.23121 22.5429 5.02583 22.8481L5.05233 22.8353C4.68131 23.5982 4.31031 24.3547 3.93929 25.1176L3.95917 25.1049C3.89954 25.2638 3.83991 25.4164 3.78028 25.5753L3.80016 25.5626C3.53515 26.1538 3.23039 26.7387 3.4954 27.4571C3.75379 27.4126 3.96579 27.4062 4.15793 27.3427C5.35709 26.9421 6.57614 26.5861 7.74218 26.1093C9.49124 25.391 11.2072 24.5836 12.9364 23.8144C14.7649 23.0006 16.6332 22.295 18.5811 21.7928C19.2701 21.6148 19.9657 21.4558 20.6614 21.2969C20.9728 21.2206 21.198 21.0934 21.1649 20.7311C21.0523 19.4342 20.5686 18.3662 19.237 17.8067C18.5612 17.5207 17.8722 17.2473 17.1831 16.9803C16.7657 16.8214 16.3219 16.5416 15.9177 16.5798C15.2684 16.6434 15.0498 16.2492 14.8775 15.8678C14.5264 15.0795 14.1686 14.2657 13.9964 13.4266C13.5658 11.3096 13.2345 9.17355 12.8701 7.04386C12.7707 6.45263 12.6912 5.8614 12.5786 5.09217C13.049 5.3401 13.3803 5.51175 13.7446 5.70883C14.1289 5.44182 14.5198 5.18118 14.8974 4.90146C15.3148 4.59631 15.4672 4.1958 15.3744 3.69358C15.2949 3.24221 15.2353 2.79084 15.1956 2.33311C15.1293 1.50031 15.1227 1.45581 14.268 1.4876C12.7641 1.55117 11.2602 1.64018 9.76287 1.76732C7.99393 1.9199 6.23825 2.1424 4.47593 2.30133C3.4159 2.39669 2.36911 2.7209 1.18319 2.42847C1.18319 3.06419 1.16332 3.64908 1.18982 4.22759C1.20308 4.44374 1.26932 4.69167 1.40183 4.86332C2.01135 5.64526 2.83288 6.13477 3.85316 6.27463C4.71444 6.38906 5.28422 6.47171 5.44322 7.76223C5.69498 9.87285 6.02624 11.9708 6.67552 14.0178C7.00015 15.035 7.19228 16.0839 7.45729 17.1202C7.55667 17.5079 7.66267 17.9085 7.82168 18.2772C8.03369 18.7794 8.01381 18.8811 7.60304 19.2562C7.26516 19.5677 6.93389 19.8919 6.64901 20.2479C6.34425 20.6294 6.09249 21.049 5.82086 21.4495V21.4558ZM12.2275 0.514938C12.2275 0.514938 12.2208 0.502224 12.2142 0.495867H11.4457C11.4457 0.495867 11.4457 0.508581 11.4457 0.514938H12.2275ZM9.10034 0.642072C9.10034 0.642072 9.10034 0.654786 9.10034 0.661143H9.72975C9.72975 0.661143 9.72975 0.648429 9.72975 0.642072H9.10034ZM14.374 0.336935C14.374 0.336935 14.3873 0.368707 14.4005 0.381421H14.7384C14.7384 0.381421 14.7384 0.34965 14.7384 0.336935H14.374ZM7.91443 0.820075C7.91443 0.820075 7.91443 0.788304 7.91443 0.775589L7.56992 0.801004C7.56992 0.801004 7.56992 0.813724 7.56992 0.826439H7.91443V0.820075ZM6.53638 0.979007C6.53638 0.979007 6.53638 0.95358 6.53638 0.940865H6.20512C6.20512 0.940865 6.20512 0.966293 6.20512 0.979007H6.53638ZM3.44902 1.40495C3.44902 1.40495 3.40265 1.42402 3.38277 1.43673C3.40265 1.43673 3.42915 1.43673 3.44902 1.43673C3.4689 1.43673 3.48878 1.43038 3.50866 1.42402C3.48878 1.41767 3.4689 1.41131 3.44902 1.40495ZM4.29705 1.28416L4.28381 1.24602C4.23743 1.24602 4.19105 1.25237 4.14467 1.25873C4.14467 1.27144 4.15793 1.29687 4.15793 1.29687C4.2043 1.29687 4.25067 1.29052 4.29705 1.28416ZM5.44984 1.1316C5.40347 1.10617 5.38359 1.08073 5.37034 1.08709C5.32397 1.0998 5.27097 1.11888 5.22459 1.1316H5.44984ZM1.75296 1.74825C1.75296 1.74825 1.79271 1.73554 1.81259 1.72918C1.79934 1.71647 1.77947 1.69738 1.76622 1.69738C1.74634 1.69738 1.72647 1.71011 1.70659 1.71011C1.71984 1.72282 1.73971 1.72917 1.75296 1.74189V1.74825ZM2.72687 1.54481C2.72687 1.54481 2.68712 1.54481 2.66062 1.54481C2.68049 1.55753 2.707 1.57024 2.72687 1.58296C2.72687 1.57024 2.72687 1.55753 2.72687 1.54481ZM1.22294 1.87539L1.18319 1.84997L1.16994 1.88811L1.22294 1.87539Z" fill="white"/>
<path d="M5.82031 21.6409C5.82031 21.5773 5.82031 21.5138 5.82031 21.4502C5.82694 21.4883 5.84682 21.5328 5.84682 21.571C5.84682 21.5901 5.83357 21.6155 5.82694 21.6346L5.82031 21.6409Z" fill="white"/>
<path d="M5.01855 22.8487C5.01855 22.8487 5.03843 22.8359 5.04505 22.8359L5.01855 22.8487Z" fill="white"/>
<path d="M3.93269 25.1182L3.91943 25.1372L3.94593 25.1055L3.93269 25.1182Z" fill="white"/>
<path d="M3.77351 25.5752L3.76025 25.5943L3.78676 25.5625L3.77351 25.5752Z" fill="white"/>
</svg>
