<svg width="40" height="40" viewBox="0 0 40 40" fill="none" xmlns="http://www.w3.org/2000/svg">
<path d="M11.3488 8C9.50593 8 8 9.50592 8 11.3488C8 13.1918 9.50593 14.6977 11.3488 14.6977C13.1918 14.6977 14.6978 13.1918 14.6978 11.3488C14.6978 9.50592 13.1918 8 11.3488 8ZM11.3488 9.11617C12.5884 9.11617 13.5814 10.1092 13.5814 11.3488C13.5814 12.5884 12.5884 13.5814 11.3488 13.5814C10.1092 13.5814 9.11618 12.5884 9.11618 11.3488C9.11618 10.1092 10.1092 9.11617 11.3488 9.11617ZM9.0639 15.814C8.78943 15.8399 8.55679 16.0964 8.55799 16.3721V31.4418C8.55799 31.734 8.8239 31.9999 9.11608 31.9999H13.8602C14.1524 31.9999 14.4183 31.7339 14.4183 31.4418V16.3721C14.4183 16.0799 14.1524 15.814 13.8602 15.814H9.0639ZM9.67436 16.9301H13.3023V26.4185H12.971C12.6788 26.4321 12.4252 26.7105 12.439 27.0029C12.4524 27.2953 12.731 27.5487 13.0232 27.5349H13.3023V28.6511H12.971C12.6788 28.6647 12.4252 28.9431 12.439 29.2355C12.4524 29.5279 12.731 29.7813 13.0232 29.7675H13.3023V30.8837H9.67438L9.67436 16.9301Z" fill="#001636" fill-opacity="0.92"/>
<path d="M9.67436 16.9301H13.3023V26.4185H12.971C12.6788 26.4321 12.4252 26.7105 12.439 27.0029C12.4524 27.2953 12.731 27.5487 13.0232 27.5349H13.3023V28.6511H12.971C12.6788 28.6647 12.4252 28.9431 12.439 29.2355C12.4524 29.5279 12.731 29.7813 13.0232 29.7675H13.3023V30.8837H9.67438L9.67436 16.9301Z" fill="#001636" fill-opacity="0.92"/>
<path fill-rule="evenodd" clip-rule="evenodd" d="M25.8604 15.2557C24.0757 15.2557 22.8628 16.0145 21.9535 16.8866V16.3721C21.9535 16.0799 21.6876 15.814 21.3954 15.814H16.9302C16.638 15.814 16.3721 16.0799 16.3721 16.3721V31.4418C16.3721 31.734 16.638 31.9999 16.9302 31.9999H21.6743C21.9665 31.9999 22.2324 31.734 22.2324 31.4418V23.0698C22.2324 22.3633 22.4551 21.6939 22.7817 21.2384C23.1088 20.7829 23.5037 20.5582 23.9069 20.5582H24.465C24.8681 20.5582 25.2631 20.7829 25.5899 21.2384C25.9169 21.6941 26.1394 22.3635 26.1394 23.07V31.442C26.1394 31.7342 26.4053 32.0001 26.6975 32.0001H31.4416C31.7338 32.0001 31.9997 31.7342 31.9997 31.442V28.3722L32 21.6746C32 19.814 31.6512 18.1987 30.657 17.035C29.6627 15.8713 28.0642 15.2557 25.8604 15.2557ZM30.8835 30.8837V28.3722L30.8836 21.6746C30.8836 19.9571 30.5473 18.6309 29.8023 17.7588C29.0573 16.8869 27.8625 16.3722 25.8605 16.3722C23.7669 16.3722 22.7685 17.5063 21.8314 18.6745C21.6881 18.8539 21.4273 18.9287 21.2106 18.8526C20.9939 18.7767 20.837 18.5551 20.8372 18.3256V16.9303H17.4885V30.8837H21.1164V29.7675H20.8373C20.5449 29.7814 20.2665 29.5279 20.2531 29.2355C20.2393 28.9431 20.4929 28.6648 20.7851 28.6511H21.1164V27.535H20.8372C20.5448 27.5488 20.2665 27.2953 20.2528 27.0031C20.239 26.7107 20.4927 26.4324 20.7849 26.4187H21.1162V23.07C21.1162 22.1375 21.3947 21.2627 21.8752 20.5933C22.3554 19.9236 23.0733 19.442 23.907 19.442H24.4651C25.2986 19.442 26.0168 19.9236 26.497 20.5931C26.9772 21.2627 27.2558 22.1375 27.2556 23.0698V30.8837H30.8835Z" fill="#001636" fill-opacity="0.92"/>
<path d="M30.8835 28.3722V30.8837H27.2556V23.0698C27.2558 22.1375 26.9772 21.2627 26.497 20.5931C26.0168 19.9236 25.2986 19.442 24.4651 19.442H23.907C23.0733 19.442 22.3554 19.9236 21.8752 20.5933C21.3947 21.2627 21.1162 22.1375 21.1162 23.07V26.4187H20.7849C20.4927 26.4324 20.239 26.7107 20.2528 27.0031C20.2665 27.2953 20.5448 27.5488 20.8372 27.535H21.1164V28.6511H20.7851C20.4929 28.6648 20.2393 28.9431 20.2531 29.2355C20.2665 29.5279 20.5449 29.7814 20.8373 29.7675H21.1164V30.8837H17.4885V16.9303H20.8372V18.3256C20.837 18.5551 20.9939 18.7767 21.2106 18.8526C21.4273 18.9287 21.6881 18.8539 21.8314 18.6745C22.7685 17.5063 23.7669 16.3722 25.8605 16.3722C27.8625 16.3722 29.0573 16.8869 29.8023 17.7588C30.5473 18.6309 30.8836 19.9571 30.8836 21.6746L30.8835 28.3722Z" fill="#001636" fill-opacity="0.92"/>
<path d="M11.3488 9.11617C12.5884 9.11617 13.5814 10.1092 13.5814 11.3488C13.5814 12.5884 12.5884 13.5814 11.3488 13.5814C10.1092 13.5814 9.11618 12.5884 9.11618 11.3488C9.11618 10.1092 10.1092 9.11617 11.3488 9.11617Z" fill="#001636" fill-opacity="0.92"/>
</svg>
