<svg width="40" height="40" viewBox="0 0 40 40" fill="none" xmlns="http://www.w3.org/2000/svg">
<path d="M20.775 23.3396L30.9547 14.5427L30.9898 14.506C30.7089 14.3588 30.358 14.2852 30.0069 14.2852H9.99849C9.64737 14.2852 9.33148 14.3588 9.01562 14.506L19.2304 23.3397C19.6868 23.7079 20.3185 23.7079 20.775 23.3397L20.775 23.3396Z" fill="#001636" fill-opacity="0.92"/>
<path d="M31.8282 15.6488L21.6485 24.4458C21.157 24.8507 20.5953 25.0715 19.9987 25.0715C19.402 25.0715 18.8403 24.8507 18.3488 24.4458L8.13404 15.612C8.09903 15.5752 8.02876 15.5016 7.99374 15.4648C7.81818 15.7961 7.71289 16.2009 7.71289 16.6428V29.8935C7.71289 31.2186 8.73073 32.2859 9.99442 32.2859H30.0028C31.2665 32.2859 32.2843 31.2186 32.2843 29.8935V16.6428C32.2843 16.2012 32.179 15.7963 31.9685 15.4648C31.9334 15.5383 31.8984 15.612 31.8282 15.6487L31.8282 15.6488Z" fill="#001636" fill-opacity="0.92"/>
</svg>
