<svg width="40" height="40" viewBox="0 0 40 40" fill="none" xmlns="http://www.w3.org/2000/svg">
<path d="M1.44838 28.97C2.28038 31.0127 3.79505 32.7994 5.84838 33.6887C6.90654 34.1497 8.06179 34.3435 9.21246 34.253C10.3631 34.1626 11.4739 33.7907 12.447 33.17C13.3768 32.5853 14.1797 31.82 14.8084 30.9194C17.3497 28.8567 17.987 25.15 16.6524 22.0074C15.835 20.0834 14.3497 18.5087 12.3937 17.7327C10.3404 16.9194 8.04571 17.158 6.06038 18.0407C5.14792 18.4505 4.30774 19.0053 3.57238 19.6834C4.17905 15.798 6.54705 12.074 9.83905 9.98869C11.2857 9.06736 12.947 8.43669 14.6164 8.26736C15.299 8.19936 15.8857 7.73403 15.8857 6.99803C15.8857 6.3647 15.303 5.66469 14.6164 5.72869C6.94705 6.49803 1.11238 13.6847 0.895048 21.2314C0.874284 22.0984 0.936343 22.9655 1.08038 23.8207C0.65433 25.5328 0.783193 27.3359 1.44838 28.97ZM11.1017 29.0514L11.063 29.0927C10.9737 29.1927 10.8804 29.286 10.783 29.3754L10.7684 29.39C10.719 29.4247 10.6697 29.4594 10.619 29.49C10.5684 29.5207 10.3284 29.6394 10.331 29.6447C9.87439 29.8408 9.36257 29.8668 8.88838 29.718C8.3711 29.5604 7.898 29.2836 7.50705 28.91C6.59905 28.0527 6.10305 26.9474 6.12971 25.7874C6.14705 25.0367 6.65505 24.302 7.26038 23.8634C7.23099 24.0438 7.21361 24.226 7.20838 24.4087C7.2016 25.53 7.5848 26.6188 8.29238 27.4887C8.91905 28.278 9.82571 28.878 10.835 29.026C10.9234 29.0381 11.0125 29.0443 11.1017 29.0447V29.0514ZM7.41905 20.2047C10.0857 19.1674 12.7617 20.0874 14.0857 22.5287C13.9524 22.4127 13.827 22.294 13.6857 22.1874C10.6604 19.8954 5.48038 20.2674 3.92971 24.1407C3.87638 24.274 3.83771 24.4074 3.79638 24.55C3.74705 24.3687 3.70171 24.1847 3.66305 24.002C4.26571 22.2994 5.67505 20.8807 7.41905 20.2047Z" fill="#FF6146"/>
<path d="M23.2862 28.9693C24.1182 31.012 25.6329 32.7986 27.6862 33.688C28.7444 34.149 29.8996 34.3428 31.0503 34.2523C32.201 34.1619 33.3117 33.79 34.2849 33.1693C35.2126 32.5834 36.014 31.8182 36.6422 30.9186C39.1836 28.856 39.8209 25.1493 38.4862 22.0066C37.6689 20.0826 36.1836 18.508 34.2276 17.732C32.1742 16.9186 29.8796 17.1573 27.8942 18.04C26.9818 18.4498 26.1416 19.0045 25.4062 19.6826C26.0116 15.7973 28.3796 12.0733 31.6729 9.98797C33.1276 9.06531 34.7942 8.43598 36.4582 8.26931C37.1409 8.20131 37.7276 7.73598 37.7276 6.99998C37.7276 6.36665 37.1449 5.66665 36.4582 5.73065C28.7862 6.49731 22.9542 13.684 22.7369 21.2306C22.7111 22.0973 22.7687 22.9644 22.9089 23.82C22.4858 25.533 22.6179 27.3362 23.2862 28.9693ZM32.9396 29.0506L32.9009 29.092C32.8116 29.192 32.7182 29.2853 32.6209 29.3746L32.6049 29.3893C32.5569 29.424 32.5076 29.4586 32.4569 29.4893C32.4062 29.52 32.1662 29.6386 32.1689 29.644C31.7122 29.8401 31.2004 29.8661 30.7262 29.7173C30.2089 29.5597 29.7358 29.2829 29.3449 28.9093C28.4369 28.052 27.9409 26.9466 27.9676 25.7866C27.9849 25.036 28.4929 24.3013 29.0982 23.8626C29.0688 24.0431 29.0515 24.2252 29.0462 24.408C29.0394 25.5293 29.4226 26.6181 30.1302 27.488C30.7569 28.2773 31.6636 28.8773 32.6716 29.0253C32.7599 29.0373 32.849 29.0435 32.9382 29.044L32.9396 29.0506ZM29.2556 20.204C31.9302 19.1666 34.5995 20.0866 35.9302 22.528C35.7969 22.412 35.6715 22.2933 35.5302 22.1866C32.4982 19.8946 27.3089 20.2666 25.7676 24.14C25.7129 24.2733 25.6756 24.4066 25.6342 24.5493C25.5849 24.368 25.5409 24.184 25.5009 24.0013C26.1089 22.2986 27.5129 20.88 29.2556 20.204Z" fill="#FF6146"/>
</svg>
