<svg width="40" height="40" viewBox="0 0 40 40" fill="none" xmlns="http://www.w3.org/2000/svg">
<path d="M38.5516 11.0261C37.7196 8.9834 36.205 7.19674 34.1516 6.30741C33.0935 5.84641 31.9382 5.65261 30.7875 5.74305C29.6369 5.83349 28.5261 6.20541 27.553 6.82607C26.6232 7.4108 25.8203 8.17613 25.1916 9.07673C22.6503 11.1394 22.013 14.8461 23.3476 17.9887C24.165 19.9127 25.6503 21.4874 27.6063 22.2634C29.6596 23.0767 31.9543 22.8381 33.9396 21.9554C34.8521 21.5456 35.6923 20.9908 36.4276 20.3127C35.821 24.1981 33.453 27.9221 30.161 30.0074C28.7143 30.9287 27.053 31.5594 25.3836 31.7287C24.701 31.7967 24.1143 32.2621 24.1143 32.9981C24.1143 33.6314 24.697 34.3314 25.3836 34.2674C33.053 33.4981 38.8876 26.3114 39.105 18.7647C39.1257 17.8977 39.0637 17.0306 38.9196 16.1754C39.3457 14.4633 39.2168 12.6602 38.5516 11.0261ZM28.8983 10.9447L28.937 10.9034C29.0263 10.8034 29.1196 10.7101 29.217 10.6207L29.2316 10.6061C29.281 10.5714 29.3303 10.5367 29.381 10.5061C29.4316 10.4754 29.6716 10.3567 29.669 10.3514C30.1256 10.1553 30.6374 10.1293 31.1116 10.2781C31.6289 10.4357 32.102 10.7125 32.493 11.0861C33.401 11.9434 33.897 13.0487 33.8703 14.2087C33.853 14.9594 33.345 15.6941 32.7396 16.1327C32.769 15.9523 32.7864 15.7701 32.7916 15.5874C32.7984 14.4661 32.4152 13.3773 31.7076 12.5074C31.081 11.7181 30.1743 11.1181 29.165 10.9701C29.0766 10.958 28.9875 10.9518 28.8983 10.9514V10.9447ZM32.581 19.7914C29.9143 20.8287 27.2383 19.9087 25.9143 17.4674C26.0476 17.5834 26.173 17.7021 26.3143 17.8087C29.3396 20.1007 34.5196 19.7287 36.0703 15.8554C36.1236 15.7221 36.1623 15.5887 36.2036 15.4461C36.253 15.6274 36.2983 15.8114 36.337 15.9941C35.7343 17.6967 34.325 19.1154 32.581 19.7914Z" fill="#FF6146"/>
<path d="M16.7138 11.0268C15.8818 8.98412 14.3671 7.19745 12.3138 6.30812C11.2556 5.84713 10.1004 5.65332 8.9497 5.74377C7.79904 5.83421 6.68825 6.20612 5.71511 6.82678C4.78741 7.41268 3.98598 8.17785 3.35778 9.07745C0.816448 11.1401 0.179113 14.8468 1.51378 17.9895C2.33111 19.9135 3.81645 21.4881 5.77245 22.2641C7.82578 23.0775 10.1204 22.8388 12.1058 21.9561C13.0182 21.5463 13.8584 20.9916 14.5938 20.3134C13.9884 24.1988 11.6204 27.9228 8.32711 30.0081C6.87245 30.9308 5.20578 31.5601 3.54178 31.7268C2.85912 31.7948 2.27245 32.2601 2.27245 32.9961C2.27245 33.6294 2.85512 34.3294 3.54178 34.2654C11.2138 33.4988 17.0458 26.3121 17.2631 18.7655C17.2889 17.8988 17.2313 17.0317 17.0911 16.1761C17.5142 14.4631 17.3821 12.6599 16.7138 11.0268ZM7.06045 10.9454L7.09911 10.9041C7.18845 10.8041 7.28178 10.7108 7.37912 10.6215L7.39511 10.6068C7.44311 10.5721 7.49245 10.5375 7.54312 10.5068C7.59378 10.4761 7.83378 10.3574 7.83111 10.3521C8.28777 10.156 8.79959 10.13 9.27378 10.2788C9.79106 10.4364 10.2642 10.7132 10.6551 11.0868C11.5631 11.9441 12.0591 13.0494 12.0324 14.2094C12.0151 14.9601 11.5071 15.6948 10.9018 16.1335C10.9312 15.953 10.9485 15.7708 10.9538 15.5881C10.9606 14.4668 10.5774 13.378 9.86978 12.5081C9.24311 11.7188 8.33645 11.1188 7.32845 10.9708C7.24006 10.9588 7.15098 10.9526 7.06178 10.9521L7.06045 10.9454ZM10.7444 19.7921C8.06978 20.8294 5.40045 19.9094 4.06979 17.4681C4.20312 17.5841 4.32845 17.7028 4.46979 17.8094C7.50179 20.1014 12.6911 19.7295 14.2324 15.8561C14.2871 15.7228 14.3244 15.5895 14.3658 15.4468C14.4151 15.6281 14.4591 15.8121 14.4991 15.9948C13.8911 17.6974 12.4871 19.1161 10.7444 19.7921Z" fill="#FF6146"/>
</svg>
