<svg width="32" height="38" viewBox="0 0 32 38" fill="none" xmlns="http://www.w3.org/2000/svg">
<path d="M22.8524 3.17621C22.5162 3.32019 22.2283 3.60814 22.0364 3.99217L20.0204 10.2323L17.8123 5.43226L17.3321 5.76842C10.9484 10.3283 7.68414 18.6324 9.07648 26.9844L1.01231 37.1124C0.868335 37.3043 0.868336 37.6405 1.1084 37.7844C1.2045 37.8323 1.30026 37.8805 1.39635 37.8805C1.54033 37.8805 1.6843 37.8326 1.7804 37.6887L9.84422 27.5607C19.7802 26.9366 27.8442 19.6887 29.4762 9.84865L31.1081 0.0566406L22.8524 3.17621ZM28.5162 9.70422C26.9804 18.8242 19.7322 25.5922 10.6602 26.5522L17.4283 18.0082C17.5723 17.8164 17.5723 17.4802 17.3322 17.3362C17.1404 17.1923 16.8042 17.1923 16.6602 17.4323L9.8925 25.9281C8.93258 18.4402 11.8606 11.1441 17.4287 6.92007L20.1645 12.8722L22.9007 4.28015C22.9485 4.18406 23.0446 4.0883 23.1407 4.04009L29.8606 1.544L28.5162 9.70422Z" fill="#343434"/>
</svg>
