<svg width="40" height="40" viewBox="0 0 40 40" fill="none" xmlns="http://www.w3.org/2000/svg">
<path d="M29.3132 17.8364C29.3275 18.0534 29.3275 18.2703 29.3275 18.4893C29.3275 25.1619 24.4924 32.8574 15.6511 32.8574V32.8534C13.0394 32.8574 10.4819 32.0715 8.2832 30.5896C8.66297 30.6376 9.04464 30.6616 9.42727 30.6626C11.5917 30.6646 13.6942 29.9016 15.397 28.4967C13.3401 28.4557 11.5365 27.0468 10.9064 24.9899C11.6269 25.1359 12.3693 25.1059 13.0765 24.9029C10.834 24.427 9.22073 22.3571 9.22073 19.9532C9.22073 19.9312 9.22073 19.9102 9.22073 19.8892C9.88889 20.2802 10.637 20.4972 11.4023 20.5212C9.29021 19.0383 8.63918 16.0865 9.91459 13.7786C12.355 16.9334 15.9557 18.8513 19.8209 19.0543C19.4335 17.3004 19.9627 15.4625 21.2115 14.2296C23.1475 12.3177 26.1923 12.4157 28.0121 14.4486C29.0886 14.2256 30.1204 13.8106 31.0646 13.2227C30.7057 14.3916 29.9548 15.3845 28.9516 16.0155C29.9043 15.8975 30.8352 15.6295 31.7118 15.2205C31.0665 16.2365 30.2536 17.1214 29.3132 17.8364Z" fill="#001636" fill-opacity="0.92"/>
</svg>
