<svg width="440" height="240" viewBox="0 0 440 240" fill="none" xmlns="http://www.w3.org/2000/svg">
<path d="M437.849 74.4766C433.476 24.9555 413.273 13.2249 392.575 9.61535C291.855 -2.2147 189.904 -2.34686 89.1242 4.97126C67.3697 6.54493 43.3465 3.93684 23.9355 28.6534C18.2437 35.8802 13.4081 39.5962 9.82478 51.7409C-4.94916 101.812 -1.2145 140.389 8.90236 193.498C23.9355 231.134 41.6263 229.89 41.6263 229.89C41.6263 229.89 113.262 234.446 148.763 235.007C198.659 235.799 248.561 235.854 298.457 236.195C315.514 236.316 332.572 236.393 349.635 236.878C367.834 237.395 382.687 245.77 402.772 232.729C409.862 225.631 413.632 224.713 419.984 215.172C426.336 205.631 431.651 197.707 435.371 178.856C441.464 147.889 440.711 106.885 437.849 74.4766ZM433.716 135.927C433.008 209.856 402.582 233.417 373.453 230.38C340.37 226.925 307.023 229.048 273.915 228.872C223.64 228.608 173.36 228.432 123.085 227.145C104.746 226.682 86.4018 226.121 68.0728 224.636C50.5764 223.216 30.9111 221.675 17.8325 192.645C1.03922 155.361 4.32009 81.0905 19.6674 45.4793C33.833 12.6083 56.7892 14.2149 75.7664 12.3001C113.108 8.53649 150.558 8.23936 187.909 8.16233C256.05 8.00826 324.529 7.81012 392.575 15.8105C409.294 18.7158 424.985 30.2487 431.098 67.5326C434.608 88.9587 433.925 113.532 433.716 135.927Z" fill="#001636" fill-opacity="0.92"/>
</svg>
