<svg width="1765" height="10" viewBox="0 0 1765 10" fill="none" xmlns="http://www.w3.org/2000/svg">
<path d="M1514.3 0.0369045C1506.65 -0.0979136 1498.99 0.136929 1491.47 0.736885C1487.7 1.03133 1484.67 2.26674 1485.03 4.00387C1485.33 5.50589 1488.92 7.0424 1492.71 6.74325C1500.23 6.14537 1507.9 5.91284 1515.55 6.05016C1519.38 6.11572 1522.29 4.25375 1521.99 2.7793C1521.59 0.974949 1518.12 0.0964164 1514.3 0.0369045Z" fill="#8ED0EE"/>
<path d="M1558.45 0.213864L1542.4 0.132257C1538.58 0.108044 1535.65 1.89421 1535.96 3.39925C1536.33 5.16008 1539.77 6.11006 1543.65 6.14164L1559.68 6.2241C1563.5 6.24831 1566.43 4.46214 1566.12 2.95711C1565.77 1.19156 1562.27 0.227318 1558.45 0.213864Z" fill="#8ED0EE"/>
<path d="M1603.95 1.71519L1587.89 1.69039C1584.08 1.67222 1581.13 3.4386 1581.45 4.95742C1581.8 6.70145 1585.28 7.6949 1589.13 7.69675L1605.19 7.72156C1608.99 7.73973 1611.94 5.97339 1611.63 4.45457C1611.27 2.71054 1607.83 1.72913 1603.95 1.71519Z" fill="#8ED0EE"/>
<path d="M1662.12 2.16303C1655.82 1.70573 1649.42 1.59489 1643.06 1.83321C1633.97 2.17523 1635.19 8.18244 1644.28 7.84731C1649.38 7.65208 1654.51 7.73906 1659.55 8.10604C1668.55 8.75117 1671.12 2.81893 1662.12 2.16303Z" fill="#8ED0EE"/>
<path d="M1714.6 3.6983C1706.31 3.02972 1697.01 3.45936 1688.88 4.23368C1685.15 4.59316 1683.51 6.72803 1684.7 8.10687C1686.17 9.79941 1690.07 10.2396 1693.8 9.88701C1692.63 10.0009 1694.83 9.82293 1695.05 9.80806C1695.94 9.75464 1696.83 9.70423 1697.72 9.66157C1699.62 9.57249 1701.54 9.51788 1703.45 9.48091C1706.29 9.37291 1709.16 9.42074 1711.97 9.62317C1721.02 10.3609 1723.56 4.4295 1714.6 3.6983Z" fill="#8ED0EE"/>
<path d="M1757.28 1.80134L1739.29 1.90176C1735.46 1.91973 1732.54 3.63228 1732.85 5.16875C1733.21 6.89513 1736.69 7.92694 1740.53 7.90812L1758.54 7.82065C1762.38 7.80182 1765.3 6.08621 1764.98 4.55361C1764.6 2.81429 1761.12 1.78252 1757.28 1.80134Z" fill="#8ED0EE"/>
<path d="M1217.3 0.0369045C1209.65 -0.0979136 1201.99 0.136929 1194.47 0.736885C1190.7 1.03133 1187.67 2.26674 1188.03 4.00387C1188.33 5.50589 1191.92 7.0424 1195.71 6.74325C1203.23 6.14537 1210.9 5.91284 1218.55 6.05016C1222.38 6.11572 1225.29 4.25375 1224.99 2.7793C1224.59 0.974949 1221.12 0.0964164 1217.3 0.0369045Z" fill="#8ED0EE"/>
<path d="M1261.45 0.213864L1245.4 0.132257C1241.58 0.108044 1238.65 1.89421 1238.96 3.39925C1239.33 5.16008 1242.77 6.11006 1246.65 6.14164L1262.68 6.2241C1266.5 6.24831 1269.43 4.46214 1269.12 2.95711C1268.77 1.19156 1265.27 0.227318 1261.45 0.213864Z" fill="#8ED0EE"/>
<path d="M1306.95 1.71519L1290.89 1.69039C1287.08 1.67222 1284.13 3.4386 1284.45 4.95742C1284.8 6.70145 1288.28 7.6949 1292.13 7.69675L1308.19 7.72156C1311.99 7.73973 1314.94 5.97339 1314.63 4.45457C1314.27 2.71054 1310.83 1.72913 1306.95 1.71519Z" fill="#8ED0EE"/>
<path d="M1365.12 2.16303C1358.82 1.70573 1352.42 1.59489 1346.06 1.83321C1336.97 2.17523 1338.19 8.18244 1347.28 7.84731C1352.38 7.65208 1357.51 7.73906 1362.55 8.10604C1371.55 8.75117 1374.12 2.81893 1365.12 2.16303Z" fill="#8ED0EE"/>
<path d="M1417.6 3.6983C1409.31 3.02972 1400.01 3.45936 1391.88 4.23368C1388.15 4.59316 1386.51 6.72803 1387.7 8.10687C1389.17 9.79941 1393.07 10.2396 1396.8 9.88701C1395.63 10.0009 1397.83 9.82293 1398.05 9.80806C1398.94 9.75464 1399.83 9.70423 1400.72 9.66157C1402.62 9.57249 1404.54 9.51788 1406.45 9.48091C1409.29 9.37291 1412.16 9.42074 1414.97 9.62317C1424.02 10.3609 1426.56 4.4295 1417.6 3.6983Z" fill="#8ED0EE"/>
<path d="M1460.28 1.80134L1442.29 1.90176C1438.46 1.91973 1435.54 3.63228 1435.85 5.16875C1436.21 6.89513 1439.69 7.92694 1443.53 7.90812L1461.54 7.82065C1465.38 7.80182 1468.3 6.08621 1467.98 4.55361C1467.6 2.81429 1464.12 1.78252 1460.28 1.80134Z" fill="#8ED0EE"/>
<path d="M920.304 0.0369045C912.654 -0.0979136 904.992 0.136929 897.466 0.736885C893.705 1.03133 890.675 2.26674 891.028 4.00387C891.33 5.50589 894.922 7.0424 898.707 6.74325C906.234 6.14537 913.896 5.91284 921.547 6.05016C925.379 6.11572 928.286 4.25375 927.992 2.7793C927.586 0.974949 924.119 0.0964164 920.304 0.0369045Z" fill="#8ED0EE"/>
<path d="M964.445 0.213864L948.402 0.132257C944.581 0.108044 941.652 1.89421 941.963 3.39925C942.332 5.16008 945.77 6.11006 949.651 6.14164L965.678 6.2241C969.499 6.24831 972.428 4.46214 972.117 2.95711C971.772 1.19156 968.271 0.227318 964.445 0.213864Z" fill="#8ED0EE"/>
<path d="M1009.95 1.71519L993.887 1.69039C990.084 1.67222 987.133 3.4386 987.448 4.95742C987.803 6.70145 991.279 7.6949 995.127 7.69675L1011.19 7.72156C1014.99 7.73973 1017.94 5.97339 1017.63 4.45457C1017.27 2.71054 1013.83 1.72913 1009.95 1.71519Z" fill="#8ED0EE"/>
<path d="M1068.12 2.16303C1061.82 1.70573 1055.42 1.59489 1049.06 1.83321C1039.97 2.17523 1041.19 8.18244 1050.28 7.84731C1055.38 7.65208 1060.51 7.73906 1065.55 8.10604C1074.55 8.75117 1077.12 2.81893 1068.12 2.16303Z" fill="#8ED0EE"/>
<path d="M1120.6 3.6983C1112.31 3.02972 1103.01 3.45936 1094.88 4.23368C1091.15 4.59316 1089.51 6.72803 1090.7 8.10687C1092.17 9.79941 1096.07 10.2396 1099.8 9.88701C1098.63 10.0009 1100.83 9.82293 1101.05 9.80806C1101.94 9.75464 1102.83 9.70423 1103.72 9.66157C1105.62 9.57249 1107.54 9.51788 1109.45 9.48091C1112.29 9.37291 1115.16 9.42074 1117.97 9.62317C1127.02 10.3609 1129.56 4.4295 1120.6 3.6983Z" fill="#8ED0EE"/>
<path d="M1163.28 1.80134L1145.29 1.90176C1141.46 1.91973 1138.54 3.63228 1138.85 5.16875C1139.21 6.89513 1142.69 7.92694 1146.53 7.90812L1164.54 7.82065C1168.38 7.80182 1171.3 6.08621 1170.98 4.55361C1170.6 2.81429 1167.12 1.78252 1163.28 1.80134Z" fill="#8ED0EE"/>
<path d="M623.304 0.0369045C615.654 -0.0979136 607.992 0.136929 600.466 0.736885C596.705 1.03133 593.675 2.26674 594.028 4.00387C594.33 5.50589 597.922 7.0424 601.707 6.74325C609.234 6.14537 616.896 5.91284 624.547 6.05016C628.379 6.11572 631.286 4.25375 630.992 2.7793C630.586 0.974949 627.119 0.0964164 623.304 0.0369045Z" fill="#8ED0EE"/>
<path d="M667.445 0.213864L651.402 0.132257C647.581 0.108044 644.652 1.89421 644.963 3.39925C645.332 5.16008 648.77 6.11006 652.651 6.14164L668.678 6.2241C672.499 6.24831 675.428 4.46214 675.117 2.95711C674.772 1.19156 671.271 0.227318 667.445 0.213864Z" fill="#8ED0EE"/>
<path d="M712.947 1.71519L696.887 1.69039C693.084 1.67222 690.133 3.4386 690.448 4.95742C690.803 6.70145 694.279 7.6949 698.127 7.69675L714.187 7.72156C717.99 7.73973 720.94 5.97339 720.625 4.45457C720.27 2.71054 716.831 1.72913 712.947 1.71519Z" fill="#8ED0EE"/>
<path d="M771.116 2.16303C764.823 1.70573 758.417 1.59489 752.058 1.83321C742.967 2.17523 744.191 8.18244 753.284 7.84731C758.377 7.65208 763.508 7.73906 768.548 8.10604C777.554 8.75117 780.116 2.81893 771.116 2.16303Z" fill="#8ED0EE"/>
<path d="M823.597 3.6983C815.307 3.02972 806.012 3.45936 797.884 4.23368C794.149 4.59316 792.513 6.72803 793.7 8.10687C795.175 9.79941 799.066 10.2396 802.803 9.88701C801.628 10.0009 803.829 9.82293 804.046 9.80806C804.935 9.75464 805.833 9.70423 806.716 9.66157C808.622 9.57249 810.538 9.51788 812.451 9.48091C815.295 9.37291 818.159 9.42074 820.975 9.62317C830.016 10.3609 832.562 4.4295 823.597 3.6983Z" fill="#8ED0EE"/>
<path d="M866.277 1.80134L848.289 1.90176C844.464 1.91973 841.538 3.63228 841.85 5.16875C842.209 6.89513 845.688 7.92694 849.529 7.90812L867.538 7.82065C871.379 7.80182 874.295 6.08621 873.976 4.55361C873.597 2.81429 870.119 1.78252 866.277 1.80134Z" fill="#8ED0EE"/>
<path d="M326.304 0.0369045C318.654 -0.0979136 310.992 0.136929 303.466 0.736885C299.705 1.03133 296.675 2.26674 297.028 4.00387C297.33 5.50589 300.922 7.0424 304.707 6.74325C312.234 6.14537 319.896 5.91284 327.547 6.05016C331.379 6.11572 334.286 4.25375 333.992 2.7793C333.586 0.974949 330.119 0.0964164 326.304 0.0369045Z" fill="#8ED0EE"/>
<path d="M370.445 0.213864L354.402 0.132257C350.581 0.108044 347.652 1.89421 347.963 3.39925C348.332 5.16008 351.77 6.11006 355.651 6.14164L371.678 6.2241C375.499 6.24831 378.428 4.46214 378.117 2.95711C377.772 1.19156 374.271 0.227318 370.445 0.213864Z" fill="#8ED0EE"/>
<path d="M415.947 1.71519L399.887 1.69039C396.084 1.67222 393.133 3.4386 393.448 4.95742C393.803 6.70145 397.279 7.6949 401.127 7.69675L417.187 7.72156C420.99 7.73973 423.94 5.97339 423.625 4.45457C423.27 2.71054 419.831 1.72913 415.947 1.71519Z" fill="#8ED0EE"/>
<path d="M474.116 2.16303C467.823 1.70573 461.417 1.59489 455.058 1.83321C445.967 2.17523 447.191 8.18244 456.284 7.84731C461.377 7.65208 466.508 7.73906 471.548 8.10604C480.554 8.75117 483.116 2.81893 474.116 2.16303Z" fill="#8ED0EE"/>
<path d="M526.597 3.6983C518.307 3.02972 509.012 3.45936 500.884 4.23368C497.149 4.59316 495.513 6.72803 496.7 8.10687C498.175 9.79941 502.066 10.2396 505.803 9.88701C504.628 10.0009 506.829 9.82293 507.046 9.80806C507.935 9.75464 508.833 9.70423 509.716 9.66157C511.622 9.57249 513.538 9.51788 515.451 9.48091C518.295 9.37291 521.159 9.42074 523.975 9.62317C533.016 10.3609 535.562 4.4295 526.597 3.6983Z" fill="#8ED0EE"/>
<path d="M569.277 1.80134L551.289 1.90176C547.464 1.91973 544.538 3.63228 544.85 5.16875C545.209 6.89513 548.688 7.92694 552.529 7.90812L570.538 7.82065C574.379 7.80182 577.295 6.08621 576.976 4.55361C576.597 2.81429 573.119 1.78252 569.277 1.80134Z" fill="#8ED0EE"/>
<path d="M29.3043 0.0369045C21.654 -0.0979136 13.9924 0.136929 6.46648 0.736885C2.70463 1.03133 -0.325293 2.26674 0.0280695 4.00387C0.330017 5.50589 3.92154 7.0424 7.70668 6.74325C15.2338 6.14537 22.8962 5.91284 30.5465 6.05016C34.3794 6.11572 37.286 4.25375 36.992 2.7793C36.5864 0.974949 33.119 0.0964164 29.3043 0.0369045Z" fill="#8ED0EE"/>
<path d="M73.4454 0.213864L57.4016 0.132257C53.5807 0.108044 50.6522 1.89421 50.9632 3.39925C51.3316 5.16008 54.7703 6.11006 58.6509 6.14164L74.6785 6.2241C78.4994 6.24831 81.4279 4.46214 81.1169 2.95711C80.7718 1.19156 77.2714 0.227318 73.4454 0.213864Z" fill="#8ED0EE"/>
<path d="M118.947 1.71519L102.887 1.69039C99.0838 1.67222 96.1331 3.4386 96.4481 4.95742C96.8034 6.70145 100.279 7.6949 104.127 7.69675L120.187 7.72156C123.99 7.73973 126.94 5.97339 126.625 4.45457C126.27 2.71054 122.831 1.72913 118.947 1.71519Z" fill="#8ED0EE"/>
<path d="M177.116 2.16303C170.823 1.70573 164.417 1.59489 158.058 1.83321C148.967 2.17523 150.191 8.18244 159.284 7.84731C164.377 7.65208 169.508 7.73906 174.548 8.10604C183.554 8.75117 186.116 2.81893 177.116 2.16303Z" fill="#8ED0EE"/>
<path d="M229.597 3.6983C221.307 3.02972 212.012 3.45936 203.884 4.23368C200.149 4.59316 198.513 6.72803 199.7 8.10687C201.175 9.79941 205.066 10.2396 208.803 9.88701C207.628 10.0009 209.829 9.82293 210.046 9.80806C210.935 9.75464 211.833 9.70423 212.716 9.66157C214.622 9.57249 216.538 9.51788 218.451 9.48091C221.295 9.37291 224.16 9.42074 226.975 9.62317C236.016 10.3609 238.562 4.4295 229.597 3.6983Z" fill="#8ED0EE"/>
<path d="M272.277 1.80134L254.289 1.90176C250.463 1.91973 247.538 3.63228 247.85 5.16875C248.209 6.89513 251.687 7.92694 255.529 7.90812L273.538 7.82065C277.379 7.80182 280.295 6.08621 279.976 4.55361C279.597 2.81429 276.119 1.78252 272.277 1.80134Z" fill="#8ED0EE"/>
</svg>
